<?xml version="1.0" encoding="utf-8"?>
<!-- Generator: Adobe Illustrator 19.0.0, SVG Export Plug-In . SVG Version: 6.00 Build 0)  -->
<svg version="1.1" xmlns="http://www.w3.org/2000/svg" xmlns:xlink="http://www.w3.org/1999/xlink" x="0px" y="0px"
	 viewBox="0 0 442.6 210.9" style="enable-background:new 0 0 442.6 210.9;" xml:space="preserve">
<style type="text/css">
	.st0{fill:#C1E8F8;}
	.st1{fill:#545E65;}
	.st2{fill:#F6F6F6;}
	.st3{fill:#1C21AD;}
	.st4{display:none;}
	.st5{display:inline;}
</style>
<g id="Hard_Liquor">
</g>
<g id="Servers">
	<g>
		<g>
			<g id="Body_9_">
				<g>
					<path class="st0" d="M169.5,113.5c0-11.5,11.2-20.8,25-20.8c13.8,0,25,9.3,25,20.8"/>
					<path class="st1" d="M220,113.5h-1c0-11.2-11-20.3-24.5-20.3s-24.5,9.1-24.5,20.3h-1c0-11.8,11.4-21.3,25.5-21.3
						S220,101.7,220,113.5z"/>
				</g>
			</g>
			<g>
				<path id="Neck_1_" class="st2" d="M186.1,82.9v13.9c0,0.4,0.5,0.9,1.2,1.4c3.9,2.8,9.1,2.9,13.3,0.5c1.2-0.7,2.1-1.4,2.1-1.9
					V82.9H186.1z"/>
				<path class="st1" d="M194.3,101c-2.6,0-5.1-0.8-7.2-2.3c-1-0.7-1.5-1.3-1.5-1.8V82.4h17.7v14.4c0,0.7-0.7,1.4-2.4,2.4
					C198.9,100.4,196.6,101,194.3,101z M186.6,96.8c0,0,0,0.3,1,1c3.7,2.7,8.7,2.9,12.7,0.5c1.8-1.1,1.9-1.5,1.9-1.5l0-13.4h-15.7
					V96.8L186.6,96.8z"/>
			</g>
			<g>
				<path id="Head_1_" class="st2" d="M194.5,51.8c-8.3,0-14.9,8.2-14.9,12.2h0v2.8c0,12.7,6.8,23.4,14.9,23.4
					c8.2,0,14.9-10.7,14.9-23.4V64h0C209.4,60,202.7,51.8,194.5,51.8z"/>
				<path class="st1" d="M194.5,90.7c-8.4,0-15.4-10.9-15.4-23.9V64c0-4.3,7-12.7,15.4-12.7c8.5,0,15.4,8.4,15.4,12.7v2.8
					C209.9,79.7,202.8,90.7,194.5,90.7z M194.5,52.3c-7.8,0-14.4,7.9-14.4,11.7l0,2.8c0,12.4,6.6,22.9,14.4,22.9
					s14.4-10.5,14.4-22.9V64C208.9,60.2,202.2,52.3,194.5,52.3z"/>
			</g>
			<path class="st1" d="M182.5,68.9"/>
			<ellipse id="Left_x5F_eye_6_" class="st1" cx="186.5" cy="70.3" rx="2" ry="2.5"/>
			<ellipse id="Right_x5F_eye_6_" class="st1" cx="202.5" cy="70.3" rx="2" ry="2.5"/>
			<g>
				<path class="st3" d="M203.2,51.1c-4.8-4.8-21.7-7.1-23.4,5.5c0,0.3-0.2,0.5-0.4,0.6c-2.2,1.9-1.9,7.3-1.1,12.2
					c0.1,0.5,0.5,0.9,1.1,0.9l0.4,0c0.6,0,1-0.4,1.1-1c0.5-6,2.4-10.7,2.4-10.7c8.6-3.7,11.7,0.9,17.8-2c0.1-0.1,0.3-0.1,0.5-0.1
					c5.1,0.1,6.9,5.8,7.4,12.8c0,0.6,0.5,1,1.1,1l0,0c0.6,0,1.1-0.5,1.1-1c0.2-7.9-0.5-19.1-7.1-17.8
					C203.8,51.4,203.4,51.3,203.2,51.1z"/>
			</g>
			<path class="st3" d="M194.5,79.6c-2.2-2.2-9.8,3.7-10.5,4.3c-1,0.8-0.6,2.9,1,2.9c1,0,9.3-4.2,9.6-4.4c0.3,0.3,8.6,4.4,9.6,4.4
				c1.6,0,2-2.1,1-2.9C204.2,83.3,196.7,77.3,194.5,79.6z"/>
		</g>
		<g>
			<g>
				<path class="st0" d="M282.7,82.8c-0.4,0.1-0.8,0.1-1.2,0.1c-2.8,0-5.2-1.9-6-4.5c0.4-1.5,0.7-3.1,0.7-4.8
					c0-9.5-7.7-17.2-17.2-17.2c-3.7,0-7.1,1.2-9.9,3.2c-1.9-1.1-4.1-1.8-6.5-1.8c-7,0-12.7,5.7-12.7,12.7c0,2.6,0.8,5.1,2.2,7.1
					c-0.4,1.2-0.6,2.5-0.6,3.9c0,7.2,5.8,13,13,13c1.4,0,2.7-0.2,4-0.6c0,0,0,0.1,0,0.1c0,6.8,5.5,12.3,12.3,12.3
					c6.8,0,12.3-5.5,12.3-12.3c0-0.5,0-1-0.1-1.5c0.2,0,0.4,0,0.6,0c5,0,9.1-4.1,9.1-9.1C282.8,83.3,282.8,83,282.7,82.8z"/>
				<path class="st1" d="M260.9,106.8c-6.8,0-12.4-5.4-12.7-12.2c-1.1,0.3-2.3,0.5-3.5,0.5c-7.5,0-13.5-6.1-13.5-13.5
					c0-1.3,0.2-2.6,0.5-3.8c-1.4-2.1-2.1-4.6-2.1-7.2c0-7.3,5.9-13.2,13.2-13.2c2.2,0,4.5,0.6,6.4,1.7c3-2,6.4-3.1,10-3.1
					c9.8,0,17.7,7.9,17.7,17.7c0,1.6-0.2,3.2-0.7,4.8c0.7,2.4,2.9,4,5.4,4c0.3,0,0.7,0,1.1-0.1l0.6-0.1l0,0.6l-0.5,0l0.5,0.1
					c0,0.2,0,0.4,0,0.6c0,5.3-4.3,9.6-9.6,9.6c0,0,0,0-0.1,0c0,0.3,0,0.6,0,0.9C273.7,101.1,267.9,106.8,260.9,106.8z M249.2,93.2
					v0.7c0,6.6,5.3,11.8,11.8,11.8c6.5,0,11.8-5.3,11.8-11.8c0-0.4,0-0.9-0.1-1.4l-0.1-0.6l0.7,0c0.2,0,0.3,0,0.5,0
					c4.7,0,8.6-3.9,8.6-8.6c0,0,0,0,0-0.1c-0.2,0-0.5,0-0.7,0c-3,0-5.6-2-6.4-4.9l0-0.1l0-0.1c0.4-1.5,0.7-3.1,0.7-4.6
					c0-9.2-7.5-16.7-16.7-16.7c-3.5,0-6.8,1.1-9.6,3.1l-0.3,0.2l-0.3-0.2c-1.9-1.1-4-1.7-6.2-1.7c-6.7,0-12.2,5.5-12.2,12.2
					c0,2.4,0.7,4.8,2.1,6.8l0.1,0.2l-0.1,0.2c-0.4,1.2-0.6,2.5-0.6,3.8c0,6.9,5.6,12.5,12.5,12.5c1.3,0,2.6-0.2,3.8-0.6L249.2,93.2z
					"/>
			</g>
			<g id="Body_1_">
				<path class="st3" d="M227.3,111.7c0-10.9,10.6-19.8,23.7-19.8c13.1,0,23.7,8.8,23.7,19.8"/>
			</g>
			<g>
				<path id="Neck_2_" class="st2" d="M244.4,80.4v16.1c0,1.6,3,2.8,6.6,2.8c3.7,0,6.6-1.3,6.6-2.8V80.4H244.4z"/>
				<path class="st1" d="M251,99.9c-4.1,0-7.1-1.4-7.1-3.3V79.9h14.3v16.6C258.1,98.5,255.1,99.9,251,99.9z M244.9,80.9v15.6
					c0,1.1,2.5,2.3,6.1,2.3s6.1-1.2,6.1-2.3V80.9H244.9z"/>
			</g>
			<g>
				<path id="Head_2_" class="st2" d="M251,60.2c-7.9,0-14.2,2.8-14.2,6.3h0v2.4c0,11.1,6.5,20.5,14.2,20.5
					c7.8,0,14.2-9.4,14.2-20.5v-2.4h0C265.2,63,258.9,60.2,251,60.2z"/>
				<path class="st1" d="M251,90c-8,0-14.7-9.6-14.7-21v-2.4c0-3.8,6.5-6.8,14.7-6.8s14.7,3,14.7,6.8v2.4C265.7,80.3,259,90,251,90z
					 M251,60.7c-7.4,0-13.7,2.7-13.7,5.8v2.4c0,10.8,6.3,20,13.7,20s13.7-9.2,13.7-20v-2.4C264.7,63.4,258.4,60.7,251,60.7z"/>
			</g>
			<ellipse id="Left_x5F_eye_1_" class="st1" cx="243.1" cy="72.8" rx="1.6" ry="2"/>
			<ellipse id="Right_x5F_eye_1_" class="st1" cx="258.9" cy="72.8" rx="1.6" ry="2"/>
			<path id="Mouth_1_" class="st1" d="M255,81.1c-2.2-1.1-5.7-1.1-7.9,0h-0.8c2.6,4.2,6.9,4.2,9.5,0H255z"/>
			<g>
				<path class="st0" d="M268.1,62.9c0-9.4-7.6-17.1-17.1-17.1c-8.9,0-16.2,6.8-17,15.5c-0.1,1,0.1,1.9,0.5,2.8l0.5,1
					c5.2,5.2,13.7,5.2,18.9,0c0.7-0.7,1.3-1.4,1.8-2.2c0.5,1.4,1.2,2.6,2.3,3.7c1.8,1.8,4.3,2.8,6.7,2.8c2.4,0,4.8-0.9,6.7-2.8
					L268.1,62.9z"/>
				<path class="st1" d="M264.5,69.9c-2.7,0-5.1-1-7-2.9c-0.9-0.9-1.6-1.9-2-3c-0.4,0.5-0.8,1-1.3,1.5c-5.4,5.4-14.2,5.4-19.6,0
					l-0.1-0.1l-0.5-1c-0.5-1-0.6-2-0.5-3.1c0.8-9.1,8.4-15.9,17.5-15.9c9.6,0,17.5,7.8,17.6,17.4l3.3,3.9l-0.3,0.3
					C269.7,68.9,267.2,69.9,264.5,69.9z M255.8,61.8l0.3,1c0.4,1.3,1.2,2.5,2.2,3.5c1.7,1.7,3.9,2.6,6.3,2.6c2.2,0,4.3-0.8,6-2.3
					l-2.9-3.5v-0.2c0-9.1-7.4-16.6-16.6-16.6c-8.6,0-15.7,6.5-16.5,15c-0.1,0.9,0.1,1.8,0.5,2.6l0.4,0.9c5,4.9,13.1,4.9,18.1-0.1
					c0.6-0.6,1.2-1.4,1.7-2.1L255.8,61.8z"/>
			</g>
		</g>
	</g>
</g>
<g id="Bar">
	<g>
		<path class="st2" d="M342.9,210.4H98c-5.8,0-10.4-4.7-10.4-10.4v-79.1h265.7V200C353.3,205.7,348.7,210.4,342.9,210.4z"/>
		<path class="st1" d="M342.9,210.9H98c-6,0-10.9-4.9-10.9-10.9v-79.6h266.7V200C353.8,206,348.9,210.9,342.9,210.9z M88.1,121.4
			V200c0,5.5,4.4,9.9,9.9,9.9h244.9c5.5,0,9.9-4.4,9.9-9.9v-78.6H88.1z"/>
	</g>
	<g>
		<path class="st2" d="M358.8,120.8h-276c-2.2,0-4-1.8-4-4v-3c0-2.2,1.8-4,4-4h276c2.2,0,4,1.8,4,4v3
			C362.8,119,361,120.8,358.8,120.8z"/>
		<path class="st1" d="M358.8,121.3h-276c-2.5,0-4.5-2-4.5-4.5v-3c0-2.5,2-4.5,4.5-4.5h276c2.5,0,4.5,2,4.5,4.5v3
			C363.3,119.3,361.3,121.3,358.8,121.3z M82.8,110.3c-1.9,0-3.5,1.6-3.5,3.5v3c0,1.9,1.6,3.5,3.5,3.5h276c1.9,0,3.5-1.6,3.5-3.5v-3
			c0-1.9-1.6-3.5-3.5-3.5H82.8z"/>
	</g>
	<path class="st1" d="M130.1,204.3h-25.4c-5.6,0-10.1-4.5-10.1-10.1v-14.4c0-0.3,0.2-0.5,0.5-0.5s0.5,0.2,0.5,0.5v14.4
		c0,5,4.1,9.1,9.1,9.1h25.4c0.3,0,0.5,0.2,0.5,0.5S130.3,204.3,130.1,204.3z"/>
	<path class="st1" d="M337.6,204.3h-25.4c-0.3,0-0.5-0.2-0.5-0.5s0.2-0.5,0.5-0.5h25.4c5,0,9.1-4.1,9.1-9.1v-13
		c0-0.3,0.2-0.5,0.5-0.5s0.5,0.2,0.5,0.5v13C347.7,199.7,343.2,204.3,337.6,204.3z"/>
	<g>
		<g>
			<path class="st0" d="M407.4,165.7c-0.7,0.2-2.5-2.4-2.7-3.5c-0.2-1-2.3-8.4-1.5-8c0.8,0.4,0.7,1,3,4.5c2,3.7,1.8,4.4,1.9,5.1
				C408,164.3,408,165.4,407.4,165.7z"/>
			<path class="st0" d="M407.9,165.1c0.3-0.9,4.5-0.1,5.8,0.5c1.3,0.6,11,4.3,9.9,4.8c-1.1,0.5-2.7,0.4-5.8,0.1
				c-5.6-1-7.6-2.6-8.4-3.1C408.7,166.9,407.5,166,407.9,165.1z"/>
			<path class="st0" d="M404.1,170.1c-0.4,0.1-4.6-3-3.7-11.2C402.2,162.8,404.1,170.1,404.1,170.1z"/>
			<path class="st0" d="M401.5,172c0,0,0.1-2.1-1.3-3.5c-0.4,0.9-0.2,1.7-0.2,2.5c0,0.8,1.2,1.4,1.2,1.4L401.5,172z"/>
			<path class="st0" d="M401.4,172.7c0,0,2.2,1.3,4.6,0.5c-0.8-0.9-1.7-1.2-2.6-1.6c-0.9-0.4-2.2,0.5-2.2,0.5L401.4,172.7z"/>
			<path class="st0" d="M399.5,174.6c0,0,0.3-0.8-0.1-1.4c-0.3-0.5-0.4-1.2-0.4-1.4c-0.1-0.3-0.8,2.2,0,2.8
				C399.4,175,399.5,174.6,399.5,174.6z"/>
			<path class="st0" d="M399.4,175c0,0,1,0,1.4-0.2c0.8-0.3,1.1-0.4,1.4-0.5c0.3-0.1-2.3-0.6-2.8,0.2
				C399.1,174.9,399.4,175,399.4,175z"/>
			<path class="st0" d="M403.5,170.2c0.4,0.8,8.5,4.2,11.6,3.6c-0.6-0.4-2.5-1.4-3.6-2.1c-1.3-1-5.5-3.8-7.4-2.7
				C403.4,169.3,403.3,169.7,403.5,170.2z"/>
			<path class="st0" d="M432.7,146.3c-0.5,0.2-0.9,0.4-1.3,0.6c-0.4,0.2-0.9,0.4-1.3,0.7c-0.9,0.5-1.7,1-2.5,1.5
				c-1.7,1.1-3.2,2.2-4.8,3.4c-1.6,1.2-3.1,2.4-4.6,3.7c-1.5,1.3-3,2.6-4.4,3.9c-1.4,1.3-2.9,2.7-4.3,4.1c-1.4,1.4-2.8,2.8-4.1,4.2
				c-2.7,2.8-5.4,5.7-8.1,8.6c2.3-3.2,4.8-6.3,7.4-9.2c1.3-1.5,2.7-2.9,4-4.3c1.4-1.4,2.8-2.8,4.2-4.1c1.5-1.3,2.9-2.6,4.5-3.9
				c1.5-1.2,3.1-2.5,4.7-3.6c1.6-1.1,3.3-2.2,5-3.1c0.9-0.5,1.8-0.9,2.7-1.3C430.8,146.9,431.7,146.5,432.7,146.3z"/>
			<path class="st0" d="M424.8,150.6c0.2,1,7.4,1.2,10,1.6c2.6,0.4,6.9,1.2,7,0.6c0.2-0.6-5.1-2.7-6.7-3.2
				C433.4,149.2,427.9,148.1,424.8,150.6z"/>
			<path class="st0" d="M424.9,150.4c0,0-0.6-3.4,1.3-7.2c1.9-3.8,2.3-5.4,3-6.3c0.7-0.9-1.2,6.4-1.5,7.2
				C427.4,144.9,425.8,150.2,424.9,150.4z"/>
			<g>
				<path class="st0" d="M431.7,146.2c0-0.2-0.7-0.7,1.3-4.1s2.1-4.4,2.1-5.1c1.1-0.1-0.1,6.5-2.3,9.1c0.1,0.5,0.4,0.3,0.4,0.3
					s4.2-1.3,9.3,1.5c0.1,0.5-6.6,1.2-10.6-0.8C431.7,146.9,431.7,146.4,431.7,146.2z"/>
				<path class="st0" d="M432.1,147.2c-0.4-0.1-0.7-0.6-0.7-0.6s-0.4-1.1,1.6-4.5"/>
			</g>
			<path class="st0" d="M436.6,157c-0.2-0.5-13.3-6.2-16.4-3.3C418.7,155.1,437,158.3,436.6,157z"/>
			<path class="st0" d="M419.9,153.3c0,0-1.2-3.9-0.7-6.4c0.6-2.5,2.1-5.8,2.7-7c0.6-1.2,0.4,5.7-0.1,7.2c-0.5,1.6-0.3,5.2-1.1,5.9
				C419.9,153.7,419.9,153.3,419.9,153.3z"/>
			<path class="st0" d="M416,157.1c0,0,1.4-2.4-0.7-8.7c-0.5-1.4-1.9-6.3-1.9-6.3s-0.3-0.6-0.4,0.6c0,1.2-0.4,7.6-0.2,9.1
				s1.4,5.2,2.3,5.9C415.5,157.9,416,157.1,416,157.1z"/>
			<path class="st0" d="M416.2,158.7c0,0,2.1,2.5,10,3c1.7,0.1,7.7,0.6,7.7,0.6s0.8-0.1-0.5-0.7c-1.3-0.5-8.3-3.7-10-4.2
				c-1.7-0.5-6.3-0.7-7.5,0C415.6,157.8,416.2,158.7,416.2,158.7z"/>
			<path class="st0" d="M411.4,161.3c0,0-0.7-6.8-1.2-9c-0.4-2-1.5-4.6-1.5-4.6s-0.3-0.2-0.4,0.2c-0.1,0.4-1.2,10.3,2.6,13.3
				C411.1,161.3,411.4,161.4,411.4,161.3z"/>
			<path class="st0" d="M411.6,161.3c0,0,6.4,2.5,8.6,3c2,0.6,4.8,0.7,4.8,0.7s0.3-0.2,0-0.4c-0.4-0.3-8.7-5.7-13-3.6
				C411.7,161.1,411.4,161.3,411.6,161.3z"/>
		</g>
		<g>
			<path class="st0" d="M386.5,163.7c-0.4,0.9-4.9-0.1-6.2-0.9c-1.3-0.8-10.6-6.4-9.4-6.8c1.2-0.4,1.7,0.3,7.5,1.7
				c5.7,1.8,6.2,2.7,7,3.4C385.8,161.7,386.9,162.8,386.5,163.7z"/>
			<path class="st0" d="M386.4,162.6c-0.5-1.3,4.5-4.6,6.4-5.2c1.9-0.6,15.5-6.3,14.9-4.7c-0.6,1.6-2.4,3.1-5.8,5.9
				c-6.7,4.5-10.5,4.8-11.8,5.1C389.1,163.7,387,163.9,386.4,162.6z"/>
			<path class="st0" d="M387.5,171.5c-0.3,0.4-7.7,1.5-14.8-7.9C378.4,165.9,387.5,171.5,387.5,171.5z"/>
			<path class="st0" d="M387.2,180.7c0,0-0.6-1.1-1.5-1.4c-0.7-0.2-1.5-0.8-1.9-1c-0.3-0.2,1.4,3.1,2.7,2.9
				C387.4,181.2,387.2,180.7,387.2,180.7z"/>
			<path class="st0" d="M387.5,181.1c0,0,1-1,1.3-1.6c0.5-1.1,0.7-1.6,0.9-1.9c0.2-0.3-3,1.6-2.7,2.9
				C387.1,181.4,387.5,181.1,387.5,181.1z"/>
			<path class="st0" d="M387,172.2c1.2,0.5,12.8-4.1,15.5-7.7c-0.9,0.2-3.9,1.1-5.7,1.4c-2.4,0.2-9.4,1.5-10.3,4.5
				C386.1,171.4,386.3,171.9,387,172.2z"/>
			<path class="st0" d="M393.5,118.8c-0.3,0.6-0.6,1.3-0.8,1.9c-0.2,0.7-0.5,1.3-0.7,2c-0.4,1.3-0.8,2.7-1.1,4
				c-0.7,2.7-1.2,5.5-1.6,8.2c-0.4,2.8-0.8,5.5-1.1,8.3c-0.3,2.8-0.5,5.6-0.7,8.4c-0.2,2.8-0.3,5.6-0.4,8.4
				c-0.1,2.8-0.1,5.6-0.1,8.4c0,5.6,0.1,11.2,0.1,16.8c-0.7-5.6-1.2-11.2-1.4-16.8c-0.1-2.8-0.1-5.6-0.1-8.4c0-2.8,0.1-5.6,0.3-8.5
				c0.2-2.8,0.4-5.6,0.8-8.4c0.4-2.8,0.8-5.6,1.3-8.4c0.6-2.8,1.2-5.5,2.1-8.2c0.4-1.3,0.9-2.7,1.5-4
				C392.2,121.3,392.8,120,393.5,118.8z"/>
			<path class="st0" d="M389.6,131.1c1.2,0.9,8.8-6.1,11.8-8.2c3.1-2.1,8.3-5.5,7.9-6.3c-0.4-0.8-8,2.3-10.1,3.3
				C397.2,121.1,390.4,125.4,389.6,131.1z"/>
			<path class="st0" d="M389.6,130.7c0,0-4-3-5.7-8.7c-1.8-5.8-2.9-7.9-3.1-9.5c-0.2-1.6,5.1,7.8,5.5,9
				C386.7,122.6,390.2,129.6,389.6,130.7z"/>
			<g>
				<path class="st0" d="M392.4,119.7c-0.2-0.2-1.4-0.1-2.7-5.4c-1.3-5.4-2.2-6.6-2.8-7.4c1-1.2,6.4,6.8,6.6,11.7
					c0.5,0.4,0.8-0.1,0.8-0.1s3.1-5.5,11.1-7.7c0.6,0.5-5.7,7.8-11.7,9.6C393.2,120.4,392.7,119.9,392.4,119.7z"/>
				<path class="st0" d="M393.9,120.4c-0.6,0.3-1.3,0.1-1.3,0.1s-1.5-0.8-2.8-6.2"/>
			</g>
			<path class="st0" d="M408.2,126c-0.7-0.2-19.8,6.7-20.1,12.8C387.8,141.6,409.8,126.9,408.2,126z"/>
			<path class="st0" d="M387.2,138.6c0,0-5.2-2.8-7.1-6c-1.9-3.1-3.6-8-4.1-9.8c-0.5-1.8,6,5.4,7.1,7.5c1,2.1,4.8,5.6,4.7,7.1
				C387.7,139,387.2,138.6,387.2,138.6z"/>
			<path class="st0" d="M387,146.4c0,0-1-3.8-9.4-8.3c-1.9-1-8.1-4.6-8.1-4.6s-0.9-0.3,0.2,1c1.1,1.2,7.1,8.2,8.7,9.5
				c1.6,1.3,6.5,3.9,8.2,3.8C387.3,147.7,387,146.4,387,146.4z"/>
			<path class="st0" d="M388.8,147.8c0,0,4.7,0.5,13.3-6.8c1.9-1.6,8.6-7,8.6-7s0.7-0.9-1.2-0.2c-1.9,0.7-12.2,4.4-14.4,5.5
				c-2.2,1.2-7.2,5.5-7.8,7.4C387.3,147.6,388.8,147.8,388.8,147.8z"/>
			<path class="st0" d="M386.3,155.3c0,0-7.4-6.4-10.2-8.1c-2.4-1.7-6-3.3-6-3.3s-0.5,0.1-0.2,0.6c0.4,0.5,9,11.8,15.8,11.1
				C386.1,155.5,386.5,155.4,386.3,155.3z"/>
			<path class="st0" d="M386.6,155.1c0,0,9-3.8,11.8-5.4c2.6-1.3,5.6-3.9,5.6-3.9s0.2-0.5-0.5-0.4c-0.6,0.1-14.6,2.7-17,9.1
				C386.5,154.8,386.4,155.2,386.6,155.1z"/>
		</g>
		<g>
			<path class="st0" d="M369.3,168.8c0.3-0.8,0.2-1.7,3.5-5.7c3.5-3.7,3.6-4.4,4.6-4.7c1-0.3-3.1,8.1-3.6,9.3s-3.3,4-4.1,3.6
				C368.9,170.8,369.2,169.5,369.3,168.8z"/>
			<path class="st0" d="M367,172.9c-1.1,0.4-4,1.9-10.9,1.9c-3.8-0.3-5.8-0.6-7-1.5c-1.2-0.9,11.3-3.1,13-3.6
				c1.7-0.5,6.8-0.4,7.1,0.7C369.4,171.6,367.7,172.5,367,172.9z"/>
			<path class="st0" d="M375.6,180.8c0,0,1.5-0.5,1.7-1.4c0.2-0.9,0.5-1.8,0.3-3.1c-2.1,1.5-2.4,4-2.4,4L375.6,180.8z"/>
			<path class="st0" d="M375.6,180.5c0,0-1.4-1.4-2.5-1.1c-1.1,0.3-2.3,0.4-3.5,1.3c2.7,1.5,5.7,0.4,5.7,0.4L375.6,180.5z"/>
			<path class="st0" d="M377.8,184c1.1-0.5,0.8-3.7,0.6-3.4c-0.1,0.3-0.4,1.1-0.9,1.6c-0.6,0.6-0.4,1.7-0.4,1.7
				S377.2,184.4,377.8,184z"/>
			<path class="st0" d="M377.2,183.7c-0.4-1.1-3.6-1-3.3-0.8c0.3,0.2,0.7,0.4,1.6,1c0.5,0.3,1.7,0.5,1.7,0.5
				S377.5,184.4,377.2,183.7z"/>
			<path class="st0" d="M346.6,144c1,0.7,2,1.4,2.9,2.2c1.9,1.5,3.7,3.2,5.4,5c1.7,1.7,3.3,3.6,4.9,5.4c1.6,1.9,3.1,3.8,4.5,5.7
				c1.4,2,2.8,4,4.2,6c1.3,2,2.6,4.1,3.9,6.2c2.5,4.2,4.8,8.4,6.9,12.8c-2.6-4.1-5.2-8.2-7.8-12.2c-1.3-2-2.7-4-4-6
				c-1.4-2-2.8-4-4.2-5.9c-1.4-1.9-2.9-3.9-4.4-5.7c-1.5-1.9-3.1-3.7-4.7-5.5c-1.6-1.8-3.3-3.5-5-5.2c-0.9-0.8-1.8-1.6-2.7-2.4
				c-0.5-0.4-0.9-0.8-1.4-1.1c-0.5-0.4-1-0.7-1.5-1C344.6,142.6,345.6,143.3,346.6,144z"/>
			<path class="st0" d="M339.9,145.7c-2,0.2-9,1.6-8.9,2.3c0.1,0.8,5.4,0.8,8.6,0.8c3.2,0.1,12,1.5,12.4,0.3
				C348.8,145.4,341.9,145.4,339.9,145.7z"/>
			<path class="st0" d="M350,140.6c-0.3-1-0.8-10.3-0.2-9.1c0.6,1.2,0.8,3.3,2.2,8.3c1.4,5-0.1,9-0.1,9
				C350.9,148.4,350.2,141.7,350,140.6z"/>
			<g>
				<path class="st0" d="M344.1,143.4c-5.2,1.5-13.2-0.9-13-1.5c6.8-2.2,11.6,0.3,11.6,0.3s0.4,0.2,0.6-0.3
					c-2.1-3.6-2-11.9-0.7-11.5c-0.1,0.9-0.1,2.1,1.4,6.6c1.6,4.5,0.7,5,0.6,5.2C344.6,142.5,344.5,143.1,344.1,143.4z"/>
				<path class="st0" d="M344.1,137c1.6,4.5,0.9,5.8,0.9,5.8s-0.5,0.5-1,0.6"/>
			</g>
			<path class="st0" d="M356.8,154c-3.1-4.2-20.2-0.3-20.6,0.2C335.5,155.6,358.4,155.9,356.8,154z"/>
			<path class="st0" d="M356.4,152.9c-0.8-1.1,0.3-5.3,0-7.4s1.1-10.3,1.6-8.8c0.5,1.6,1.5,5.9,1.6,9.1c0.1,3.2-2.3,7.6-2.3,7.6
				S357.2,154,356.4,152.9z"/>
			<path class="st0" d="M362.1,159.9c1.2-0.7,3.6-4.9,4.1-6.6s1.6-9.6,1.8-11c0.2-1.4-0.3-0.8-0.3-0.8s-2.8,5.6-3.7,7.1
				c-4,7.2-2.9,10.4-2.9,10.4S361.6,160.1,362.1,159.9z"/>
			<path class="st0" d="M361.1,159.4c-1.3-1.1-7-1.8-9.1-1.7c-2.1,0.2-11.3,2.4-13,2.7c-1.7,0.4-0.8,0.7-0.8,0.7s7.4,0.7,9.5,1
				c9.7,1.3,12.8-1.3,12.8-1.3S361.5,160,361.1,159.4z"/>
			<path class="st0" d="M366.4,165c5.3-2.7,6.2-14.9,6.2-15.4c0-0.5-0.4-0.3-0.4-0.3s-1.9,2.8-2.8,5.2c-1.2,2.5-3.5,10.6-3.5,10.6
				C365.8,165.3,366.1,165.2,366.4,165z"/>
			<path class="st0" d="M365.2,164.6c-4.8-3.5-16.1,1.1-16.6,1.4c-0.5,0.2-0.1,0.5-0.1,0.5s3.4,0.5,5.9,0.2
				c2.8-0.1,11.1-1.6,11.1-1.6C365.8,165,365.5,164.8,365.2,164.6z"/>
		</g>
		<path class="st0" d="M386.4,210.4L386.4,210.4c-14,0.1-25.4-11.1-25.5-25.1l-0.1-9.9l50.6-0.4l0.1,9.9
			C411.6,198.9,400.3,210.3,386.4,210.4z"/>
	</g>
	<g>
		<g>
			<path class="st0" d="M34.5,163.8c0.1-0.7-0.1-1.4,1.9-5.1c2.3-3.5,2.2-4.1,3-4.5c0.8-0.4-1.2,7-1.5,8c-0.2,1-2,3.7-2.7,3.5
				C34.6,165.4,34.6,164.3,34.5,163.8z"/>
			<path class="st0" d="M33.4,167.4c-0.8,0.5-2.9,2.1-8.4,3.1c-3.1,0.3-4.7,0.4-5.8-0.1c-1.1-0.5,8.6-4.2,9.9-4.8
				c1.3-0.6,5.4-1.4,5.8-0.5C35.1,166,33.9,166.9,33.4,167.4z"/>
			<path class="st0" d="M42.2,158.9c0.9,8.2-3.3,11.3-3.7,11.2C38.5,170.1,40.4,162.8,42.2,158.9z"/>
			<path class="st0" d="M41.4,172.4c0,0,1.2-0.6,1.2-1.4c0-0.8,0.1-1.5-0.2-2.5c-1.4,1.5-1.3,3.5-1.3,3.5L41.4,172.4z"/>
			<path class="st0" d="M41.4,172.2c0,0-1.3-0.9-2.2-0.5c-0.9,0.4-1.8,0.7-2.6,1.6c2.4,0.8,4.6-0.5,4.6-0.5L41.4,172.2z"/>
			<path class="st0" d="M43.7,174.6c0.8-0.6,0.1-3.1,0-2.8c-0.1,0.3-0.2,1-0.4,1.4c-0.4,0.6-0.1,1.4-0.1,1.4S43.2,175,43.7,174.6z"
				/>
			<path class="st0" d="M43.1,174.5c-0.5-0.8-3.1-0.3-2.8-0.2c0.3,0.1,0.6,0.2,1.4,0.5c0.4,0.2,1.4,0.2,1.4,0.2
				S43.5,174.9,43.1,174.5z"/>
			<path class="st0" d="M38.5,169.1c-1.9-1.1-6.1,1.6-7.4,2.7c-1.1,0.7-3,1.7-3.6,2.1c3.1,0.6,11.2-2.8,11.6-3.6
				C39.3,169.7,39.2,169.3,38.5,169.1z"/>
			<path class="st0" d="M12.7,147.3c0.9,0.4,1.8,0.8,2.7,1.3c1.7,1,3.4,2,5,3.1c1.6,1.1,3.2,2.3,4.7,3.6c1.5,1.3,3,2.6,4.5,3.9
				c1.4,1.4,2.9,2.7,4.2,4.1c1.4,1.4,2.7,2.9,4,4.3c2.6,3,5.1,6,7.4,9.2c-2.7-2.9-5.4-5.8-8.1-8.6c-1.4-1.4-2.7-2.8-4.1-4.2
				c-1.4-1.4-2.8-2.7-4.3-4.1c-1.4-1.3-2.9-2.6-4.4-3.9c-1.5-1.3-3-2.5-4.6-3.7c-1.6-1.2-3.1-2.3-4.8-3.4c-0.8-0.5-1.7-1-2.5-1.5
				c-0.4-0.2-0.9-0.5-1.3-0.7c-0.4-0.2-0.9-0.4-1.3-0.6C10.8,146.5,11.8,146.9,12.7,147.3z"/>
			<path class="st0" d="M7.5,149.7c-1.6,0.5-6.9,2.6-6.7,3.2c0.2,0.6,4.5-0.2,7-0.6c2.6-0.4,9.8-0.6,10-1.6
				C14.7,148.1,9.1,149.2,7.5,149.7z"/>
			<path class="st0" d="M14.8,144.1c-0.4-0.8-2.2-8.1-1.5-7.2c0.7,0.9,1.1,2.5,3,6.3c1.9,3.8,1.3,7.2,1.3,7.2
				C16.8,150.2,15.2,144.9,14.8,144.1z"/>
			<g>
				<path class="st0" d="M10.6,147.2c-4,2-10.7,1.3-10.6,0.8c5.1-2.8,9.3-1.5,9.3-1.5s0.4,0.1,0.4-0.3c-2.2-2.5-3.4-9.2-2.3-9.1
					c0.1,0.7,0.2,1.7,2.1,5.1s1.3,3.9,1.3,4.1C10.8,146.4,10.9,146.9,10.6,147.2z"/>
				<path class="st0" d="M9.6,142.1c1.9,3.4,1.6,4.5,1.6,4.5s-0.3,0.5-0.7,0.6"/>
			</g>
			<path class="st0" d="M22.4,153.8c-3.2-2.9-16.2,2.8-16.4,3.3C5.5,158.3,23.9,155.1,22.4,153.8z"/>
			<path class="st0" d="M21.8,153c-0.8-0.7-0.6-4.3-1.1-5.9c-0.5-1.6-0.7-8.4-0.1-7.2c0.6,1.2,2.1,4.5,2.7,7
				c0.6,2.5-0.7,6.4-0.7,6.4S22.6,153.7,21.8,153z"/>
			<path class="st0" d="M27.5,157.7c0.9-0.8,2.1-4.5,2.3-5.9c0.2-1.4-0.2-7.9-0.2-9.1c0-1.2-0.4-0.6-0.4-0.6s-1.4,4.9-1.9,6.3
				c-2.1,6.3-0.7,8.7-0.7,8.7S27.1,157.9,27.5,157.7z"/>
			<path class="st0" d="M26.6,157.5c-1.2-0.6-5.8-0.4-7.5,0c-1.7,0.5-8.7,3.6-10,4.2c-1.3,0.5-0.5,0.7-0.5,0.7s6-0.5,7.7-0.6
				c7.9-0.4,10-3,10-3S27,157.8,26.6,157.5z"/>
			<path class="st0" d="M31.7,161.1c3.8-2.9,2.7-12.8,2.6-13.3c-0.1-0.4-0.4-0.2-0.4-0.2s-1.1,2.6-1.5,4.6c-0.6,2.2-1.2,9-1.2,9
				C31.2,161.4,31.5,161.3,31.7,161.1z"/>
			<path class="st0" d="M30.7,161c-4.3-2.1-12.7,3.3-13,3.6c-0.4,0.3,0,0.4,0,0.4s2.8-0.1,4.8-0.7c2.2-0.5,8.6-3,8.6-3
				C31.2,161.3,30.9,161.1,30.7,161z"/>
		</g>
		<g>
			<path class="st0" d="M57.2,161.1c0.8-0.6,1.3-1.6,7-3.4c5.8-1.4,6.3-2.1,7.5-1.7c1.2,0.4-8.1,6-9.4,6.8c-1.3,0.8-5.8,1.8-6.2,0.9
				C55.6,162.8,56.8,161.7,57.2,161.1z"/>
			<path class="st0" d="M52.5,163.6c-1.3-0.3-5.1-0.6-11.8-5.1c-3.5-2.8-5.2-4.2-5.8-5.9c-0.6-1.6,13,4.1,14.9,4.7
				c1.9,0.6,6.9,3.9,6.4,5.2C55.6,163.9,53.4,163.7,52.5,163.6z"/>
			<path class="st0" d="M69.9,163.6c-7.2,9.4-14.5,8.3-14.8,7.9C55.1,171.5,64.2,165.9,69.9,163.6z"/>
			<path class="st0" d="M56,181.2c1.4,0.2,3.1-3.1,2.7-2.9c-0.3,0.2-1.1,0.8-1.9,1c-0.9,0.2-1.5,1.4-1.5,1.4S55.1,181.2,56,181.2z"
				/>
			<path class="st0" d="M55.6,180.6c0.3-1.3-2.9-3.3-2.7-2.9c0.2,0.3,0.4,0.8,0.9,1.9c0.3,0.6,1.3,1.6,1.3,1.6
				S55.5,181.4,55.6,180.6z"/>
			<path class="st0" d="M56,170.4c-0.9-3.1-7.9-4.3-10.3-4.5c-1.8-0.3-4.8-1.2-5.7-1.4c2.6,3.6,14.3,8.2,15.5,7.7
				C56.2,171.9,56.5,171.4,56,170.4z"/>
			<path class="st0" d="M50.9,122.6c0.5,1.3,1,2.6,1.5,4c0.9,2.7,1.5,5.4,2.1,8.2c0.6,2.8,1,5.6,1.3,8.4c0.3,2.8,0.6,5.6,0.8,8.4
				c0.2,2.8,0.3,5.6,0.3,8.5c0,2.8,0,5.6-0.1,8.4c-0.2,5.6-0.7,11.2-1.4,16.8c0.1-5.6,0.1-11.2,0.1-16.8c0-2.8,0-5.6-0.1-8.4
				c-0.1-2.8-0.2-5.6-0.4-8.4c-0.2-2.8-0.4-5.6-0.7-8.4c-0.3-2.8-0.6-5.5-1.1-8.3c-0.4-2.8-0.9-5.5-1.6-8.2c-0.3-1.4-0.7-2.7-1.1-4
				c-0.2-0.7-0.4-1.3-0.7-2c-0.2-0.7-0.5-1.3-0.8-1.9C49.8,120,50.4,121.3,50.9,122.6z"/>
			<path class="st0" d="M43.3,120c-2.1-1.1-9.7-4.1-10.1-3.3c-0.4,0.8,4.8,4.2,7.9,6.3c3.1,2.1,10.7,9.1,11.8,8.2
				C52.2,125.4,45.4,121.1,43.3,120z"/>
			<path class="st0" d="M56.3,121.4c0.4-1.2,5.7-10.6,5.5-9c-0.2,1.6-1.3,3.7-3.1,9.5c-1.8,5.8-5.7,8.7-5.7,8.7
				C52.3,129.6,55.9,122.6,56.3,121.4z"/>
			<g>
				<path class="st0" d="M48.9,120.4c-6-1.9-12.2-9.2-11.7-9.6c8,2.2,11.1,7.7,11.1,7.7s0.3,0.5,0.8,0.1c0.2-4.8,5.6-12.9,6.6-11.7
					c-0.6,0.8-1.5,2-2.8,7.4s-2.5,5.3-2.7,5.4C49.9,119.9,49.4,120.4,48.9,120.4z"/>
				<path class="st0" d="M52.8,114.2c-1.3,5.4-2.8,6.2-2.8,6.2s-0.8,0.2-1.3-0.1"/>
			</g>
			<path class="st0" d="M54.5,138.8c-0.4-6.1-19.4-13.1-20.1-12.8C32.8,126.9,54.8,141.6,54.5,138.8z"/>
			<path class="st0" d="M54.8,137.5c-0.1-1.5,3.7-5,4.7-7.1s7.6-9.4,7.1-7.5c-0.5,1.8-2.2,6.7-4.1,9.8c-1.9,3.1-7.1,6-7.1,6
				S54.9,139,54.8,137.5z"/>
			<path class="st0" d="M56,147.9c1.7,0.1,6.6-2.5,8.2-3.8c1.6-1.3,7.6-8.3,8.7-9.5c1.1-1.2,0.2-1,0.2-1s-6.3,3.6-8.1,4.6
				c-8.4,4.5-9.4,8.3-9.4,8.3S55.3,147.7,56,147.9z"/>
			<path class="st0" d="M55.2,146.8c-0.6-1.9-5.6-6.2-7.8-7.4c-2.2-1.2-12.5-4.8-14.4-5.5c-1.9-0.7-1.2,0.2-1.2,0.2s6.7,5.3,8.6,7
				c8.6,7.3,13.3,6.8,13.3,6.8S55.3,147.6,55.2,146.8z"/>
			<path class="st0" d="M56.8,155.5c6.8,0.7,15.4-10.6,15.8-11.1c0.4-0.5-0.2-0.6-0.2-0.6s-3.7,1.5-6,3.3
				c-2.7,1.7-10.2,8.1-10.2,8.1C56.1,155.4,56.5,155.5,56.8,155.5z"/>
			<path class="st0" d="M56,154.4c-2.4-6.4-16.4-9.1-17-9.1c-0.6-0.1-0.5,0.4-0.5,0.4s3,2.6,5.6,3.9c2.8,1.7,11.8,5.4,11.8,5.4
				C56.2,155.2,56.1,154.8,56,154.4z"/>
		</g>
		<g>
			<path class="st0" d="M72.9,171.3c-0.8,0.5-3.5-2.4-4.1-3.6s-4.7-9.6-3.6-9.3c1,0.3,1.1,1,4.6,4.7c3.3,4,3.2,4.9,3.5,5.7
				C73.4,169.5,73.7,170.8,72.9,171.3z"/>
			<path class="st0" d="M73.4,170.4c0.2-1.2,5.4-1.2,7.1-0.7c1.7,0.5,14.2,2.7,13,3.6c-1.2,0.9-3.2,1.1-7,1.5
				c-7,0.1-9.8-1.4-10.9-1.9C74.8,172.5,73.2,171.6,73.4,170.4z"/>
			<path class="st0" d="M67.3,180.3c0,0-0.3-2.5-2.4-4c-0.2,1.2,0.1,2.1,0.3,3.1c0.2,0.9,1.7,1.4,1.7,1.4L67.3,180.3z"/>
			<path class="st0" d="M67.3,181.2c0,0,2.9,1,5.7-0.4c-1.2-0.9-2.4-1-3.5-1.3c-1.1-0.3-2.5,1.1-2.5,1.1L67.3,181.2z"/>
			<path class="st0" d="M65.4,183.9c0,0,0.1-1.1-0.4-1.7c-0.4-0.5-0.7-1.3-0.9-1.6c-0.1-0.3-0.4,2.9,0.6,3.4
				C65.4,184.4,65.4,183.9,65.4,183.9z"/>
			<path class="st0" d="M65.5,184.4c0,0,1.2-0.2,1.7-0.5c0.9-0.6,1.3-0.8,1.6-1c0.3-0.2-2.9-0.2-3.3,0.8
				C65,184.4,65.5,184.4,65.5,184.4z"/>
			<path class="st0" d="M99.1,142.1c-0.5,0.3-1,0.7-1.5,1c-0.5,0.4-1,0.7-1.4,1.1c-0.9,0.8-1.8,1.6-2.7,2.4c-1.8,1.7-3.4,3.4-5,5.2
				c-1.6,1.8-3.2,3.6-4.7,5.5c-1.5,1.9-3,3.8-4.4,5.7c-1.4,1.9-2.8,3.9-4.2,5.9c-1.4,2-2.7,4-4,6c-2.7,4-5.2,8.1-7.8,12.2
				c2.1-4.4,4.4-8.7,6.9-12.8c1.2-2.1,2.5-4.1,3.9-6.2c1.3-2,2.7-4,4.2-6c1.5-1.9,2.9-3.9,4.5-5.7c1.6-1.9,3.2-3.7,4.9-5.4
				c1.7-1.7,3.5-3.4,5.4-5c0.9-0.8,1.9-1.5,2.9-2.2C96.9,143.3,98,142.6,99.1,142.1z"/>
			<path class="st0" d="M90.5,149.2c0.4,1.2,9.2-0.3,12.4-0.3s8.6-0.1,8.6-0.8c0.1-0.8-6.8-2.1-8.9-2.3
				C100.6,145.4,93.7,145.4,90.5,149.2z"/>
			<path class="st0" d="M90.7,148.9c0,0-1.5-4-0.1-9c1.4-5,1.6-7.1,2.2-8.3c0.6-1.2,0,8-0.2,9.1C92.3,141.7,91.6,148.4,90.7,148.9z"
				/>
			<g>
				<path class="st0" d="M97.9,142.2c-0.1-0.2-1-0.7,0.6-5.2c1.6-4.5,1.5-5.8,1.4-6.6c1.3-0.4,1.4,7.9-0.7,11.5
					c0.2,0.5,0.6,0.3,0.6,0.3s4.8-2.5,11.6-0.3c0.2,0.6-7.7,3-13,1.5C98,143.1,98,142.5,97.9,142.2z"/>
				<path class="st0" d="M98.6,143.4c-0.5-0.1-1-0.6-1-0.6s-0.7-1.3,0.9-5.8"/>
			</g>
			<path class="st0" d="M106.3,154.2c-0.4-0.5-17.4-4.4-20.6-0.2C84.2,155.9,107.1,155.6,106.3,154.2z"/>
			<path class="st0" d="M85.3,153.5c0,0-2.4-4.5-2.3-7.6c0.1-3.2,1.2-7.5,1.6-9.1c0.5-1.6,1.8,6.7,1.6,8.8c-0.3,2,0.8,6.3,0,7.4
				C85.4,154,85.3,153.5,85.3,153.5z"/>
			<path class="st0" d="M81.4,159c0,0,1.1-3.2-2.9-10.4c-0.9-1.6-3.7-7.1-3.7-7.1s-0.5-0.6-0.3,0.8c0.2,1.4,1.3,9.3,1.8,11
				c0.5,1.7,2.9,5.9,4.1,6.6C81,160.1,81.4,159,81.4,159z"/>
			<path class="st0" d="M82.1,160.9c0,0,3.1,2.6,12.8,1.3c2.1-0.3,9.5-1,9.5-1s0.9-0.3-0.8-0.7c-1.7-0.4-10.9-2.6-13-2.7
				c-2.1-0.2-7.8,0.6-9.1,1.7C81.1,160,82.1,160.9,82.1,160.9z"/>
			<path class="st0" d="M76.8,165.1c0,0-2.3-8.1-3.5-10.6c-0.9-2.4-2.8-5.2-2.8-5.2S70,149,70,149.6c0,0.5,0.9,12.8,6.2,15.4
				C76.5,165.2,76.8,165.3,76.8,165.1z"/>
			<path class="st0" d="M77,165.1c0,0,8.3,1.5,11.1,1.6c2.5,0.3,5.9-0.2,5.9-0.2s0.4-0.3-0.1-0.5c-0.5-0.2-11.8-4.9-16.6-1.4
				C77.1,164.8,76.8,165,77,165.1z"/>
		</g>
		<path class="st0" d="M56.2,210.4L56.2,210.4c14,0.1,25.4-11.1,25.5-25.1l0.1-9.9l-50.6-0.4l-0.1,9.9
			C31,198.9,42.3,210.3,56.2,210.4z"/>
	</g>
</g>
<g id="TITLE">
	<path class="st3" d="M268.8,143.3v34.3h-96.7v-34.3H268.8 M269.8,142.3h-98.7v36.3h98.7V142.3L269.8,142.3z"/>
	<g id="Logo">
		<g>
			<path class="st3" d="M202.6,156.9c0.7,0.4,1,1.1,1,1.9v0.1h-2.5v0c0-0.2-0.1-0.4-0.3-0.6s-0.4-0.2-0.8-0.2
				c-0.4,0-0.6,0.1-0.8,0.2c-0.2,0.1-0.3,0.2-0.3,0.4c0,0.2,0.1,0.4,0.4,0.5c0.3,0.1,0.7,0.2,1.2,0.3c0.7,0.1,1.2,0.3,1.6,0.4
				c0.4,0.1,0.8,0.4,1.1,0.7c0.3,0.3,0.5,0.8,0.5,1.4c0,1-0.3,1.7-1,2.2c-0.7,0.5-1.5,0.7-2.6,0.7c-1.3,0-2.3-0.2-3-0.6
				s-1.1-1.2-1.1-2.3h2.5c0,0.4,0.1,0.7,0.3,0.8s0.6,0.2,1,0.2c0.3,0,0.6,0,0.8-0.1c0.2-0.1,0.3-0.2,0.3-0.4c0-0.2-0.1-0.3-0.4-0.5
				s-0.6-0.2-1.2-0.3c-0.7-0.1-1.2-0.3-1.7-0.5c-0.4-0.2-0.8-0.4-1.2-0.8s-0.5-0.8-0.5-1.5c0-0.9,0.4-1.6,1.1-2
				c0.7-0.4,1.6-0.6,2.7-0.6C201,156.2,201.9,156.5,202.6,156.9z"/>
			<path class="st3" d="M205.3,164.6v-8.3h2.7v8.3H205.3z"/>
			<path class="st3" d="M215.8,156.7c0.4,0.2,0.7,0.6,0.9,1c0.2,0.4,0.3,0.9,0.3,1.4v0.2c0,0.5-0.1,1-0.3,1.4
				c-0.2,0.4-0.5,0.7-0.9,1c-0.4,0.2-0.9,0.4-1.4,0.4h-2v2.7h-2.7v-8.3h4.6C215,156.4,215.4,156.5,215.8,156.7z M212.5,160h1.1
				c0.3,0,0.5-0.1,0.6-0.2c0.1-0.1,0.2-0.3,0.2-0.6v-0.1c0-0.3-0.1-0.5-0.2-0.6s-0.3-0.2-0.6-0.2h-1.1V160z"/>
			<path class="st3" d="M225.2,156.6c0.3,0.2,0.6,0.4,0.8,0.7c0.2,0.3,0.3,0.7,0.3,1c0,1-0.5,1.7-1.4,1.9v0c1,0.2,1.6,0.9,1.6,2.1
				c0,0.4-0.1,0.8-0.3,1.1s-0.5,0.6-0.9,0.8c-0.4,0.2-0.8,0.3-1.2,0.3h-5.6v-8.3h5.5C224.4,156.4,224.8,156.5,225.2,156.6z
				 M221.2,159.6h1.8c0.2,0,0.3-0.1,0.4-0.2c0.1-0.1,0.2-0.3,0.2-0.5v-0.1c0-0.2-0.1-0.3-0.2-0.5s-0.3-0.2-0.4-0.2h-1.8V159.6z
				 M221.2,162.7h2c0.2,0,0.3-0.1,0.4-0.2c0.1-0.1,0.2-0.3,0.2-0.5v-0.1c0-0.2-0.1-0.3-0.2-0.5c-0.1-0.1-0.3-0.2-0.4-0.2h-2V162.7z"
				/>
			<path class="st3" d="M233.2,164.6l-0.3-1.2h-2.9l-0.3,1.2h-2.7l3-8.3h3.1l3,8.3H233.2z M230.5,161.6h1.8l-0.9-2.9h0L230.5,161.6z
				"/>
			<path class="st3" d="M244.4,160.3c-0.3,0.4-0.7,0.7-1.2,0.9l1.8,3.5h-3l-1.5-3h-1v3H237v-8.3h5.1c0.6,0,1.1,0.1,1.5,0.3
				s0.7,0.5,0.9,0.9s0.3,0.8,0.3,1.3C244.8,159.4,244.7,159.9,244.4,160.3z M241.9,158.5c-0.1-0.1-0.3-0.2-0.5-0.2h-1.7v1.5h1.7
				c0.2,0,0.4-0.1,0.5-0.2c0.1-0.1,0.2-0.3,0.2-0.5C242.1,158.8,242,158.6,241.9,158.5z"/>
		</g>
	</g>
</g>
<g id="Wine">
	<g>
		<path class="st0" d="M139.1,107.4c-0.1-0.2-0.2-0.5-0.2-0.7c-0.1-0.5,0-1.5,0-1.5c0-1.1,0.5-27.7,0.4-28.4
			c-0.1-0.8-0.6-2.2-1.5-3.6c-0.4-0.6-0.7-1.1-1.1-1.6c-0.4-0.6-0.8-1.1-1.1-1.7c-0.9-1.6-0.7-9.4-0.7-9.5l0,0
			c0.1-0.1,0.1-0.2,0.1-0.2c0-0.2-0.1-0.3-0.1-0.4c0,0,0-0.1,0-0.1c0-0.1,0-1.5,0-2.5l-0.1,0l0,0c-0.8-0.2-1.3-0.2-1.8-0.2
			c-0.5,0-1,0.1-1.8,0.2l0,0h-0.1v0c0,1,0,2.4,0,2.5c0,0,0,0,0,0.1c0,0.1-0.1,0.3-0.1,0.4c0,0.1,0,0.2,0.1,0.3l0,0
			c0,0.1,0.2,7.9-0.7,9.5c-0.3,0.6-0.7,1.1-1.1,1.7c-0.3,0.4-0.7,1-1.1,1.6c-0.9,1.4-1.4,2.8-1.5,3.6c-0.1,0.7,0.4,27.3,0.4,28.4
			c0,0,0,1,0,1.5c0,0.2-0.1,0.4-0.2,0.7c-0.1,0.4-0.3,0.8-0.2,1.1c0.1,1.1,0.8,1.8,2.1,2.2c0.5,0.1,2.5,0.2,4.2,0.2
			c1.6,0,3.7,0,4.2-0.2c1.3-0.3,2-1,2.1-2.2C139.4,108.1,139.2,107.7,139.1,107.4z"/>
		<path class="st1" d="M133,111.3c-0.9,0-3.7,0-4.3-0.2c-1.9-0.5-2.4-1.7-2.5-2.6c0-0.4,0.1-0.9,0.3-1.3c0.1-0.2,0.2-0.4,0.2-0.6
			c0-0.3,0-0.9,0-1.4c-0.1-4.6-0.5-27.8-0.4-28.5c0.1-0.8,0.6-2.4,1.6-3.8c0.4-0.6,0.8-1.1,1.1-1.6c0.4-0.6,0.8-1.1,1.1-1.6
			c0.6-1.2,0.7-6.6,0.7-9.2c-0.1-0.1-0.1-0.3-0.1-0.4c0-0.2,0.1-0.5,0.1-0.6c0,0,0-1.5,0-2.4l0-0.4l0,0l0-0.1l0.5,0
			c0.9-0.2,1.4-0.2,1.9-0.2c0.5,0,1,0.1,1.9,0.2l0.5,0.1l-0.1,0.3l0,0.2c0,0.9,0,2.1,0,2.4c0.1,0.2,0.1,0.4,0.1,0.6
			c0,0.1,0,0.3-0.1,0.4c-0.1,3.8,0.1,8.2,0.7,9.2c0.3,0.5,0.6,1,1.1,1.6l0.1,0.1c0.3,0.4,0.7,0.9,1,1.5c0.9,1.5,1.5,3,1.5,3.8
			c0.1,0.8-0.4,25.7-0.4,28.5c0,0.5,0,1.1,0,1.4c0,0.1,0.1,0.3,0.2,0.5l-0.5,0.2l0.5-0.2c0.1,0.4,0.3,0.9,0.3,1.3
			c-0.1,0.9-0.6,2.1-2.5,2.6C136.7,111.3,133.9,111.3,133,111.3z M131.6,57.6c0,0.8,0,2,0,2.1l0,0.2c0,0.1-0.1,0.2-0.1,0.3l0.1,0.1
			l0,0.1c0,0.1,0.2,8-0.8,9.8c-0.3,0.6-0.7,1.1-1.1,1.7c-0.3,0.4-0.7,0.9-1.1,1.5c-0.8,1.3-1.3,2.7-1.4,3.4
			c-0.1,0.7,0.3,18.2,0.5,28.4c0,0.3,0,1.1,0,1.5c0,0.2-0.1,0.5-0.2,0.8c-0.1,0.3-0.2,0.7-0.2,0.9c0.1,0.9,0.7,1.5,1.7,1.7
			c0.3,0.1,2,0.1,4.1,0.1s3.7-0.1,4.1-0.1c1.1-0.3,1.6-0.8,1.7-1.7c0-0.2-0.1-0.6-0.2-0.9v0l0.5-0.2l-0.5,0.1
			c-0.1-0.3-0.2-0.5-0.2-0.8c-0.1-0.4,0-1.2,0-1.5c0.1-7.6,0.5-27.6,0.4-28.4c-0.1-0.7-0.6-2.1-1.4-3.4c-0.4-0.6-0.7-1-1-1.4
			l-0.1-0.1c-0.4-0.6-0.8-1.2-1.1-1.7c-0.9-1.6-0.8-8.4-0.8-9.8l0-0.2l0.1-0.2c0,0-0.1-0.1-0.1-0.2l-0.1-0.2c0-0.1,0-1.3,0-2l-0.1,0
			l0-0.1c-0.5-0.1-0.9-0.1-1.3-0.1c-0.3,0-0.7,0-1.2,0.1l0,0.1L131.6,57.6z"/>
	</g>
	<g>
		<path class="st3" d="M92.4,92.3c0,0,3.3,1.7,6.5,0.5c3.2-1.1,6-1.1,6-1.1l-2.1,4.6l-4.2,2.5l-4.6-2.3L92.4,92.3z"/>
		<path class="st1" d="M98.5,99.1c-4.2,0-7.4-5.2-7.4-12v-0.5h14.8V87C105.9,93.9,102.8,99.1,98.5,99.1z M92.2,87.5
			c0.1,5.9,2.9,10.5,6.4,10.5c3.5,0,6.2-4.6,6.4-10.5H92.2z"/>
		<rect x="98" y="98.6" class="st1" width="1" height="9.3"/>
		<g>
			<path class="st0" d="M98.4,107.3l-4.3,2.6c-0.5,0.3-0.3,1.1,0.3,1.1h8.5c0.6,0,0.8-0.8,0.3-1.1l-4.3-2.6
				C98.8,107.2,98.5,107.2,98.4,107.3z"/>
			<path class="st1" d="M102.9,111.5h-8.5c-0.5,0-0.9-0.3-1-0.8s0.1-1,0.5-1.2l4.3-2.6c0.3-0.2,0.8-0.2,1.1,0l4.3,2.6
				c0.4,0.3,0.6,0.7,0.5,1.2S103.4,111.5,102.9,111.5z M98.6,107.7l-4.3,2.6c0,0-0.1,0,0,0.1c0,0.1,0.1,0.1,0.1,0.1h8.5
				c0,0,0.1,0,0.1-0.1c0-0.1,0-0.1,0-0.1L98.6,107.7z"/>
		</g>
	</g>
	<g>
		<path class="st3" d="M108.9,92.3c0,0,3.3,1.7,6.5,0.5s6-1.1,6-1.1l-2.1,4.6l-4.2,2.5l-4.6-2.3L108.9,92.3z"/>
		<path class="st1" d="M115,99.1c-4.2,0-7.4-5.2-7.4-12v-0.5h14.8V87C122.4,93.9,119.2,99.1,115,99.1z M108.6,87.5
			c0.1,5.9,2.9,10.5,6.4,10.5s6.2-4.6,6.4-10.5H108.6z"/>
		<rect x="114.5" y="98.6" class="st1" width="1" height="9.3"/>
		<g>
			<path class="st0" d="M114.8,107.3l-4.3,2.6c-0.5,0.3-0.3,1.1,0.3,1.1h8.5c0.6,0,0.8-0.8,0.3-1.1l-4.3-2.6
				C115.2,107.2,115,107.2,114.8,107.3z"/>
			<path class="st1" d="M119.4,111.5h-8.5c-0.5,0-0.9-0.3-1-0.8s0.1-1,0.5-1.2l4.3-2.6c0.3-0.2,0.8-0.2,1.1,0l4.3,2.6
				c0.4,0.3,0.6,0.7,0.5,1.2S119.8,111.5,119.4,111.5z M115,107.7l-4.3,2.6c0,0-0.1,0,0,0.1c0,0.1,0.1,0.1,0.1,0.1h8.5
				c0,0,0.1,0,0.1-0.1c0-0.1,0-0.1,0-0.1L115,107.7z"/>
		</g>
	</g>
</g>
<g id="Beer">
	<g>
		<path class="st3" d="M328.8,78.1l-4.7,14.2c-0.6,2.4-1.3,2.2-1.3,2.2c-0.8,0.3-6.8-1.7-7.3-2.4c0,0-0.7-0.3,0.3-2.6l4.7-14.2
			c0,0,0.1-1.2,2.1-2.6c0,0,0.7-0.3,1.5-2.7c0,0,2.4-5.6,3.1-6.6c0,0-0.4-0.1,0.1-0.8l0.4-0.7c0.1-0.1,0.1-0.2,0-0.3
			c-0.1-0.1,0.1-0.6,0.5-0.4l3.1,1c0.4,0.1,0.3,0.7,0.2,0.7c-0.1,0.1-0.2,0.2-0.2,0.3l-0.1,0.8c0,0.9-0.4,0.7-0.4,0.7
			c0,1.2-1.5,7.1-1.5,7.1c-0.8,2.5-0.4,3.1-0.4,3.1C329.4,77,328.8,78.1,328.8,78.1z"/>
		<path class="st3" d="M296.5,74.7l6.7,13.4c1.3,2.1,0.6,2.5,0.6,2.5c-0.4,0.8-6,3.6-6.9,3.5c0,0-0.7,0.3-1.6-2l-6.7-13.3
			c0,0-0.8-1-0.4-3.3c0,0,0.3-0.7-0.9-3c0,0-2.3-5.6-2.5-6.8c0,0-0.4,0.2-0.5-0.7l-0.2-0.8c0-0.1-0.1-0.2-0.2-0.2
			c-0.1,0-0.3-0.5,0.1-0.7l2.9-1.5c0.4-0.2,0.7,0.3,0.6,0.4c0,0.1,0,0.2,0.1,0.3l0.5,0.6c0.6,0.6,0.2,0.8,0.2,0.8
			c0.9,0.9,4,6.1,4,6.1c1.1,2.3,1.9,2.5,1.9,2.5C296.2,73.6,296.5,74.7,296.5,74.7z"/>
		<path class="st3" d="M306.5,73.2l1.7,14.8c0.5,2.4-0.3,2.6-0.3,2.6c-0.6,0.6-6.9,1.3-7.7,0.9c0,0-0.8,0-0.9-2.4l-1.8-14.8
			c0,0-0.4-1.2,0.7-3.3c0,0,0.5-0.5,0.2-3.1c0,0-0.2-6.1,0-7.2c0,0-0.4,0.1-0.3-0.8l0.1-0.8c0-0.1,0-0.2-0.1-0.3
			c-0.2,0-0.1-0.6,0.3-0.6l3.2-0.4c0.4-0.1,0.6,0.5,0.4,0.5c-0.1,0.1-0.1,0.2-0.1,0.3l0.3,0.8c0.4,0.8-0.1,0.8-0.1,0.8
			c0.5,1.1,1.7,7,1.7,7c0.3,2.6,0.9,3,0.9,3C306.6,72,306.5,73.2,306.5,73.2z"/>
		<path class="st3" d="M318.7,77.5l-1.6,14.9c-0.1,2.5-0.8,2.5-0.8,2.5c-0.8,0.4-7-0.2-7.7-0.8c0,0-0.7-0.1-0.3-2.6l1.5-14.9
			c0,0-0.1-1.2,1.4-3c0,0,0.6-0.4,0.9-3c0,0,1.1-6,1.6-7.1c0,0-0.4,0-0.1-0.8l0.3-0.8c0-0.1,0-0.2-0.1-0.3c-0.1,0,0-0.6,0.4-0.5
			l3.2,0.3c0.4,0,0.4,0.6,0.3,0.6c-0.1,0.1-0.1,0.2-0.1,0.3l0.1,0.8c0.2,0.9-0.2,0.8-0.2,0.8c0.3,1.2,0.1,7.2,0.1,7.2
			c-0.3,2.6,0.2,3.1,0.2,3.1C319,76.3,318.7,77.5,318.7,77.5z"/>
		<path class="st1" d="M330.4,84l3.2,5.7c0.4,0.7,0.1,1.6-0.6,2l-0.5,0.3c-0.7,0.4-1.6,0.1-2-0.6l-3.2-5.7"/>
		<path class="st1" d="M287.7,84l-3.2,5.7c-0.4,0.7-0.1,1.6,0.6,2l0.5,0.3c0.7,0.4,1.6,0.1,2-0.6l3.2-5.7"/>
		<g>
			<path class="st0" d="M324.4,109.8h-30.6c-1.3,0-2.3-1.1-2.3-2.5l-3.9-24.4c0-1.4,1-2.5,2.3-2.5h38.4c1.3,0,2.3,1.1,2.3,2.5
				l-3.9,24.4C326.7,108.7,325.7,109.8,324.4,109.8z"/>
			<path class="st1" d="M324.4,110.3h-30.6c-1.6,0-2.8-1.4-2.8-3l-3.9-24.4c0-1.7,1.3-3.1,2.8-3.1h38.4c1.6,0,2.8,1.4,2.8,3
				l-3.9,24.5C327.2,109,325.9,110.3,324.4,110.3z M289.9,80.8c-1,0-1.8,0.9-1.8,2l3.9,24.4c0,1.2,0.8,2.1,1.8,2.1h30.6
				c1,0,1.8-0.9,1.8-2l3.9-24.5c0-1-0.8-2-1.8-2H289.9z"/>
		</g>
		<path class="st1" d="M329.1,90.3h-40c-0.3,0-0.5-0.2-0.5-0.5s0.2-0.5,0.5-0.5h40c0.3,0,0.5,0.2,0.5,0.5S329.4,90.3,329.1,90.3z"/>
		<path class="st1" d="M330.1,84.3h-42c-0.3,0-0.5-0.2-0.5-0.5s0.2-0.5,0.5-0.5h42c0.3,0,0.5,0.2,0.5,0.5S330.4,84.3,330.1,84.3z"/>
		<path class="st1" d="M326.5,108h-35.1c-0.3,0-0.5-0.2-0.5-0.5s0.2-0.5,0.5-0.5h35.1c0.3,0,0.5,0.2,0.5,0.5S326.8,108,326.5,108z"
			/>
	</g>
	<g class="st4">
		<g class="st5">
			<g>
				<path class="st0" d="M127.2,92.3h7.1c0.7,0,1.2,0.5,1.3,1.1l2.6,16.8h-15l2.6-16.8C126,92.7,126.6,92.3,127.2,92.3z"/>
				<path class="st1" d="M138.8,110.7h-16.1l2.7-17.3c0.1-0.9,0.9-1.6,1.8-1.6h7.1c0.9,0,1.7,0.7,1.8,1.6L138.8,110.7z M123.9,109.7
					h13.8l-2.5-16.2c-0.1-0.4-0.4-0.7-0.8-0.7h-7.1c-0.4,0-0.8,0.3-0.8,0.7L123.9,109.7z"/>
			</g>
			<g>
				<path class="st0" d="M123,109.1h15.4c0.6,0,1.1,0.5,1.1,1.1v0c0,0.6-0.5,1.1-1.1,1.1H123c-0.6,0-1.1-0.5-1.1-1.1v0
					C121.9,109.6,122.4,109.1,123,109.1z"/>
				<path class="st1" d="M138.5,111.8H123c-0.9,0-1.6-0.7-1.6-1.6s0.7-1.6,1.6-1.6h15.4c0.9,0,1.6,0.7,1.6,1.6
					S139.3,111.8,138.5,111.8z M123,109.6c-0.3,0-0.6,0.3-0.6,0.6c0,0.3,0.3,0.6,0.6,0.6h15.4c0.3,0,0.6-0.3,0.6-0.6
					c0-0.3-0.3-0.6-0.6-0.6H123z"/>
			</g>
			<path class="st1" d="M137.8,107.9h-14c-0.3,0-0.5-0.2-0.5-0.5s0.2-0.5,0.5-0.5h14c0.3,0,0.5,0.2,0.5,0.5S138.1,107.9,137.8,107.9
				z"/>
			<path class="st1" d="M137.5,106.2H124c-0.3,0-0.5-0.2-0.5-0.5s0.2-0.5,0.5-0.5h13.6c0.3,0,0.5,0.2,0.5,0.5
				S137.8,106.2,137.5,106.2z"/>
			<path class="st1" d="M136.2,97.8h-10.9c-0.3,0-0.5-0.2-0.5-0.5s0.2-0.5,0.5-0.5h10.9c0.3,0,0.5,0.2,0.5,0.5
				S136.5,97.8,136.2,97.8z"/>
		</g>
		<g class="st5">
			<g>
				<path class="st0" d="M127.2,88.6h7.1c0.7,0,1.2,0.5,1.3,1.1l2.6,16.8h-15l2.6-16.8C126,89.1,126.6,88.6,127.2,88.6z"/>
				<path class="st1" d="M138.8,107h-16.1l2.7-17.3c0.1-0.9,0.9-1.6,1.8-1.6h7.1c0.9,0,1.7,0.7,1.8,1.6L138.8,107z M123.9,106h13.8
					l-2.5-16.2c-0.1-0.4-0.4-0.7-0.8-0.7h-7.1c-0.4,0-0.8,0.3-0.8,0.7L123.9,106z"/>
			</g>
			<g>
				<path class="st0" d="M123,105.4h15.4c0.6,0,1.1,0.5,1.1,1.1l0,0c0,0.6-0.5,1.1-1.1,1.1H123c-0.6,0-1.1-0.5-1.1-1.1l0,0
					C121.9,105.9,122.4,105.4,123,105.4z"/>
				<path class="st1" d="M138.5,108.1H123c-0.9,0-1.6-0.7-1.6-1.6s0.7-1.6,1.6-1.6h15.4c0.9,0,1.6,0.7,1.6,1.6
					S139.3,108.1,138.5,108.1z M123,105.9c-0.3,0-0.6,0.3-0.6,0.6c0,0.3,0.3,0.6,0.6,0.6h15.4c0.3,0,0.6-0.3,0.6-0.6
					c0-0.3-0.3-0.6-0.6-0.6H123z"/>
			</g>
			<path class="st1" d="M137.8,104.3h-14c-0.3,0-0.5-0.2-0.5-0.5s0.2-0.5,0.5-0.5h14c0.3,0,0.5,0.2,0.5,0.5S138.1,104.3,137.8,104.3
				z"/>
			<path class="st1" d="M137.5,102.6H124c-0.3,0-0.5-0.2-0.5-0.5s0.2-0.5,0.5-0.5h13.6c0.3,0,0.5,0.2,0.5,0.5
				S137.8,102.6,137.5,102.6z"/>
			<path class="st1" d="M136.2,94.2h-10.9c-0.3,0-0.5-0.2-0.5-0.5s0.2-0.5,0.5-0.5h10.9c0.3,0,0.5,0.2,0.5,0.5
				S136.5,94.2,136.2,94.2z"/>
		</g>
		<g class="st5">
			<g>
				<path class="st0" d="M127.2,85h7.1c0.7,0,1.2,0.5,1.3,1.1l2.6,16.8h-15l2.6-16.8C126,85.5,126.6,85,127.2,85z"/>
				<path class="st1" d="M138.8,103.4h-16.1l2.7-17.3c0.1-0.9,0.9-1.6,1.8-1.6h7.1c0.9,0,1.7,0.7,1.8,1.6L138.8,103.4z M123.9,102.4
					h13.8l-2.5-16.2c-0.1-0.4-0.4-0.7-0.8-0.7h-7.1c-0.4,0-0.8,0.3-0.8,0.7L123.9,102.4z"/>
			</g>
			<g>
				<path class="st0" d="M123,101.8h15.4c0.6,0,1.1,0.5,1.1,1.1l0,0c0,0.6-0.5,1.1-1.1,1.1H123c-0.6,0-1.1-0.5-1.1-1.1l0,0
					C121.9,102.3,122.4,101.8,123,101.8z"/>
				<path class="st1" d="M138.5,104.5H123c-0.9,0-1.6-0.7-1.6-1.6s0.7-1.6,1.6-1.6h15.4c0.9,0,1.6,0.7,1.6,1.6
					S139.3,104.5,138.5,104.5z M123,102.3c-0.3,0-0.6,0.3-0.6,0.6c0,0.3,0.3,0.6,0.6,0.6h15.4c0.3,0,0.6-0.3,0.6-0.6
					c0-0.3-0.3-0.6-0.6-0.6H123z"/>
			</g>
			<path class="st1" d="M137.8,100.6h-14c-0.3,0-0.5-0.2-0.5-0.5s0.2-0.5,0.5-0.5h14c0.3,0,0.5,0.2,0.5,0.5S138.1,100.6,137.8,100.6
				z"/>
			<path class="st1" d="M137.5,99H124c-0.3,0-0.5-0.2-0.5-0.5s0.2-0.5,0.5-0.5h13.6c0.3,0,0.5,0.2,0.5,0.5S137.8,99,137.5,99z"/>
			<path class="st1" d="M136.2,90.5h-10.9c-0.3,0-0.5-0.2-0.5-0.5s0.2-0.5,0.5-0.5h10.9c0.3,0,0.5,0.2,0.5,0.5
				S136.5,90.5,136.2,90.5z"/>
		</g>
		<g class="st5">
			<g>
				<path class="st0" d="M127.2,81.4h7.1c0.7,0,1.2,0.5,1.3,1.1l2.6,16.8h-15l2.6-16.8C126,81.9,126.6,81.4,127.2,81.4z"/>
				<path class="st1" d="M138.8,99.8h-16.1l2.7-17.3c0.1-0.9,0.9-1.6,1.8-1.6h7.1c0.9,0,1.7,0.7,1.8,1.6L138.8,99.8z M123.9,98.8
					h13.8l-2.5-16.2c-0.1-0.4-0.4-0.7-0.8-0.7h-7.1c-0.4,0-0.8,0.3-0.8,0.7L123.9,98.8z"/>
			</g>
			<g>
				<path class="st0" d="M123,98.2h15.4c0.6,0,1.1,0.5,1.1,1.1v0c0,0.6-0.5,1.1-1.1,1.1H123c-0.6,0-1.1-0.5-1.1-1.1v0
					C121.9,98.7,122.4,98.2,123,98.2z"/>
				<path class="st1" d="M138.5,100.9H123c-0.9,0-1.6-0.7-1.6-1.6s0.7-1.6,1.6-1.6h15.4c0.9,0,1.6,0.7,1.6,1.6
					S139.3,100.9,138.5,100.9z M123,98.7c-0.3,0-0.6,0.3-0.6,0.6c0,0.3,0.3,0.6,0.6,0.6h15.4c0.3,0,0.6-0.3,0.6-0.6
					c0-0.3-0.3-0.6-0.6-0.6H123z"/>
			</g>
			<path class="st1" d="M137.8,97h-14c-0.3,0-0.5-0.2-0.5-0.5s0.2-0.5,0.5-0.5h14c0.3,0,0.5,0.2,0.5,0.5S138.1,97,137.8,97z"/>
			<path class="st1" d="M137.5,95.3H124c-0.3,0-0.5-0.2-0.5-0.5s0.2-0.5,0.5-0.5h13.6c0.3,0,0.5,0.2,0.5,0.5S137.8,95.3,137.5,95.3z
				"/>
			<path class="st1" d="M136.2,86.9h-10.9c-0.3,0-0.5-0.2-0.5-0.5s0.2-0.5,0.5-0.5h10.9c0.3,0,0.5,0.2,0.5,0.5
				S136.5,86.9,136.2,86.9z"/>
		</g>
		<g class="st5">
			<g>
				<path class="st0" d="M127.2,77.8h7.1c0.7,0,1.2,0.5,1.3,1.1l2.6,16.8h-15l2.6-16.8C126,78.3,126.6,77.8,127.2,77.8z"/>
				<path class="st1" d="M138.8,96.2h-16.1l2.7-17.3c0.1-0.9,0.9-1.6,1.8-1.6h7.1c0.9,0,1.7,0.7,1.8,1.6L138.8,96.2z M123.9,95.2
					h13.8L135.1,79c-0.1-0.4-0.4-0.7-0.8-0.7h-7.1c-0.4,0-0.8,0.3-0.8,0.7L123.9,95.2z"/>
			</g>
			<g>
				<path class="st0" d="M123,94.6h15.4c0.6,0,1.1,0.5,1.1,1.1l0,0c0,0.6-0.5,1.1-1.1,1.1H123c-0.6,0-1.1-0.5-1.1-1.1l0,0
					C121.9,95.1,122.4,94.6,123,94.6z"/>
				<path class="st1" d="M138.5,97.3H123c-0.9,0-1.6-0.7-1.6-1.6s0.7-1.6,1.6-1.6h15.4c0.9,0,1.6,0.7,1.6,1.6S139.3,97.3,138.5,97.3
					z M123,95.1c-0.3,0-0.6,0.3-0.6,0.6c0,0.3,0.3,0.6,0.6,0.6h15.4c0.3,0,0.6-0.3,0.6-0.6c0-0.3-0.3-0.6-0.6-0.6H123z"/>
			</g>
			<path class="st1" d="M137.8,93.4h-14c-0.3,0-0.5-0.2-0.5-0.5s0.2-0.5,0.5-0.5h14c0.3,0,0.5,0.2,0.5,0.5S138.1,93.4,137.8,93.4z"
				/>
			<path class="st1" d="M137.5,91.7H124c-0.3,0-0.5-0.2-0.5-0.5s0.2-0.5,0.5-0.5h13.6c0.3,0,0.5,0.2,0.5,0.5S137.8,91.7,137.5,91.7z
				"/>
			<path class="st1" d="M136.2,83.3h-10.9c-0.3,0-0.5-0.2-0.5-0.5s0.2-0.5,0.5-0.5h10.9c0.3,0,0.5,0.2,0.5,0.5
				S136.5,83.3,136.2,83.3z"/>
		</g>
		<g class="st5">
			<g>
				<path class="st0" d="M127.2,74.2h7.1c0.7,0,1.2,0.5,1.3,1.1l2.6,16.8h-15l2.6-16.8C126,74.7,126.6,74.2,127.2,74.2z"/>
				<path class="st1" d="M138.8,92.6h-16.1l2.7-17.3c0.1-0.9,0.9-1.6,1.8-1.6h7.1c0.9,0,1.7,0.7,1.8,1.6L138.8,92.6z M123.9,91.6
					h13.8l-2.5-16.2c-0.1-0.4-0.4-0.7-0.8-0.7h-7.1c-0.4,0-0.8,0.3-0.8,0.7L123.9,91.6z"/>
			</g>
			<g>
				<path class="st0" d="M123,91h15.4c0.6,0,1.1,0.5,1.1,1.1l0,0c0,0.6-0.5,1.1-1.1,1.1H123c-0.6,0-1.1-0.5-1.1-1.1l0,0
					C121.9,91.5,122.4,91,123,91z"/>
				<path class="st1" d="M138.5,93.7H123c-0.9,0-1.6-0.7-1.6-1.6s0.7-1.6,1.6-1.6h15.4c0.9,0,1.6,0.7,1.6,1.6S139.3,93.7,138.5,93.7
					z M123,91.5c-0.3,0-0.6,0.3-0.6,0.6s0.3,0.6,0.6,0.6h15.4c0.3,0,0.6-0.3,0.6-0.6s-0.3-0.6-0.6-0.6H123z"/>
			</g>
			<path class="st1" d="M137.8,89.8h-14c-0.3,0-0.5-0.2-0.5-0.5s0.2-0.5,0.5-0.5h14c0.3,0,0.5,0.2,0.5,0.5S138.1,89.8,137.8,89.8z"
				/>
			<path class="st1" d="M137.5,88.1H124c-0.3,0-0.5-0.2-0.5-0.5s0.2-0.5,0.5-0.5h13.6c0.3,0,0.5,0.2,0.5,0.5S137.8,88.1,137.5,88.1z
				"/>
			<path class="st1" d="M136.2,79.7h-10.9c-0.3,0-0.5-0.2-0.5-0.5s0.2-0.5,0.5-0.5h10.9c0.3,0,0.5,0.2,0.5,0.5
				S136.5,79.7,136.2,79.7z"/>
		</g>
		<g class="st5">
			<g>
				<path class="st0" d="M164,109h-6.7c-0.6,0-1.1-0.5-1.2-1.1l-2.5-15.8h14.1l-2.5,15.8C165.2,108.6,164.6,109,164,109z"/>
				<path class="st1" d="M164,109.5h-6.7c-0.9,0-1.6-0.6-1.7-1.5L153,91.6h15.3l-2.6,16.4C165.6,108.9,164.9,109.5,164,109.5z
					 M154.2,92.6l2.4,15.2c0.1,0.4,0.4,0.7,0.8,0.7h6.7c0.4,0,0.7-0.3,0.8-0.7l2.4-15.2H154.2z"/>
			</g>
			<g>
				<path class="st0" d="M168,93.2h-14.6c-0.6,0-1-0.5-1-1v0c0-0.6,0.5-1,1-1H168c0.6,0,1,0.5,1,1v0C169,92.7,168.5,93.2,168,93.2z"
					/>
				<path class="st1" d="M168,93.7h-14.6c-0.8,0-1.5-0.7-1.5-1.5s0.7-1.5,1.5-1.5H168c0.9,0,1.5,0.7,1.5,1.5S168.8,93.7,168,93.7z
					 M153.4,91.6c-0.3,0-0.5,0.2-0.5,0.5s0.2,0.5,0.5,0.5H168c0.3,0,0.5-0.2,0.5-0.5s-0.2-0.5-0.5-0.5H153.4z"/>
			</g>
			<path class="st1" d="M167.3,95.2H154c-0.3,0-0.5-0.2-0.5-0.5s0.2-0.5,0.5-0.5h13.2c0.3,0,0.5,0.2,0.5,0.5S167.6,95.2,167.3,95.2z
				"/>
			<path class="st1" d="M167.1,96.8h-12.8c-0.3,0-0.5-0.2-0.5-0.5s0.2-0.5,0.5-0.5h12.8c0.3,0,0.5,0.2,0.5,0.5
				S167.4,96.8,167.1,96.8z"/>
			<path class="st1" d="M165.8,104.8h-10.3c-0.3,0-0.5-0.2-0.5-0.5s0.2-0.5,0.5-0.5h10.3c0.3,0,0.5,0.2,0.5,0.5
				S166.1,104.8,165.8,104.8z"/>
		</g>
		<g class="st5">
			<g>
				<path class="st0" d="M156.4,111.3h-7.1c-0.7,0-1.2-0.5-1.3-1.1l-2.6-16.8h15l-2.6,16.8C157.6,110.8,157,111.3,156.4,111.3z"/>
				<path class="st1" d="M156.4,111.8h-7.1c-0.9,0-1.7-0.7-1.8-1.6l-2.7-17.3h16.1l-2.7,17.3C158,111.1,157.3,111.8,156.4,111.8z
					 M145.9,93.9l2.5,16.2c0.1,0.4,0.4,0.7,0.8,0.7h7.1c0.4,0,0.8-0.3,0.8-0.7l2.5-16.2H145.9z"/>
			</g>
			<g>
				<path class="st0" d="M160.5,94.5h-15.4c-0.6,0-1.1-0.5-1.1-1.1l0,0c0-0.6,0.5-1.1,1.1-1.1h15.4c0.6,0,1.1,0.5,1.1,1.1l0,0
					C161.7,94,161.2,94.5,160.5,94.5z"/>
				<path class="st1" d="M160.5,95h-15.4c-0.9,0-1.6-0.7-1.6-1.6s0.7-1.6,1.6-1.6h15.4c0.9,0,1.6,0.7,1.6,1.6S161.4,95,160.5,95z
					 M145.1,92.8c-0.3,0-0.6,0.3-0.6,0.6s0.3,0.6,0.6,0.6h15.4c0.3,0,0.6-0.3,0.6-0.6s-0.3-0.6-0.6-0.6H145.1z"/>
			</g>
			<path class="st1" d="M159.8,96.6h-14c-0.3,0-0.5-0.2-0.5-0.5s0.2-0.5,0.5-0.5h14c0.3,0,0.5,0.2,0.5,0.5S160.1,96.6,159.8,96.6z"
				/>
			<path class="st1" d="M159.6,98.3h-13.6c-0.3,0-0.5-0.2-0.5-0.5s0.2-0.5,0.5-0.5h13.6c0.3,0,0.5,0.2,0.5,0.5
				S159.9,98.3,159.6,98.3z"/>
			<path class="st1" d="M158.3,106.7h-10.9c-0.3,0-0.5-0.2-0.5-0.5s0.2-0.5,0.5-0.5h10.9c0.3,0,0.5,0.2,0.5,0.5
				S158.6,106.7,158.3,106.7z"/>
		</g>
	</g>
</g>
<g id="Cocktails">
	<g>
		<g id="XMLID_1_">
			<g>
				<path class="st1" d="M160,86.9c0,0,0,0.1,0,0.1l-0.4,2.6l-3.6,20.5c0,0.2-0.1,0.3-0.3,0.3c0,0-1.4,0.4-3.8,0.4
					c-2.4,0-3.7-0.4-3.8-0.4c-0.2,0-0.2-0.2-0.3-0.3l-4.1-23.1c0,0,0,0,0,0c0,0,0-0.1,0-0.1v0l1.6-5.4c0.4-1,0.8-2.1,2-2.1h0.4v-3.6
					c0-0.7,0.5-1.2,1.2-1.2h5.7c0.7,0,1.2,0.5,1.2,1.2v3.6h0.4c1.3,0,1.7,1.3,2,2.1l1,3.2c0,0,0,0,0,0L160,86.9L160,86.9z
					 M159.1,86.7l-0.4-1.5c-1.2,0.2-3.4,0.6-6.8,0.6c-0.2,0-0.4-0.2-0.4-0.4s0.2-0.4,0.4-0.4c3.3,0,5.4-0.3,6.5-0.5l-0.8-2.8
					c-0.4-1.2-0.7-1.6-1.2-1.6h-8.9c-0.6,0-0.9,0.5-1.3,1.6l-1.5,5c0.9,0.2,3.1,0.7,7.2,0.7C156,87.4,158.3,86.9,159.1,86.7z
					 M158.8,89.2l0.3-1.7c-1,0.2-3.3,0.6-7.2,0.6s-6.2-0.4-7.2-0.6l3.9,22.2c0.4,0.1,1.6,0.3,3.3,0.3c1.7,0,2.8-0.2,3.3-0.3
					l3.4-19.7c-1.2,0.2-3.4,0.6-6.7,0.6c-0.2,0-0.4-0.2-0.4-0.4c0-0.2,0.2-0.4,0.4-0.4C155.6,89.8,157.8,89.4,158.8,89.2z
					 M155.2,79.3v-3.6c0-0.2-0.2-0.4-0.4-0.4h-3.6v4.1H155.2z M150.3,79.3v-4.1h-1.2c-0.2,0-0.4,0.2-0.4,0.4v3.6H150.3z"/>
				<path class="st0" d="M158.6,85.2l0.4,1.5c-0.8,0.2-3.1,0.7-7.2,0.7c-4.1,0-6.4-0.5-7.2-0.7l1.5-5c0.4-1.1,0.7-1.6,1.3-1.6h8.9
					c0.5,0,0.9,0.4,1.2,1.6l0.8,2.8c-1.1,0.2-3.2,0.5-6.5,0.5c-0.2,0-0.4,0.2-0.4,0.4s0.2,0.4,0.4,0.4
					C155.3,85.8,157.5,85.4,158.6,85.2z"/>
				<path class="st0" d="M159.1,87.5l-0.3,1.7c-1,0.2-3.2,0.6-6.9,0.6c-0.2,0-0.4,0.2-0.4,0.4c0,0.2,0.2,0.4,0.4,0.4
					c3.4,0,5.5-0.3,6.7-0.6l-3.4,19.7c-0.4,0.1-1.6,0.3-3.3,0.3c-1.7,0-2.8-0.2-3.3-0.3l-3.9-22.2c1,0.2,3.3,0.6,7.2,0.6
					S158.1,87.8,159.1,87.5z"/>
				<path class="st0" d="M155.2,75.6v3.6h-4.1v-4.1h3.6C155,75.2,155.2,75.4,155.2,75.6z"/>
				<path class="st0" d="M150.3,75.2v4.1h-1.6v-3.6c0-0.2,0.2-0.4,0.4-0.4H150.3z"/>
			</g>
			<g>
			</g>
		</g>
	</g>
</g>
<g id="Spirits">
	<path class="st3" d="M351.4,109.5c0,0-0.6-37.8-0.6-38.1c0-0.3,0-0.2-0.2-0.9c-0.2-0.7-2.4-0.9-2.8-1.1c-0.4-0.1-0.5-1.1-0.6-1.5
		c-0.1-0.4,0-2.8,0-2.8l0.1-0.1c0-0.3,0-2.6,0-2.8c0-0.1-0.2-0.2-0.6-0.3c-0.1,0-0.2,0-0.2,0c-0.5-0.1-1.2-0.1-1.3-0.2l0,0
		c-0.2,0-0.4,0-0.5,0c-0.5,0.1-1.9,0.2-1.9,0.5c0,0.3,0,2.5,0,2.8l0.1,0.1c0,0,0.1,2.4,0,2.8c-0.1,0.4-0.2,1.4-0.6,1.5
		c-0.4,0.1-2.5,0.4-2.8,1.1s-0.2,0.6-0.2,0.9c0,0.3-0.4,38.1-0.4,38.1s-0.3,1.1,1.6,1.5c1.5,0.4,3.7,0.4,4.5,0.4l0,0
		c0,0,3,0.1,4.9-0.4C351.7,110.5,351.4,109.5,351.4,109.5z M345,77c-1.3,0-2.3-1-2.3-2.3c0-1.3,1-2.3,2.3-2.3c1.3,0,2.3,1,2.3,2.3
		C347.3,76,346.3,77,345,77z"/>
</g>
</svg>
