<?xml version="1.0" encoding="UTF-8"?>
<svg width="82px" height="82px" viewBox="0 0 82 82" version="1.1" xmlns="http://www.w3.org/2000/svg" xmlns:xlink="http://www.w3.org/1999/xlink">
    <!-- Generator: Sketch 43.1 (39012) - http://www.bohemiancoding.com/sketch -->
    <title>bottle-pop</title>
    <desc>Created with Sketch.</desc>
    <defs></defs>
    <g id="Page-1" stroke="none" stroke-width="1" fill="none" fill-rule="evenodd">
        <g id="bottle-pop" fill-rule="nonzero" fill="#FFFFFF">
            <path d="M44.5,7.3 C43.7,5.8 42.3,5 40.7,5.1 C38.7,5.2 36.5,6.9 36.3,9.8 C35.8,14.5 40.3,18.4 40.5,18.6 C40.7,18.8 40.9,18.8 41.2,18.8 L41.3,18.8 C41.5,18.8 47.4,18.1 49.8,14 C51.3,11.4 50.5,8.8 48.9,7.6 C47.5,6.6 45.9,6.5 44.5,7.3 Z M47.9,13.1 C46.4,15.8 42.7,16.6 41.4,16.8 C40.5,15.9 37.9,13.1 38.2,10 C38.4,8.1 39.7,7.1 40.8,7.1 L40.9,7.1 C41.9,7.1 42.7,7.8 42.9,9.1 C43,9.4 43.2,9.7 43.6,9.8 C44,9.9 44.3,9.8 44.6,9.6 C45.6,8.7 46.7,8.6 47.5,9.2 C48.4,9.9 48.9,11.4 47.9,13.1 Z" id="Shape"></path>
            <path d="M64.5,47.6 C63.3,46 60.7,45.1 58.1,46.5 C53.9,48.7 53,54.6 53,54.8 C53,55.1 53,55.3 53.2,55.6 C53.4,55.8 56.9,60.1 61.4,60.1 L61.8,60.1 C64.8,59.9 66.5,57.8 66.7,55.8 C66.9,54.2 66.1,52.8 64.7,52 C65.5,50.5 65.5,48.9 64.5,47.6 Z M64.8,55.5 C64.7,56.6 63.7,57.8 61.8,58 C58.7,58.2 56,55.5 55.1,54.6 C55.4,53.3 56.3,49.7 59.1,48.2 C60.8,47.3 62.3,47.9 62.9,48.7 C63.5,49.6 63.4,50.6 62.4,51.6 C62.1,51.9 62.1,52.2 62.1,52.6 C62.1,53 62.5,53.2 62.8,53.3 C64.2,53.6 64.9,54.5 64.8,55.5 Z" id="Shape"></path>
            <path d="M77.4,36.1 C78.4,34.4 78.4,32.5 77.3,30.9 C75.9,29 72.9,28 69.9,29.6 C64.9,32.2 63.9,39.1 63.9,39.4 C63.9,39.7 63.9,39.9 64.1,40.2 C64.3,40.4 68.5,45.5 73.8,45.5 L74.3,45.5 C77.7,45.3 79.8,42.9 80,40.6 C80.1,38.7 79.1,37 77.4,36.1 Z M77.9,40.4 C77.8,41.8 76.5,43.4 74.1,43.5 C70.3,43.7 66.8,40.4 65.8,39.3 C66.1,37.9 67.3,33.2 70.7,31.4 C72.9,30.3 74.7,31 75.6,32.1 C76.4,33.2 76.2,34.6 75,35.8 C74.7,36.1 74.7,36.4 74.7,36.8 C74.7,37.2 75.1,37.4 75.4,37.5 C77.2,37.9 78,39 77.9,40.4 Z" id="Shape"></path>
            <path d="M17.7,81.3 C18.5,81.3 19.3,81 19.9,80.4 L41.3,59 C43.5,56.8 47.3,51.2 48.7,46.3 C50.4,40.6 53.1,35.8 56.9,32.1 L58.8,30.2 C59.1,30.3 59.5,30.4 59.9,30.4 C60.6,30.4 61.4,30.1 62,29.5 C63.1,28.4 63.1,26.5 62,25.4 L56.3,19.7 C55.2,18.6 53.3,18.6 52.2,19.7 C51.2,20.7 51.1,22.1 51.7,23.2 L50,24.9 C48.1,26.8 45.9,28.5 43.4,29.8 C43.3,29.8 43.1,29.9 43,30 C40.7,31.2 38.3,32.2 35.6,32.9 C31,34.1 25.2,37.7 22.7,40.3 L1.2,61.7 C4.21884749e-15,63 4.21884749e-15,65 1.3,66.3 L15.3,80.3 C16,81 16.8,81.3 17.7,81.3 Z M53.6,21.1 C53.8,20.9 54,20.8 54.2,20.8 C54.4,20.8 54.7,20.9 54.8,21.1 L60.5,26.8 C60.9,27.2 60.9,27.7 60.5,28.1 C60.1,28.5 59.6,28.5 59.2,28.1 L53.5,22.4 C53.2,22 53.2,21.4 53.6,21.1 Z M51.4,26.3 L53,24.7 L57.2,28.9 L55.4,30.6 C53.5,32.5 51.9,34.6 50.5,37 L43,38.6 L44.5,31.4 C47.1,30 49.4,28.3 51.4,26.3 Z M2.6,63.1 L24.1,41.7 C26.1,39.7 31.6,36.1 36.1,34.8 C38.3,34.2 40.3,33.5 42.2,32.6 L40.7,39.7 C40.6,40 40.7,40.4 41,40.6 C41.2,40.8 41.4,40.9 41.7,40.9 L41.9,40.9 L49.3,39.3 C48.3,41.3 47.5,43.4 46.8,45.7 C45.5,50.2 41.9,55.6 39.9,57.6 L18.4,79 C18,79.4 17.2,79.4 16.7,78.9 L2.7,64.9 C2.2,64.4 2.2,63.6 2.6,63.1 Z" id="Shape"></path>
            <path d="M19,73 C19.3,73 19.5,72.9 19.7,72.7 L35.2,57.2 C35.6,56.8 35.6,56.2 35.2,55.8 C34.8,55.4 34.2,55.4 33.8,55.8 L18.3,71.3 C17.9,71.7 17.9,72.3 18.3,72.7 C18.5,72.9 18.8,73 19,73 Z" id="Shape"></path>
            <path d="M78.4,1.4 C76.9,-0.1 74.3,0.1 73.1,1.3 L69.1,5.3 C68.9,5.5 68.8,5.7 68.8,6 C68.8,8.1 70.2,12.1 75.5,12.8 L75.6,12.8 C75.9,12.8 76.1,12.7 76.3,12.5 L80.3,8.5 C80.9,7.9 81.3,7 81.4,6.1 C81.5,5.1 81.1,4.1 80.5,3.4 L78.4,1.4 Z M79.4,6 C79.4,6.4 79.2,6.9 78.9,7.1 L75.2,10.8 C71.6,10.1 70.9,7.5 70.8,6.4 L74.5,2.7 C74.9,2.3 76.3,2.1 77,2.8 L79,4.8 C79.4,5.2 79.4,5.7 79.4,6 Z" id="Shape"></path>
            <path d="M67.3,12.8 L61.5,18.6 C61.1,19 61.1,19.6 61.5,20 C61.7,20.2 62,20.3 62.2,20.3 C62.4,20.3 62.7,20.2 62.9,20 L68.7,14.2 C69.1,13.8 69.1,13.2 68.7,12.8 C68.3,12.4 67.7,12.4 67.3,12.8 Z" id="Shape"></path>
            <path d="M62.9,7.3 C62.4,7.1 61.8,7.3 61.6,7.8 L58,15.2 C57.8,15.7 58,16.3 58.5,16.5 C58.6,16.6 58.8,16.6 58.9,16.6 C59.3,16.6 59.6,16.4 59.8,16 L63.4,8.6 C63.6,8.1 63.4,7.5 62.9,7.3 Z" id="Shape"></path>
            <path d="M64.9,22.7 C65,23.1 65.4,23.4 65.8,23.4 C65.9,23.4 66,23.4 66.1,23.3 L73.9,20.7 C74.4,20.5 74.7,20 74.5,19.4 C74.3,18.9 73.8,18.6 73.2,18.8 L65.4,21.4 C65.1,21.6 64.8,22.1 64.9,22.7 Z" id="Shape"></path>
        </g>
    </g>
</svg>