<?xml version="1.0" encoding="UTF-8"?>
<svg width="86px" height="107px" viewBox="0 0 86 107" version="1.1" xmlns="http://www.w3.org/2000/svg" xmlns:xlink="http://www.w3.org/1999/xlink">
    <!-- Generator: Sketch 43.1 (39012) - http://www.bohemiancoding.com/sketch -->
    <title>illustration</title>
    <desc>Created with Sketch.</desc>
    <defs></defs>
    <g id="Page-1" stroke="none" stroke-width="1" fill="none" fill-rule="evenodd">
        <g id="Concept-1---Blue-Variant" transform="translate(-603.000000, -938.000000)">
            <g id="illustration" transform="translate(605.259136, 929.444744)">
                <g id="calendar" transform="translate(0.000000, 9.000000)">
                    <path d="M66.1795123,80.278124 L2.20609037,80.278124 C0.987837874,80.278124 0.000110299003,79.2933154 0.000110299003,78.0786631 L0.000110299003,19.7945984 L68.3854924,19.7945984 L68.3854924,78.0786631 C68.3854924,79.2933154 67.3977648,80.278124 66.1795123,80.278124 L66.1795123,80.278124 Z" id="Stroke-1" stroke="#545E65" stroke-width="4"></path>
                    <path d="M5.23925781,49.2126081 L11.857198,49.2126081" id="Stroke-3" stroke="#545E65"></path>
                    <path d="M13.5116831,49.2126081 L20.1296233,49.2126081" id="Stroke-5" stroke="#545E65"></path>
                    <path d="M21.7841083,49.2126081 L28.4020485,49.2126081" id="Stroke-7" stroke="#545E65"></path>
                    <path d="M30.0565336,49.2126081 L36.6744738,49.2126081" id="Stroke-9" stroke="#545E65"></path>
                    <path d="M38.3289588,49.2126081 L44.946899,49.2126081" id="Stroke-11" stroke="#545E65"></path>
                    <path d="M46.6013841,49.2126081 L53.2193243,49.2126081" id="Stroke-13" stroke="#545E65"></path>
                    <path d="M54.8738093,49.2126081 L61.4917495,49.2126081" id="Stroke-15" stroke="#545E65"></path>
                    <path d="M5.23925781,41.5137251 L11.857198,41.5137251" id="Stroke-17" stroke="#545E65"></path>
                    <path d="M13.5116831,41.5137251 L20.1296233,41.5137251" id="Stroke-19" stroke="#545E65"></path>
                    <path d="M21.7841083,41.5137251 L28.4020485,41.5137251" id="Stroke-21" stroke="#545E65"></path>
                    <path d="M30.0565336,41.5137251 L36.6744738,41.5137251" id="Stroke-23" stroke="#545E65"></path>
                    <path d="M38.3289588,41.5137251 L44.946899,41.5137251" id="Stroke-25" stroke="#545E65"></path>
                    <path d="M46.6013841,41.5137251 L53.2193243,41.5137251" id="Stroke-27" stroke="#545E65"></path>
                    <path d="M54.8738093,41.5137251 L61.4917495,41.5137251" id="Stroke-29" stroke="#545E65"></path>
                    <path d="M5.23925781,56.9114911 L11.857198,56.9114911" id="Stroke-31" stroke="#545E65"></path>
                    <path d="M13.5116831,56.9114911 L20.1296233,56.9114911" id="Stroke-33" stroke="#545E65"></path>
                    <path d="M21.7841083,56.9114911 L28.4020485,56.9114911" id="Stroke-35" stroke="#545E65"></path>
                    <path d="M30.0565336,56.9114911 L36.6744738,56.9114911" id="Stroke-37" stroke="#545E65"></path>
                    <path d="M38.3289588,56.9114911 L44.946899,56.9114911" id="Stroke-39" stroke="#545E65"></path>
                    <path d="M46.6013841,56.9114911 L53.2193243,56.9114911" id="Stroke-41" stroke="#545E65"></path>
                    <path d="M54.8738093,56.9114911 L61.4917495,56.9114911" id="Stroke-43" stroke="#545E65"></path>
                    <path d="M5.23925781,64.6103741 L11.857198,64.6103741" id="Stroke-45" stroke="#545E65"></path>
                    <path d="M13.5116831,64.6103741 L20.1296233,64.6103741" id="Stroke-47" stroke="#545E65"></path>
                    <path d="M21.7841083,64.6103741 L28.4020485,64.6103741" id="Stroke-49" stroke="#545E65"></path>
                    <path d="M30.0565336,64.6103741 L36.6744738,64.6103741" id="Stroke-51" stroke="#545E65"></path>
                    <path d="M38.3289588,64.6103741 L44.946899,64.6103741" id="Stroke-53" stroke="#545E65"></path>
                    <path d="M46.6013841,64.6103741 L53.2193243,64.6103741" id="Stroke-55" stroke="#545E65"></path>
                    <path d="M54.8738093,64.6103741 L61.4917495,64.6103741" id="Stroke-57" stroke="#545E65"></path>
                    <path d="M5.23925781,72.3092571 L11.857198,72.3092571" id="Stroke-59" stroke="#545E65"></path>
                    <path d="M13.5116831,72.3092571 L20.1296233,72.3092571" id="Stroke-61" stroke="#545E65"></path>
                    <path d="M21.7841083,72.3092571 L28.4020485,72.3092571" id="Stroke-63" stroke="#545E65"></path>
                    <path d="M30.0565336,72.3092571 L36.6744738,72.3092571" id="Stroke-65" stroke="#545E65"></path>
                    <path d="M38.3289588,72.3092571 L44.946899,72.3092571" id="Stroke-67" stroke="#545E65"></path>
                    <path d="M46.6013841,72.3092571 L53.2193243,72.3092571" id="Stroke-69" stroke="#545E65"></path>
                    <path d="M54.8738093,72.3092571 L61.4917495,72.3092571" id="Stroke-71" stroke="#545E65"></path>
                    <path d="M13.5116831,37.940041 L13.5116831,74.7788119" id="Stroke-73" stroke="#545E65"></path>
                    <path d="M5.23925781,37.940041 L5.23925781,74.7788119" id="Stroke-75" stroke="#545E65"></path>
                    <path d="M21.7841635,37.940041 L21.7841635,74.7788119" id="Stroke-77" stroke="#545E65"></path>
                    <path d="M30.0565336,37.940041 L30.0565336,74.7788119" id="Stroke-79" stroke="#545E65"></path>
                    <path d="M38.3289588,37.940041 L38.3289588,74.7788119" id="Stroke-81" stroke="#545E65"></path>
                    <path d="M46.6013841,37.940041 L46.6013841,74.7788119" id="Stroke-83" stroke="#545E65"></path>
                    <path d="M63.1463449,37.940041 L63.1463449,74.7788119" id="Stroke-85" stroke="#545E65"></path>
                    <path d="M54.8738093,37.940041 L54.8738093,74.7788119" id="Stroke-87" stroke="#545E65"></path>
                    <path d="M1.65459535,20.3445736 L1.65459535,5.50426092 C1.65459535,5.20018544 1.90166512,4.95439569 2.20609037,4.95439569 L67.2825023,4.95439569 C67.5869276,4.95439569 67.8339973,5.20018544 67.8339973,5.50426092 L67.8339973,20.3445736 L1.65459535,20.3445736 Z" id="Fill-89" fill="#C2E9F9"></path>
                    <path d="M68.3856027,19.7945984 L0.000220598007,19.7945984 L0.000220598007,5.50415094 C0.000220598007,4.28949865 0.987396678,3.30469003 2.20620066,3.30469003 L66.1796226,3.30469003 C67.3978751,3.30469003 68.3856027,4.28949865 68.3856027,5.50415094 L68.3856027,19.7945984 L68.3856027,19.7945984 Z" id="Stroke-91" stroke="#545E65" stroke-width="4"></path>
                    <path d="M9.92757209,8.25364205 C9.92757209,9.16476873 9.18691429,9.90323774 8.27308704,9.90323774 C7.3592598,9.90323774 6.61860199,9.16476873 6.61860199,8.25364205 C6.61860199,7.34251536 7.3592598,6.60404636 8.27308704,6.60404636 C9.18691429,6.60404636 9.92757209,7.34251536 9.92757209,8.25364205" id="Fill-93" fill="#F7F7F7"></path>
                    <path d="M9.37602193,7.70372183 C9.37602193,8.61484852 8.63536412,9.35331752 7.72153688,9.35331752 C6.80770963,9.35331752 6.06705183,8.61484852 6.06705183,7.70372183 C6.06705183,6.79259515 6.80770963,6.05412615 7.72153688,6.05412615 C8.63536412,6.05412615 9.37602193,6.79259515 9.37602193,7.70372183" id="Fill-95" fill="#545E65"></path>
                    <path d="M8.27308704,7.70372183 L8.27308704,0.00560862534" id="Stroke-97" stroke="#545E65" stroke-width="2"></path>
                    <path d="M7.16998671,7.70372183 L7.16998671,0.00560862534" id="Stroke-99" stroke="#F7F7F7" stroke-width="2"></path>
                    <path d="M16.5461741,8.25364205 C16.5461741,9.16476873 15.8055163,9.90323774 14.891689,9.90323774 C13.9778618,9.90323774 13.237204,9.16476873 13.237204,8.25364205 C13.237204,7.34251536 13.9778618,6.60404636 14.891689,6.60404636 C15.8055163,6.60404636 16.5461741,7.34251536 16.5461741,8.25364205" id="Fill-101" fill="#F7F7F7"></path>
                    <path d="M15.9946239,7.70372183 C15.9946239,8.61484852 15.2539661,9.35331752 14.3401389,9.35331752 C13.4263116,9.35331752 12.6856538,8.61484852 12.6856538,7.70372183 C12.6856538,6.79259515 13.4263116,6.05412615 14.3401389,6.05412615 C15.2539661,6.05412615 15.9946239,6.79259515 15.9946239,7.70372183" id="Fill-103" fill="#545E65"></path>
                    <path d="M14.891689,7.70372183 L14.891689,0.00560862534" id="Stroke-105" stroke="#545E65" stroke-width="2"></path>
                    <path d="M13.7885887,7.70372183 L13.7885887,0.00560862534" id="Stroke-107" stroke="#F7F7F7" stroke-width="2"></path>
                    <path d="M23.1647761,8.25364205 C23.1647761,9.16476873 22.4241183,9.90323774 21.510291,9.90323774 C20.5964638,9.90323774 19.855806,9.16476873 19.855806,8.25364205 C19.855806,7.34251536 20.5964638,6.60404636 21.510291,6.60404636 C22.4241183,6.60404636 23.1647761,7.34251536 23.1647761,8.25364205" id="Fill-109" fill="#F7F7F7"></path>
                    <path d="M22.6132259,7.70372183 C22.6132259,8.61484852 21.8725681,9.35331752 20.9587409,9.35331752 C20.0449136,9.35331752 19.3042558,8.61484852 19.3042558,7.70372183 C19.3042558,6.79259515 20.0449136,6.05412615 20.9587409,6.05412615 C21.8725681,6.05412615 22.6132259,6.79259515 22.6132259,7.70372183" id="Fill-111" fill="#545E65"></path>
                    <path d="M21.510291,7.70372183 L21.510291,0.00560862534" id="Stroke-113" stroke="#545E65" stroke-width="2"></path>
                    <path d="M20.4071907,7.70372183 L20.4071907,0.00560862534" id="Stroke-115" stroke="#F7F7F7" stroke-width="2"></path>
                    <path d="M29.7833781,8.25364205 C29.7833781,9.16476873 29.0427203,9.90323774 28.128893,9.90323774 C27.2150658,9.90323774 26.474408,9.16476873 26.474408,8.25364205 C26.474408,7.34251536 27.2150658,6.60404636 28.128893,6.60404636 C29.0427203,6.60404636 29.7833781,7.34251536 29.7833781,8.25364205" id="Fill-117" fill="#F7F7F7"></path>
                    <path d="M29.2318279,7.70372183 C29.2318279,8.61484852 28.4911701,9.35331752 27.5773429,9.35331752 C26.6635156,9.35331752 25.9228578,8.61484852 25.9228578,7.70372183 C25.9228578,6.79259515 26.6635156,6.05412615 27.5773429,6.05412615 C28.4911701,6.05412615 29.2318279,6.79259515 29.2318279,7.70372183" id="Fill-119" fill="#545E65"></path>
                    <path d="M28.128893,7.70372183 L28.128893,0.00560862534" id="Stroke-121" stroke="#545E65" stroke-width="2"></path>
                    <path d="M27.0257927,7.70372183 L27.0257927,0.00560862534" id="Stroke-123" stroke="#F7F7F7" stroke-width="2"></path>
                    <path d="M36.4019801,8.25364205 C36.4019801,9.16476873 35.6613223,9.90323774 34.747495,9.90323774 C33.8336678,9.90323774 33.09301,9.16476873 33.09301,8.25364205 C33.09301,7.34251536 33.8336678,6.60404636 34.747495,6.60404636 C35.6613223,6.60404636 36.4019801,7.34251536 36.4019801,8.25364205" id="Fill-125" fill="#F7F7F7"></path>
                    <path d="M35.8504299,7.70372183 C35.8504299,8.61484852 35.1097721,9.35331752 34.1959449,9.35331752 C33.2821176,9.35331752 32.5414598,8.61484852 32.5414598,7.70372183 C32.5414598,6.79259515 33.2821176,6.05412615 34.1959449,6.05412615 C35.1097721,6.05412615 35.8504299,6.79259515 35.8504299,7.70372183" id="Fill-127" fill="#545E65"></path>
                    <path d="M34.747495,7.70372183 L34.747495,0.00560862534" id="Stroke-129" stroke="#545E65" stroke-width="2"></path>
                    <path d="M33.6443947,7.70372183 L33.6443947,0.00560862534" id="Stroke-131" stroke="#F7F7F7" stroke-width="2"></path>
                    <path d="M43.0205821,8.25364205 C43.0205821,9.16476873 42.2799243,9.90323774 41.366097,9.90323774 C40.4522698,9.90323774 39.711612,9.16476873 39.711612,8.25364205 C39.711612,7.34251536 40.4522698,6.60404636 41.366097,6.60404636 C42.2799243,6.60404636 43.0205821,7.34251536 43.0205821,8.25364205" id="Fill-133" fill="#F7F7F7"></path>
                    <path d="M42.4690319,7.70372183 C42.4690319,8.61484852 41.7283741,9.35331752 40.8145468,9.35331752 C39.9007196,9.35331752 39.1600618,8.61484852 39.1600618,7.70372183 C39.1600618,6.79259515 39.9007196,6.05412615 40.8145468,6.05412615 C41.7283741,6.05412615 42.4690319,6.79259515 42.4690319,7.70372183" id="Fill-135" fill="#545E65"></path>
                    <path d="M41.366097,7.70372183 L41.366097,0.00560862534" id="Stroke-137" stroke="#545E65" stroke-width="2"></path>
                    <path d="M40.2629967,7.70372183 L40.2629967,0.00560862534" id="Stroke-139" stroke="#F7F7F7" stroke-width="2"></path>
                    <path d="M49.6391841,8.25364205 C49.6391841,9.16476873 48.8985262,9.90323774 47.984699,9.90323774 C47.0708718,9.90323774 46.330214,9.16476873 46.330214,8.25364205 C46.330214,7.34251536 47.0708718,6.60404636 47.984699,6.60404636 C48.8985262,6.60404636 49.6391841,7.34251536 49.6391841,8.25364205" id="Fill-141" fill="#F7F7F7"></path>
                    <path d="M49.0876339,7.70372183 C49.0876339,8.61484852 48.3469761,9.35331752 47.4331488,9.35331752 C46.5193216,9.35331752 45.7786638,8.61484852 45.7786638,7.70372183 C45.7786638,6.79259515 46.5193216,6.05412615 47.4331488,6.05412615 C48.3469761,6.05412615 49.0876339,6.79259515 49.0876339,7.70372183" id="Fill-143" fill="#545E65"></path>
                    <path d="M47.984699,7.70372183 L47.984699,0.00560862534" id="Stroke-145" stroke="#545E65" stroke-width="2"></path>
                    <path d="M46.8815987,7.70372183 L46.8815987,0.00560862534" id="Stroke-147" stroke="#F7F7F7" stroke-width="2"></path>
                    <path d="M56.257786,8.25364205 C56.257786,9.16476873 55.5171282,9.90323774 54.603301,9.90323774 C53.6894738,9.90323774 52.9488159,9.16476873 52.9488159,8.25364205 C52.9488159,7.34251536 53.6894738,6.60404636 54.603301,6.60404636 C55.5171282,6.60404636 56.257786,7.34251536 56.257786,8.25364205" id="Fill-149" fill="#F7F7F7"></path>
                    <path d="M55.7062359,7.70372183 C55.7062359,8.61484852 54.9655781,9.35331752 54.0517508,9.35331752 C53.1379236,9.35331752 52.3972658,8.61484852 52.3972658,7.70372183 C52.3972658,6.79259515 53.1379236,6.05412615 54.0517508,6.05412615 C54.9655781,6.05412615 55.7062359,6.79259515 55.7062359,7.70372183" id="Fill-151" fill="#545E65"></path>
                    <path d="M54.603301,7.70372183 L54.603301,0.00560862534" id="Stroke-153" stroke="#545E65" stroke-width="2"></path>
                    <path d="M53.5002007,7.70372183 L53.5002007,0.00560862534" id="Stroke-155" stroke="#F7F7F7" stroke-width="2"></path>
                    <path d="M62.876388,8.25364205 C62.876388,9.16476873 62.1357302,9.90323774 61.221903,9.90323774 C60.3080757,9.90323774 59.5674179,9.16476873 59.5674179,8.25364205 C59.5674179,7.34251536 60.3080757,6.60404636 61.221903,6.60404636 C62.1357302,6.60404636 62.876388,7.34251536 62.876388,8.25364205" id="Fill-157" fill="#F7F7F7"></path>
                    <path d="M62.3248379,7.70372183 C62.3248379,8.61484852 61.5841801,9.35331752 60.6703528,9.35331752 C59.7565256,9.35331752 59.0158678,8.61484852 59.0158678,7.70372183 C59.0158678,6.79259515 59.7565256,6.05412615 60.6703528,6.05412615 C61.5841801,6.05412615 62.3248379,6.79259515 62.3248379,7.70372183" id="Fill-159" fill="#545E65"></path>
                    <path d="M61.221903,7.70372183 L61.221903,0.00560862534" id="Stroke-161" stroke="#545E65" stroke-width="2"></path>
                    <path d="M60.1188027,7.70372183 L60.1188027,0.00560862534" id="Stroke-163" stroke="#F7F7F7" stroke-width="2"></path>
                    <path d="M27.5773429,14.8525197 L40.8143262,14.8525197" id="Stroke-165" stroke="#545E65" stroke-width="2"></path>
                    <path d="M25.4464764,31.0297747 C25.0179648,31.0297747 24.5982771,30.8879094 24.2640711,30.6300226 C23.3899515,29.955338 22.3415595,29.5979256 21.2341575,29.5979256 C20.6308219,29.5979256 20.0396193,29.7062491 19.4793003,29.9190469 C19.2498784,30.0064755 19.0105296,30.0504647 18.7689748,30.0504647 C18.0658186,30.0504647 17.412297,29.6672086 17.0615462,29.0513596 C14.8765229,25.206152 10.768988,22.8175375 6.34213754,22.8175375 C5.13712093,22.8175375 3.9447887,22.9918447 2.79878206,23.3355105 C2.60741329,23.3921466 2.41108106,23.4212895 2.21640332,23.4212895 C1.1459515,23.4212895 0.275692359,22.5624 0.275692359,21.5061089 L0.275692359,20.6191763 L68.1095794,20.6191763 L68.1095794,26.1007827 C68.1095794,27.2994889 67.104204,28.0407073 66.1727289,28.0407073 C65.8054332,28.0407073 65.4447555,27.9285348 65.1315063,27.7168367 C62.070709,25.6465941 58.4909548,24.5523623 54.7788419,24.5523623 C49.7172206,24.5523623 44.9936658,26.5555213 41.4773336,30.1934296 C41.1238252,30.5601898 40.6418186,30.7619903 40.1217588,30.7619903 C39.7737654,30.7619903 39.4274266,30.6690631 39.1202439,30.4931062 C37.2650146,29.4302167 35.1483767,28.8682544 32.9986492,28.8682544 C30.6807156,28.8682544 28.4223435,29.5154458 26.4667422,30.7394458 C26.1628684,30.9291493 25.8099116,31.0297747 25.4464764,31.0297747" id="Fill-167" fill="#FFFFFF"></path>
                    <path d="M68.3856578,20.3445186 L0.000275747508,20.3445186 L0.000275747508,21.5063838 C0.000275747508,22.7650253 1.03212292,23.696497 2.21563123,23.696497 C2.43347176,23.696497 2.65572425,23.6651547 2.87797674,23.598621 C3.97490033,23.2698016 5.13800332,23.092745 6.34246844,23.092745 C10.8366013,23.092745 14.7538704,25.5484431 16.8219767,29.1869013 C17.2328405,29.9099741 17.9812193,30.3251224 18.7687542,30.3251224 C19.0373322,30.3251224 19.3108738,30.2767342 19.5766944,30.175559 C20.0917907,29.9803569 20.6504551,29.8731332 21.2344884,29.8731332 C22.3126611,29.8731332 23.3048007,30.2371439 24.0956445,30.8474943 C24.488309,31.1510199 24.9670066,31.3044323 25.4462558,31.3044323 C25.8516047,31.3044323 26.2569535,31.1950092 26.6126678,30.9723137 C28.4640365,29.8137477 30.6523688,29.1429121 32.9989801,29.1429121 C35.1779369,29.1429121 37.2201229,29.7219202 38.982701,30.7314728 C39.3389668,30.9354728 39.7327342,31.036648 40.1215382,31.036648 C40.6945415,31.036648 41.2570664,30.8178016 41.6762027,30.383958 C44.9862757,26.9593973 49.6315183,24.8270199 54.7786213,24.8270199 C58.5585681,24.8270199 62.0682824,25.9767881 64.9768671,27.9442059 C65.3551927,28.1998933 65.768814,28.3159148 66.1725083,28.3159148 C67.3157575,28.3159148 68.3856578,27.3910415 68.3856578,26.1010577 L68.3856578,20.3445186 Z M67.8341628,20.8943838 L67.8341628,26.1010577 C67.8341628,27.1293057 66.9716246,27.7660496 66.1725083,27.7660496 C65.8559502,27.7660496 65.5581429,27.6725725 65.2868073,27.4894674 C62.1796844,25.3878825 58.5458837,24.2771547 54.7786213,24.2771547 C49.6419967,24.2771547 44.8478505,26.3105563 41.2791262,30.0029013 C40.9774585,30.3152248 40.5660432,30.4867827 40.1215382,30.4867827 C39.8215249,30.4867827 39.5226146,30.4065024 39.2573455,30.2547396 C37.3602027,29.1676561 35.1961362,28.5930469 32.9989801,28.5930469 C30.629206,28.5930469 28.3200963,29.2550846 26.3198239,30.5065779 C26.0600698,30.6687881 25.7578505,30.7545671 25.4462558,30.7545671 C25.0789601,30.7545671 24.7188339,30.6335968 24.4331595,30.4131008 C23.5099568,29.6999256 22.4036578,29.3232679 21.2344884,29.3232679 C20.5964086,29.3232679 19.9726678,29.43709 19.3809136,29.6619849 C19.1823754,29.7373164 18.9766678,29.7752571 18.7687542,29.7752571 C18.1560432,29.7752571 17.6078571,29.4541358 17.3017774,28.9158178 C15.0671196,24.9848313 10.8680365,22.5428798 6.34246844,22.5428798 C5.10932558,22.5428798 3.8899701,22.7210361 2.71914618,23.0718501 C2.55369767,23.121338 2.3843887,23.1466318 2.21563123,23.1466318 C1.29794352,23.1466318 0.551770764,22.4109121 0.551770764,21.5063838 L0.551770764,20.8943838 L67.8341628,20.8943838 L67.8341628,20.8943838 Z" id="Fill-169" fill="#545E65"></path>
                    <path d="M11.030507,45.3627817 C11.030507,46.4256712 10.1663143,47.28731 9.10027442,47.28731 C8.03423455,47.28731 7.17004186,46.4256712 7.17004186,45.3627817 C7.17004186,44.2998922 8.03423455,43.4382534 9.10027442,43.4382534 C10.1663143,43.4382534 11.030507,44.2998922 11.030507,45.3627817" id="Fill-171" fill="#545E65"></path>
                    <path d="M25.6467794,54.986193 C24.5807395,54.986193 23.7165468,54.1245542 23.7165468,53.0616647 C23.7165468,51.9987752 24.5807395,51.1371364 25.6467794,51.1371364 C26.7128193,51.1371364 27.577012,51.9987752 27.577012,53.0616647 C27.577012,54.1245542 26.7128193,54.986193 25.6467794,54.986193 Z" id="Fill-173" fill="#FF5C47"></path>
                    <path d="M35.8502645,60.7605477 C35.8502645,61.8234372 34.9860718,62.685076 33.9200319,62.685076 C32.853992,62.685076 31.9897993,61.8234372 31.9897993,60.7605477 C31.9897993,59.6976582 32.853992,58.8360194 33.9200319,58.8360194 C34.9860718,58.8360194 35.8502645,59.6976582 35.8502645,60.7605477" id="Fill-175" fill="#C2E9F9"></path>
                    <path d="M44.1235169,53.0616647 C44.1235169,54.1245542 43.2593243,54.986193 42.1932844,54.986193 C41.1272445,54.986193 40.2630518,54.1245542 40.2630518,53.0616647 C40.2630518,51.9987752 41.1272445,51.1371364 42.1932844,51.1371364 C43.2593243,51.1371364 44.1235169,51.9987752 44.1235169,53.0616647" id="Fill-177" fill="#D8F0C8"></path>
                    <path d="M60.6700219,45.3627817 C60.6700219,46.4256712 59.8058292,47.28731 58.7397894,47.28731 C57.6737495,47.28731 56.8095568,46.4256712 56.8095568,45.3627817 C56.8095568,44.2998922 57.6737495,43.4382534 58.7397894,43.4382534 C59.8058292,43.4382534 60.6700219,44.2998922 60.6700219,45.3627817" id="Fill-179" fill="#DDE0E2"></path>
                </g>
                <g id="17" transform="translate(36.950166, 61.832884)">
                    <path d="M4.96345515,53.3253801 C2.22638538,53.3253801 0,51.1055741 0,48.376593 L0,7.69811321 C0,4.96913208 2.22638538,2.74932615 4.96345515,2.74932615 L7.16998671,2.74932615 L7.16998671,0 L13.7879269,0 L13.7879269,2.74932615 L32.541515,2.74932615 L32.541515,0 L39.1594551,0 L39.1594551,2.74932615 L41.3593688,2.74932615 C44.0964385,2.74932615 46.3228239,4.96913208 46.3228239,7.69811321 L46.3228239,48.376593 C46.3228239,51.1055741 44.0964385,53.3253801 41.3593688,53.3253801 L4.96345515,53.3253801 Z" id="Fill-181" fill="#F7F7F7"></path>
                    <path d="M4,16.8909757 L4,7.54986523 C4,7.24578976 4.24706977,7 4.55149502,7 L42.0503987,7 C42.3548239,7 42.6018937,7.24578976 42.6018937,7.54986523 L42.6018937,16.8909757 L4,16.8909757 Z" id="Fill-183" fill="#1C21AD"></path>
                    <path d="M43.8078738,18.0904367 L3,18.0904367 L3,8.19946092 C3,6.98480863 3.98717608,6 5.20598007,6 L41.6018937,6 C42.8201462,6 43.8078738,6.98480863 43.8078738,8.19946092 L43.8078738,18.0904367 L43.8078738,18.0904367 Z" id="Stroke-185" stroke="#545E65" stroke-width="2"></path>
                    <path d="M12.3089701,10.6495957 C12.3089701,11.5607224 11.5683123,12.2991914 10.654485,12.2991914 C9.74065781,12.2991914 9,11.5607224 9,10.6495957 C9,9.738469 9.74065781,9 10.654485,9 C11.5683123,9 12.3089701,9.738469 12.3089701,10.6495957" id="Fill-187" fill="#F7F7F7"></path>
                    <path d="M12.3089701,9.64959569 C12.3089701,10.5607224 11.5683123,11.2991914 10.654485,11.2991914 C9.74065781,11.2991914 9,10.5607224 9,9.64959569 C9,8.738469 9.74065781,8 10.654485,8 C11.5683123,8 12.3089701,8.738469 12.3089701,9.64959569" id="Fill-189" fill="#545E65"></path>
                    <path d="M11,9.69811321 L11,2" id="Stroke-191" stroke="#545E65" stroke-width="2"></path>
                    <path d="M10,9.69811321 L10,2" id="Stroke-193" stroke="#F7F7F7" stroke-width="2"></path>
                    <path d="M38.3089701,10.6495957 C38.3089701,11.5607224 37.5683123,12.2991914 36.654485,12.2991914 C35.7406578,12.2991914 35,11.5607224 35,10.6495957 C35,9.738469 35.7406578,9 36.654485,9 C37.5683123,9 38.3089701,9.738469 38.3089701,10.6495957" id="Fill-195" fill="#F7F7F7"></path>
                    <path d="M37.3089701,9.64959569 C37.3089701,10.5607224 36.5683123,11.2991914 35.654485,11.2991914 C34.7406578,11.2991914 34,10.5607224 34,9.64959569 C34,8.738469 34.7406578,8 35.654485,8 C36.5683123,8 37.3089701,8.738469 37.3089701,9.64959569" id="Fill-197" fill="#545E65"></path>
                    <path d="M36,9.69811321 L36,2" id="Stroke-199" stroke="#545E65" stroke-width="2"></path>
                    <path d="M35,9.69811321 L35,2" id="Stroke-201" stroke="#F7F7F7" stroke-width="2"></path>
                    <path d="M19,15 L26.7214817,15" id="Stroke-203" stroke="#545E65" stroke-width="2"></path>
                    <path d="M41.6018937,50.9875148 L5.20598007,50.9875148 C3.98772757,50.9875148 3,50.0027062 3,48.7880539 L3,18 L43.8078738,18 L43.8078738,48.7880539 C43.8078738,50.0027062 42.8201462,50.9875148 41.6018937,50.9875148" id="Fill-205" fill="#FFFFFF"></path>
                    <path d="M41.6018937,50.9875148 L5.20598007,50.9875148 C3.98772757,50.9875148 3,50.0027062 3,48.7880539 L3,18 L43.8078738,18 L43.8078738,48.7880539 C43.8078738,50.0027062 42.8201462,50.9875148 41.6018937,50.9875148 L41.6018937,50.9875148 Z" id="Stroke-207" stroke="#545E65" stroke-width="2"></path>
                    <polygon id="Fill-209" fill="#1C21AD" points="16.0569369 30.0874933 13.6347708 30.6813477 13 28.1877089 16.989515 27 19.0747176 27 19.0747176 40.9539299 16.0569369 40.9539299"></polygon>
                    <polygon id="Fill-211" fill="#1C21AD" points="29.5313555 29.6327547 23 29.6327547 23 27 33.0057741 27 33.0057741 29.2962372 26.7722259 40.8549542 23.3176611 40.8549542"></polygon>
                </g>
            </g>
        </g>
    </g>
</svg>