<?xml version="1.0" encoding="UTF-8"?>
<svg width="93px" height="112px" viewBox="0 0 93 112" version="1.1" xmlns="http://www.w3.org/2000/svg" xmlns:xlink="http://www.w3.org/1999/xlink">
    <!-- Generator: Sketch 43.1 (39012) - http://www.bohemiancoding.com/sketch -->
    <title>illustration</title>
    <desc>Created with Sketch.</desc>
    <defs></defs>
    <g id="Page-1" stroke="none" stroke-width="1" fill="none" fill-rule="evenodd">
        <g id="Concept-1---Blue-Variant" transform="translate(-318.000000, -1114.000000)">
            <g id="illustration" transform="translate(320.956667, 1113.895149)">
                <g id="main" transform="translate(0.000000, 55.566673)">
                    <path d="M17.1731723,3.23667777 L17.1731723,2.15771325 C17.1731723,0.965996936 16.2120023,-0.000215792904 15.0265057,-0.000215792904 L8.58650567,-0.000215792904 C7.401009,-0.000215792904 6.439839,0.965996936 6.439839,2.15771325 L6.439839,3.23667777" id="Fill-1" fill="#C2E9F9"></path>
                    <path d="M17.1731723,3.23667777 L17.1731723,2.15771325 C17.1731723,0.965996936 16.2120023,-0.000215792904 15.0265057,-0.000215792904 L8.58650567,-0.000215792904 C7.401009,-0.000215792904 6.439839,0.965996936 6.439839,2.15771325 L6.439839,3.23667777" id="Stroke-3" stroke="#545E65" stroke-width="2"></path>
                    <path d="M77.28,53.948226 L3.22,53.948226 C1.44148667,53.948226 0,52.4991767 0,50.7113325 L0,8.63171617 C0,6.84387196 1.44148667,5.3948226 3.22,5.3948226 L77.28,5.3948226 C79.0585133,5.3948226 80.5,6.84387196 80.5,8.63171617 L80.5,50.7113325 C80.5,52.4991767 79.0585133,53.948226 77.28,53.948226" id="Fill-21" fill="#F7F7F7"></path>
                    <path d="M5.36666667,54.4877083 C4.47902,54.4877083 3.75666667,53.7615652 3.75666667,52.8692615 L3.75666667,10.7896452 C3.75666667,9.89734155 4.47902,9.17119843 5.36666667,9.17119843 L79.4266667,9.17119843 C80.3143133,9.17119843 81.0366667,9.89734155 81.0366667,10.7896452 L81.0366667,52.8692615 C81.0366667,53.7615652 80.3143133,54.4877083 79.4266667,54.4877083 L5.36666667,54.4877083 Z" id="Fill-23" fill="#C2E9F9"></path>
                    <path d="M77.28,53.948226 L3.22,53.948226 C1.44148667,53.948226 0,52.4991767 0,50.7113325 L0,8.63171617 C0,6.84387196 1.44148667,5.3948226 3.22,5.3948226 L77.28,5.3948226 C79.0585133,5.3948226 80.5,6.84387196 80.5,8.63171617 L80.5,50.7113325 C80.5,52.4991767 79.0585133,53.948226 77.28,53.948226 L77.28,53.948226 Z" id="Stroke-25" stroke="#545E65" stroke-width="4"></path>
                    <path d="M15.0265593,17.2632705 L9.65989267,17.2632705 C8.178156,17.2632705 6.97655933,16.0553697 6.97655933,14.5658592 L6.97655933,14.5658592 C6.97655933,13.0763487 8.178156,11.8684479 9.65989267,11.8684479 L15.0265593,11.8684479 C16.508296,11.8684479 17.7098927,13.0763487 17.7098927,14.5658592 L17.7098927,14.5658592 C17.7098927,16.0553697 16.508296,17.2632705 15.0265593,17.2632705" id="Fill-27" fill="#545E65"></path>
                    <polygon id="Fill-29" fill="#1C21AD" points="79.4266667 39.382205 3.75666667 39.382205 3.75666667 19.9608436 79.4266667 19.9608436"></polygon>
                </g>
                <g id="lens" transform="translate(39.713333, 69.053729)">
                    <path d="M18.2466667,34.5268647 C9.35517333,34.5268647 2.14666667,27.2805389 2.14666667,18.3423969 C2.14666667,9.40371528 9.35517333,2.15792904 18.2466667,2.15792904 C27.13816,2.15792904 34.3466667,9.40371528 34.3466667,18.3423969 C34.3466667,27.2805389 27.13816,34.5268647 18.2466667,34.5268647" id="Fill-31" fill="#545E65"></path>
                    <path d="M16.1,32.3689356 C7.20850667,32.3689356 0,25.1226099 0,16.1844678 C0,7.24578624 7.20850667,0 16.1,0 C24.9914933,0 32.2,7.24578624 32.2,16.1844678 C32.2,25.1226099 24.9914933,32.3689356 16.1,32.3689356" id="Fill-32" fill="#C2E9F9"></path>
                    <path d="M26.360208,3.71244718 C28.6668013,6.51289959 30.053548,10.1069304 30.053548,14.0268085 C30.053548,22.9649506 22.8450413,30.2112763 13.953548,30.2112763 C10.054128,30.2112763 6.47885467,28.8172542 3.693018,26.4985594 C6.64629467,30.0839585 11.1076047,32.3692054 16.1002147,32.3692054 C24.991708,32.3692054 32.2002147,25.1228796 32.2002147,16.1847376 C32.2002147,11.1659341 29.9268947,6.68121805 26.360208,3.71244718" id="Fill-33" fill="#F7F7F7"></path>
                    <path d="M16.1,24.2767017 C11.6542533,24.2767017 8.05,20.6535389 8.05,16.1844678 C8.05,11.7153968 11.6542533,8.09223391 16.1,8.09223391 C20.5457467,8.09223391 24.15,11.7153968 24.15,16.1844678 C24.15,20.6535389 20.5457467,24.2767017 16.1,24.2767017" id="Fill-34" fill="#545E65"></path>
                    <path d="M16.1,32.3689356 C7.20850667,32.3689356 0,25.1226099 0,16.1844678 C0,7.24578624 7.20850667,0 16.1,0 C24.9914933,0 32.2,7.24578624 32.2,16.1844678 C32.2,25.1226099 24.9914933,32.3689356 16.1,32.3689356 L16.1,32.3689356 Z" id="Stroke-35" stroke="#545E65" stroke-width="2"></path>
                </g>
                <g id="flash" transform="translate(39.176667, 27.513595)">
                    <polyline id="Fill-9" fill="#C2E9F9" points="30.4569067 27.3783471 30.4569067 16.5881624 4.29279667 16.7224935 4.29279667 27.5132176"></polyline>
                    <polyline id="Stroke-11" stroke="#545E65" stroke-width="2" points="2.68247467 16.7227093 2.68247467 27.512894 30.4571213 27.3785629 30.4571213 16.5878387"></polyline>
                    <polygon id="Fill-13" fill="#F7F7F7" points="3.75559333 3.76121637 29.3835733 3.65116199 29.3835733 13.3629216 3.75559333 13.472976"></polygon>
                    <polygon id="Stroke-15" stroke="#545E65" stroke-width="2" points="3.75559333 3.76121637 29.3835733 3.65116199 29.3835733 13.3629216 3.75559333 13.472976"></polygon>
                    <path d="M29.3835733,13.3628137 L3.75559333,13.4728681 L3.75559333,3.76110848 L29.3835733,3.65105409 L29.3835733,13.3628137 Z M30.44993,0.409305191 L2.67474667,0.529070253 C1.49247,0.533386111 0.535593333,1.49798039 0.535593333,2.68699929 L0.535593333,14.556688 C0.535593333,15.7516412 1.50105667,16.7189329 2.68977333,16.714617 L30.46442,16.594852 C31.6472333,16.5910756 32.6035733,15.6259418 32.6035733,14.4369229 L32.6035733,2.56723423 C32.6035733,1.37282051 31.63811,0.405528815 30.44993,0.409305191 L30.44993,0.409305191 Z" id="Fill-17" fill="#F7F7F7"></path>
                    <path d="M3.219034,3.2265355 L3.219034,15.0962242 L30.9936807,14.9764591 L30.9936807,3.10677044 L3.219034,3.2265355 Z M3.21849733,16.1751887 C2.626554,16.1751887 2.14570067,15.6907336 2.14570067,15.0962242 L2.14570067,3.2265355 C2.14570067,2.6336445 2.62601733,2.14972891 3.21527733,2.14757098 L30.9909973,2.02780592 C31.585624,2.02780592 32.067014,2.51226099 32.067014,3.10677044 L32.067014,14.9764591 C32.067014,15.5693501 31.5866973,16.0532657 30.9974373,16.0554237 L3.21849733,16.1751887 Z" id="Fill-19" fill="#C2E9F9"></path>
                    <path d="M29.3835733,13.3628137 L3.75559333,13.4728681 L3.75559333,3.76110848 L29.3835733,3.65105409 L29.3835733,13.3628137 L29.3835733,13.3628137 Z M30.44993,0.409305191 L2.67474667,0.529070253 C1.49247,0.533386111 0.535593333,1.49798039 0.535593333,2.68699929 L0.535593333,14.556688 C0.535593333,15.7516412 1.50105667,16.7189329 2.68977333,16.714617 L30.46442,16.594852 C31.6472333,16.5910756 32.6035733,15.6259418 32.6035733,14.4369229 L32.6035733,2.56723423 C32.6035733,1.37282051 31.63811,0.405528815 30.44993,0.409305191 L30.44993,0.409305191 Z" id="Stroke-36" stroke="#545E65" stroke-width="2"></path>
                    <path d="M3.75559333,8.56201506 L29.3835733,8.56201506" id="Stroke-37" stroke="#545E65" stroke-width="2"></path>
                    <polyline id="Fill-5" fill="#C2E9F9" points="24.6866667 31.2897553 24.6866667 27.5133795 8.58666667 27.5133795 8.58666667 31.2897553"></polyline>
                    <polyline id="Stroke-7" stroke="#545E65" stroke-width="2" points="24.6866667 31.2897553 24.6866667 27.5133795 8.58666667 27.5133795 8.58666667 31.2897553"></polyline>
                </g>
                <path d="M69.2389623,13.7377539 C67.7572257,13.7377539 66.555629,12.5298531 66.555629,11.0403426 C66.555629,12.5298531 65.3540323,13.7377539 63.8722957,13.7377539 C65.3540323,13.7377539 66.555629,14.9456547 66.555629,16.4351652 C66.555629,14.9456547 67.7572257,13.7377539 69.2389623,13.7377539" id="Fill-38" fill="#FF5C47"></path>
                <path d="M89.8533487,3.43364274 C88.0748353,3.43364274 86.6333487,1.98459339 86.6333487,0.19674918 C86.6333487,1.98459339 85.191862,3.43364274 83.4133487,3.43364274 C85.191862,3.43364274 86.6333487,4.88269209 86.6333487,6.67053631 C86.6333487,4.88269209 88.0748353,3.43364274 89.8533487,3.43364274" id="Fill-39" fill="#C2E9F9"></path>
                <path d="M87.12837,34.0042682 C84.16436,34.0042682 81.7617033,31.5890061 81.7617033,28.6094456 C81.7617033,31.5890061 79.3590467,34.0042682 76.3950367,34.0042682 C79.3590467,34.0042682 81.7617033,36.4195303 81.7617033,39.3990908 C81.7617033,36.4195303 84.16436,34.0042682 87.12837,34.0042682" id="Fill-40" fill="#545E65"></path>
            </g>
        </g>
    </g>
</svg>