<?xml version="1.0" encoding="UTF-8"?>
<svg width="99px" height="133px" viewBox="0 0 99 133" version="1.1" xmlns="http://www.w3.org/2000/svg" xmlns:xlink="http://www.w3.org/1999/xlink">
    <!-- Generator: Sketch 43.1 (39012) - http://www.bohemiancoding.com/sketch -->
    <title>illustration</title>
    <desc>Created with Sketch.</desc>
    <defs></defs>
    <g id="Page-1" stroke="none" stroke-width="1" fill="none" fill-rule="evenodd">
        <g id="Concept-1---Blue-Variant" transform="translate(-316.000000, -698.000000)">
            <g id="illustration" transform="translate(317.760000, 697.724324)">
                <path d="M18.721656,69.6849632 L28.800936,69.6849632" id="Stroke-1" stroke="#545E65" stroke-width="2"></path>
                <path d="M28.80144,94.1306508 L28.80144,69.6852508 L30.16152,69.6852508 C31.20624,69.6852508 32.16384,68.9792724 32.3604,67.954813 C32.62464,66.5766454 31.57416,65.3717373 30.24144,65.3717373 L13.04136,65.3717373 C11.99664,65.3717373 11.03904,66.0769968 10.84248,67.1014562 C10.57752,68.4796238 11.62872,69.6852508 12.96144,69.6852508 L14.40144,69.6852508 L14.40144,94.1306508 L0,122.886689 L0,127.200202 C0,128.788294 1.28952,130.075878 2.88,130.075878 L40.32288,130.075878 C41.91336,130.075878 43.20288,128.788294 43.20288,127.200202 L43.20288,122.886689 L28.80144,94.1306508 L28.80144,94.1306508 Z" id="Stroke-2" stroke="#545E65" stroke-width="2"></path>
                <polygon id="Fill-4" fill="#1C21AD" points="11.869488 105.615812 2.880288 123.565779 2.880288 127.199915 40.323168 127.199915 40.323168 123.565779 31.333248 105.615812"></polygon>
                <path d="M88.500744,71.1182 L96.485544,71.1182 L96.485544,46.6749568 L88.500024,46.6749568 L87.124824,49.4219459 L87.124824,27.2648649 L75.604824,27.2648649 L75.604824,55.3019838 L54.724824,55.3019838 L53.283384,55.3019838 L53.283384,52.711 C55.055304,51.9906432 56.406024,50.4356216 56.778264,48.499573 C57.105144,46.7964541 56.661624,45.058827 55.565064,43.7345784 C54.466344,42.4067351 52.847784,41.6454 51.123384,41.6454 L33.923304,41.6454 C31.118904,41.6454 28.706904,43.5994216 28.187784,46.2932108 C27.861624,47.9948919 28.304424,49.7325189 29.403144,51.0603622 C30.022344,51.8087568 30.807144,52.3767027 31.683384,52.7304108 L31.683384,55.3019838 L30.244824,55.3019838 L30.244824,63.9290108 L31.683384,63.9290108 L31.683384,67.0764378 C22.341384,71.5092919 16.595784,81.3469784 17.352504,91.6915027 C18.258984,104.110108 28.328904,114.094454 40.777704,114.917616 C41.352264,114.955719 41.931864,114.974411 42.501384,114.974411 C48.908664,114.974411 55.016424,112.563157 59.700744,108.184941 C64.773864,103.44367 67.683384,96.7462216 67.683384,89.8115297 C67.683384,80.1118757 62.045064,71.233227 53.283384,67.0764378 L53.283384,63.9290108 L54.724824,63.9290108 L54.724824,62.491173 L75.604824,62.491173 L75.604824,120.768178 L66.244104,123.884692 L66.244104,125.756757 L56.884824,125.756757 L56.884824,132.945946 L91.443384,132.945946 L91.443384,131.508108 L96.485544,131.508108 L96.485544,123.884692 L87.124824,120.769616 L87.124824,68.3719297 L88.500744,71.1182 Z" id="Fill-6" fill="#F7F7F7"></path>
                <polyline id="Fill-8" fill="#FCF9DE" points="79.204752 121.442524 79.204752 30.8594595 83.524752 30.8594595 83.524752 121.442524"></polyline>
                <polyline id="Stroke-10" stroke="#545E65" stroke-width="2" points="79.204752 121.442524 79.204752 30.8594595 83.524752 30.8594595 83.524752 121.442524"></polyline>
                <path d="M49.683312,67.5369054 L49.683312,49.5531486 L51.043392,49.5531486 C52.088112,49.5531486 53.045712,48.8478892 53.242272,47.8234297 C53.507232,46.4452622 52.456032,45.2396351 51.123312,45.2396351 L33.923232,45.2396351 C32.878512,45.2396351 31.920912,45.9448946 31.724352,46.9693541 C31.459392,48.3482405 32.510592,49.5531486 33.843312,49.5531486 L35.283312,49.5531486 L35.283312,67.5397811 C35.283312,68.6835811 34.595712,69.6994135 33.553152,70.1724622 C25.622352,73.773527 20.254752,82.0173703 20.942352,91.4301757 C21.718512,102.052922 30.370032,110.627468 41.013792,111.33057 C53.608032,112.162359 64.083312,102.208208 64.083312,89.8118892 C64.083312,81.0856514 58.891392,73.5736676 51.425712,70.1782135 C50.378112,69.7022892 49.683312,68.6857378 49.683312,67.5369054 L49.683312,67.5369054 Z" id="Stroke-12" stroke="#545E65" stroke-width="4"></path>
                <path d="M23.763312,89.8115297 C23.763312,100.11867 32.160672,108.503422 42.483312,108.503422 C52.805952,108.503422 61.203312,100.11867 61.203312,89.8115297 L23.763312,89.8115297 Z" id="Fill-14" fill="#C2E9F9"></path>
                <path d="M42.483312,89.8115297 C42.483312,89.8115297 35.412192,93.4061243 30.243312,93.4061243 C25.073712,93.4061243 23.763312,91.7964649 23.763312,89.8115297 C23.763312,87.8265946 25.073712,86.2169351 30.243312,86.2169351 C35.412192,86.2169351 42.483312,89.8115297 42.483312,89.8115297" id="Fill-16" fill="#C2E9F9"></path>
                <path d="M42.483312,89.8115297 C42.483312,89.8115297 49.554432,93.4061243 54.723312,93.4061243 C59.892912,93.4061243 61.203312,91.7964649 61.203312,89.8115297 C61.203312,87.8265946 59.892912,86.2169351 54.723312,86.2169351 C49.554432,86.2169351 42.483312,89.8115297 42.483312,89.8115297" id="Fill-18" fill="#ADD4E0"></path>
                <path d="M39.603744,48.8342297 L49.683024,48.8342297" id="Stroke-20" stroke="#545E65" stroke-width="2"></path>
                <path d="M33.124752,58.8965784 L51.844752,58.8965784" id="Stroke-22" stroke="#545E65" stroke-width="2"></path>
                <path d="M54.004752,58.8965784 L85.684752,58.8965784" id="Stroke-24" stroke="#545E65" stroke-width="2"></path>
                <path d="M33.124752,60.3344162 L51.844752,60.3344162" id="Stroke-26" stroke="#F7F7F7" stroke-width="2"></path>
                <path d="M78.484752,60.3344162 L85.684752,60.3344162" id="Stroke-28" stroke="#F7F7F7" stroke-width="2"></path>
                <polyline id="Stroke-30" stroke="#545E65" stroke-width="2" points="69.844176 128.632145 69.844176 126.475388 78.482016 123.599712 84.242736 123.599712 92.885616 126.475388 92.885616 128.632145"></polyline>
                <polygon id="Fill-32" fill="#DDE0E2" points="92.885184 67.523893 90.725184 67.523893 87.845184 61.7746984 87.845184 56.0226281 90.725184 50.26912 92.885184 50.26912"></polygon>
                <polygon id="Stroke-34" stroke="#545E65" stroke-width="2" points="92.885184 67.523893 90.725184 67.523893 87.845184 61.7746984 87.845184 56.0226281 90.725184 50.26912 92.885184 50.26912"></polygon>
                <path d="M88.563312,129.351136 L59.764752,129.351136" id="Stroke-36" stroke="#545E65" stroke-width="2"></path>
                <path d="M87.844968,58.8876638 L92.885688,58.8876638" id="Stroke-38" stroke="#545E65" stroke-width="2"></path>
                <path d="M38.886912,27.2641459 C38.886912,28.0585514 38.242512,28.7019838 37.446912,28.7019838 C36.651312,28.7019838 36.006912,28.0585514 36.006912,27.2641459 C36.006912,26.4697405 36.651312,25.8263081 37.446912,25.8263081 C38.242512,25.8263081 38.886912,26.4697405 38.886912,27.2641459" id="Fill-42" fill="#545E65"></path>
                <path d="M50.406912,19.3560378 C50.406912,20.1504432 49.762512,20.7938757 48.966912,20.7938757 C48.171312,20.7938757 47.526912,20.1504432 47.526912,19.3560378 C47.526912,18.5616324 48.171312,17.9182 48.966912,17.9182 C49.762512,17.9182 50.406912,18.5616324 50.406912,19.3560378" id="Fill-44" fill="#545E65"></path>
                <path d="M23.766912,2.10198378 C23.766912,2.89638919 23.122512,3.53982162 22.326912,3.53982162 C21.531312,3.53982162 20.886912,2.89638919 20.886912,2.10198378 C20.886912,1.30757838 21.531312,0.664145946 22.326912,0.664145946 C23.122512,0.664145946 23.766912,1.30757838 23.766912,2.10198378" id="Fill-46" fill="#545E65"></path>
            </g>
        </g>
    </g>
</svg>