<?xml version="1.0" encoding="UTF-8"?>
<svg width="283px" height="371px" viewBox="0 0 283 371" version="1.1" xmlns="http://www.w3.org/2000/svg" xmlns:xlink="http://www.w3.org/1999/xlink">
    <!-- Generator: Sketch 43.1 (39012) - http://www.bohemiancoding.com/sketch -->
    <title>Group 2</title>
    <desc>Created with Sketch.</desc>
    <defs></defs>
    <g id="Page-1" stroke="none" stroke-width="1" fill="none" fill-rule="evenodd" opacity="0.189311594">
        <g id="Concept-1---Blue-Variant" transform="translate(-712.000000, -101.000000)" fill-rule="nonzero" fill="#263238">
            <g id="Group-2" transform="translate(712.000000, 101.000000)">
                <g id="Cocktail-Copy-2" transform="translate(82.000000, 100.000000)">
                    <path d="M27.7916667,0 L22.9583333,0 C22.5704583,0 22.2405833,0.194541667 22.0206667,0.4785 L22.0049583,0.466416667 L16.7281667,7.25 L9.66666667,7.25 C9.66666667,4.58079167 7.50254167,2.41666667 4.83333333,2.41666667 C2.164125,2.41666667 0,4.58079167 0,7.25 C0,7.91820833 0.541333333,8.45833333 1.20833333,8.45833333 L3.625,8.45833333 C3.625,8.79183333 3.76033333,9.09391667 3.97904167,9.312625 L13.2916667,18.62525 L13.2916667,26.5833333 L9.66666667,26.5833333 C8.99966667,26.5833333 8.45833333,27.1234583 8.45833333,27.7916667 C8.45833333,28.4586667 8.99966667,29 9.66666667,29 L19.3333333,29 C20.0003333,29 20.5416667,28.4586667 20.5416667,27.7916667 C20.5416667,27.1234583 20.0003333,26.5833333 19.3333333,26.5833333 L15.7083333,26.5833333 L15.7083333,18.62525 L25.0209583,9.312625 C25.0209583,9.312625 25.375,9.11808333 25.375,8.45833333 C25.375,7.790125 24.8336667,7.25 24.1666667,7.25 L19.7900833,7.25 L23.5492083,2.41666667 L27.7916667,2.41666667 C28.4586667,2.41666667 29,1.87654167 29,1.20833333 C29,0.540125 28.4586667,0 27.7916667,0 Z M4.83333333,7.25 C4.83333333,6.58179167 4.292,6.04166667 3.625,6.04166667 L2.75258333,6.04166667 L2.75258333,6.04166667 C3.17066667,5.3215 3.94158333,4.83333333 4.83333333,4.83333333 C6.16733333,4.83333333 7.25,5.916 7.25,7.25 L4.83333333,7.25 Z M21.24975,9.66666667 L14.5,16.4164167 L7.75025,9.66666667 L14.8492083,9.66666667 L13.5454167,11.3414167 L13.561125,11.3535 C13.401625,11.5577083 13.2916667,11.8042083 13.2916667,12.0833333 C13.2916667,12.7515417 13.833,13.2916667 14.5,13.2916667 C14.887875,13.2916667 15.21775,13.097125 15.4376667,12.8131667 L15.453375,12.8264583 L17.9099167,9.66666667 L21.24975,9.66666667 Z" id="Shape"></path>
                </g>
                <g id="Cocktail-Copy-3" transform="translate(244.000000, 255.000000)">
                    <path d="M27.7916667,0 L22.9583333,0 C22.5704583,0 22.2405833,0.194541667 22.0206667,0.4785 L22.0049583,0.466416667 L16.7281667,7.25 L9.66666667,7.25 C9.66666667,4.58079167 7.50254167,2.41666667 4.83333333,2.41666667 C2.164125,2.41666667 0,4.58079167 0,7.25 C0,7.91820833 0.541333333,8.45833333 1.20833333,8.45833333 L3.625,8.45833333 C3.625,8.79183333 3.76033333,9.09391667 3.97904167,9.312625 L13.2916667,18.62525 L13.2916667,26.5833333 L9.66666667,26.5833333 C8.99966667,26.5833333 8.45833333,27.1234583 8.45833333,27.7916667 C8.45833333,28.4586667 8.99966667,29 9.66666667,29 L19.3333333,29 C20.0003333,29 20.5416667,28.4586667 20.5416667,27.7916667 C20.5416667,27.1234583 20.0003333,26.5833333 19.3333333,26.5833333 L15.7083333,26.5833333 L15.7083333,18.62525 L25.0209583,9.312625 C25.0209583,9.312625 25.375,9.11808333 25.375,8.45833333 C25.375,7.790125 24.8336667,7.25 24.1666667,7.25 L19.7900833,7.25 L23.5492083,2.41666667 L27.7916667,2.41666667 C28.4586667,2.41666667 29,1.87654167 29,1.20833333 C29,0.540125 28.4586667,0 27.7916667,0 Z M4.83333333,7.25 C4.83333333,6.58179167 4.292,6.04166667 3.625,6.04166667 L2.75258333,6.04166667 L2.75258333,6.04166667 C3.17066667,5.3215 3.94158333,4.83333333 4.83333333,4.83333333 C6.16733333,4.83333333 7.25,5.916 7.25,7.25 L4.83333333,7.25 Z M21.24975,9.66666667 L14.5,16.4164167 L7.75025,9.66666667 L14.8492083,9.66666667 L13.5454167,11.3414167 L13.561125,11.3535 C13.401625,11.5577083 13.2916667,11.8042083 13.2916667,12.0833333 C13.2916667,12.7515417 13.833,13.2916667 14.5,13.2916667 C14.887875,13.2916667 15.21775,13.097125 15.4376667,12.8131667 L15.453375,12.8264583 L17.9099167,9.66666667 L21.24975,9.66666667 Z" id="Shape"></path>
                </g>
                <g id="Citrus-Copy-2" transform="translate(225.000000, 357.000000)">
                    <path d="M23,0.5 L1,0.5 C0.447,0.5 0,0.947 0,1.5 C0,8.127 5.372,13.5 12,13.5 C18.627,13.5 24,8.127 24,1.5 C24,0.947 23.553,0.5 23,0.5 Z M2.051,2.5 L9.586,2.5 L4.262,7.824 C3.05,6.343 2.25,4.511 2.051,2.5 Z M11,11.449 C8.989,11.249 7.157,10.45 5.676,9.238 L11,3.914 L11,11.449 Z M13,11.449 L13,3.914 L18.324,9.238 C16.843,10.45 15.011,11.249 13,11.449 Z M19.738,7.824 L14.414,2.5 L21.949,2.5 C21.75,4.511 20.95,6.343 19.738,7.824 Z" id="Shape"></path>
                </g>
                <g id="Citrus-Copy" transform="translate(99.000000, 11.000000)">
                    <path d="M23,0.5 L1,0.5 C0.447,0.5 0,0.947 0,1.5 C0,8.127 5.372,13.5 12,13.5 C18.627,13.5 24,8.127 24,1.5 C24,0.947 23.553,0.5 23,0.5 Z M2.051,2.5 L9.586,2.5 L4.262,7.824 C3.05,6.343 2.25,4.511 2.051,2.5 Z M11,11.449 C8.989,11.249 7.157,10.45 5.676,9.238 L11,3.914 L11,11.449 Z M13,11.449 L13,3.914 L18.324,9.238 C16.843,10.45 15.011,11.249 13,11.449 Z M19.738,7.824 L14.414,2.5 L21.949,2.5 C21.75,4.511 20.95,6.343 19.738,7.824 Z" id="Shape"></path>
                </g>
                <g id="Margarita-glass-Copy" transform="translate(60.000000, 252.000000)">
                    <path d="M22,1 C22,0.447 21.552,0 21,0 L1,0 C0.448,0 0,0.447 0,1 C0,5.694 4.394,9.545 10,9.959 L10,22 L5,22 C4.448,22 4,22.447 4,23 C4,23.553 4.448,24 5,24 L17,24 C17.552,24 18,23.553 18,23 C18,22.447 17.552,22 17,22 L12,22 L12,9.959 C17.606,9.545 22,5.694 22,1 Z M11,8 C6.467,8 2.728,5.391 2.102,2 L19.897,2 C19.272,5.391 15.533,8 11,8 Z" id="Shape"></path>
                </g>
                <g id="Martini" transform="translate(216.000000, 172.000000)">
                    <path d="M17,0 L1,0 C0.447,0 0,0.447 0,1 C0,1.276 0.112,1.526 0.293,1.707 L8,9.414 L8,22 L5,22 C4.447,22 4,22.447 4,23 C4,23.553 4.447,24 5,24 L13,24 C13.553,24 14,23.553 14,23 C14,22.447 13.553,22 13,22 L10,22 L10,9.414 L17.707,1.707 C17.707,1.707 18,1.546 18,1 C18,0.447 17.553,0 17,0 Z M9,7.586 L3.414,2 L14.586,2 L9,7.586 Z" id="Shape"></path>
                </g>
                <g id="Pint-Copy" transform="translate(204.000000, 0.000000)">
                    <path d="M7.5,27 C8.3295,27 9,26.3295 9,25.5 L9,10.5 C9,9.6705 8.3295,9 7.5,9 C6.6705,9 6,9.6705 6,10.5 L6,25.5 C6,26.3295 6.6705,27 7.5,27 Z M13.5,27 C14.3295,27 15,26.3295 15,25.5 L15,10.5 C15,9.6705 14.3295,9 13.5,9 C12.6705,9 12,9.6705 12,10.5 L12,25.5 C12,26.3295 12.6705,27 13.5,27 Z M25.5,6 L21,6 L21,1.5 C21,0.6705 20.3295,0 19.5,0 L1.5,0 C0.6705,0 0,0.6705 0,1.5 L0,34.5 C0,35.3295 0.6705,36 1.5,36 L19.5,36 C20.3295,36 21,35.3295 21,34.5 L21,28.5 L25.5,28.5 C27.9855,28.5 30,26.4855 30,24 L30,10.5 C30,8.0145 27.9855,6 25.5,6 Z M18,33 L3,33 L3,3 L18,3 L18,33 Z M27,24 C27,24.8295 26.3295,25.5 25.5,25.5 L21,25.5 L21,9 L25.5,9 C26.3295,9 27,9.6705 27,10.5 L27,24 Z" id="Shape"></path>
                </g>
                <g id="Rocks-glass-Copy" transform="translate(85.000000, 334.000000)">
                    <path d="M24,1 C24,0.447 23.552,0 23,0 L1,0 C0.447,0 0,0.447 0,1 C0,1.047 0.021,1.087 0.026,1.133 L0.009,1.135 L3.009,23.135 L3.027,23.133 C3.095,23.619 3.495,24 4,24 L20,24 C20.505,24 20.905,23.619 20.973,23.133 L20.992,23.135 L23.992,1.135 L23.973,1.133 C23.979,1.087 24,1.047 24,1 Z M4.873,22 L3.236,10 L4,10 C5.657,10 7,11.343 7,13 L7.9,22 L4.873,22 Z M14.1,22 L9.9,22 L9,13 C9,11.343 10.343,10 12,10 C13.657,10 15,11.343 15,13 L14.1,22 Z M19.127,22 L16.1,22 L17,13 C17,11.343 18.343,10 20,10 L20.764,10 L19.127,22 Z M21.036,8 L20,8 C18.361,8 16.912,8.791 16,10.009 C15.088,8.791 13.639,8 12,8 C10.361,8 8.912,8.791 8,10.009 C7.088,8.791 5.639,8 4,8 L2.964,8 L2.146,2 L21.855,2 L21.036,8 Z" id="Shape"></path>
                </g>
                <g id="Wine-Copy" transform="translate(159.000000, 269.000000)">
                    <path d="M19.5,13.481 L19.5,2.16666667 C19.5,0.9685 18.5315,0 17.3333333,0 L8.66666667,0 C7.4685,0 6.5,0.9685 6.5,2.16666667 L6.5,13.481 C2.62816667,15.5306667 0,19.0363333 0,23.8333333 L0,49.8333333 C0,51.0315 0.9685,52 2.16666667,52 L23.8333333,52 C25.0315,52 26,51.0315 26,49.8333333 L26,23.8333333 C26,19.0363333 23.3718333,15.5306667 19.5,13.481 Z M21.6666667,47.6666667 L4.33333333,47.6666667 L4.33333333,41.1666667 L21.6666667,41.1666667 L21.6666667,47.6666667 Z M21.6666667,36.8333333 L4.33333333,36.8333333 L4.33333333,28.1666667 L21.6666667,28.1666667 L21.6666667,36.8333333 Z M4.33333333,23.8333333 C4.33333333,20.6765 6.14466667,18.824 8.66666667,17.3333333 C9.52466667,16.9953333 10.8333333,16.3648333 10.8333333,15.1666667 L10.8333333,4.33333333 L15.1666667,4.33333333 L15.1666667,15.1666667 C15.1666667,16.3648333 16.406,16.9281667 17.3333333,17.3333333 C19.8553333,18.824 21.6666667,20.6765 21.6666667,23.8333333 L4.33333333,23.8333333 Z" id="Shape"></path>
                </g>
                <g id="Sniffer-Copy-2" transform="translate(0.000000, 61.000000)">
                    <path d="M16.5,33 L12,33 L12,23.8815 C17.0865,23.151 21,18.7875 21,13.5 L18,0 L3,0 L0,13.5 C0,18.7875 3.9135,23.151 9,23.8815 L9,33 L4.5,33 C3.6705,33 3,33.6705 3,34.5 C3,35.328 3.6705,36 4.5,36 L16.5,36 C17.328,36 18,35.328 18,34.5 C18,33.6705 17.328,33 16.5,33 Z M3,13.5 C3,12.6585 5.3445,3 5.3445,3 L15.564,3 C15.5625,3 18,12.7995 18,13.5 C18,17.643 14.643,21 10.5,21 C6.357,21 3,17.643 3,13.5 Z" id="Shape"></path>
                </g>
                <g id="Sniffer-Copy" transform="translate(262.000000, 105.000000)">
                    <path d="M16.5,33 L12,33 L12,23.8815 C17.0865,23.151 21,18.7875 21,13.5 L18,0 L3,0 L0,13.5 C0,18.7875 3.9135,23.151 9,23.8815 L9,33 L4.5,33 C3.6705,33 3,33.6705 3,34.5 C3,35.328 3.6705,36 4.5,36 L16.5,36 C17.328,36 18,35.328 18,34.5 C18,33.6705 17.328,33 16.5,33 Z M3,13.5 C3,12.6585 5.3445,3 5.3445,3 L15.564,3 C15.5625,3 18,12.7995 18,13.5 C18,17.643 14.643,21 10.5,21 C6.357,21 3,17.643 3,13.5 Z" id="Shape"></path>
                </g>
                <g id="Pilsner" transform="translate(123.000000, 172.000000)">
                    <path d="M24,1.95833333 C24,0.875375 23.106,0 22,0 L2,0 C0.894,0 0,0.875375 0,1.95833333 L0,13.7083333 C0,19.3972917 4,29.0225 4,35.25 C4,39.5837917 3.372,42.0963333 2.816,43.504375 C2.584,44.1055833 2,44.40325 2,45.0416667 C2,46.124625 2.894,47 4,47 L20,47 C21.106,47 22,46.124625 22,45.0416667 C22,44.40325 21.478,44.1055833 21.184,43.504375 C20.628,42.0963333 20,39.5837917 20,35.25 C20,29.0225 24,19.3972917 24,13.7083333 L24,1.95833333 Z M20,13.7083333 C20,19.49325 16,28.8815 16,35.25 C16,39.13925 16.52,41.5969583 17.032,43.0833333 L6.968,43.0833333 C7.48,41.5969583 8,39.13925 8,35.25 C8,28.8815 4,19.49325 4,13.7083333 L4,11.75 L20,11.75 L20,13.7083333 Z M20,7.83333333 L4,7.83333333 L4,3.91666667 L20,3.91666667 L20,7.83333333 Z" id="Shape"></path>
                </g>
                <g id="Carafe" transform="translate(162.000000, 91.000000)">
                    <path d="M32.4583333,10.3636364 L29.0416667,10.3636364 C28.0986667,10.3636364 27.3333333,11.1357273 27.3333333,12.0909091 C27.3333333,12.369 27.413625,12.6229091 27.5297917,12.8543636 L27.5144167,12.863 L30.9310833,16.3175455 L30.9464583,16.3089091 C31.226625,16.8754545 31.790375,17.2727273 32.4583333,17.2727273 C33.4013333,17.2727273 34.1666667,16.5006364 34.1666667,15.5454545 L34.1666667,12.0909091 C34.1666667,11.1357273 33.4013333,10.3636364 32.4583333,10.3636364 Z M34.1666667,3.45454545 L31.80575,3.45454545 L32.261875,2.49072727 C32.3780417,2.25927273 32.4583333,2.00536364 32.4583333,1.72727273 C32.4583333,0.772090909 31.693,0 30.75,0 L3.41666667,0 C2.47366667,0 1.70833333,0.772090909 1.70833333,1.72727273 C1.70833333,2.68072727 2.47366667,3.45454545 3.41666667,3.45454545 C5.125,3.45454545 6.83333333,5.77427273 6.83333333,8.63636364 C6.83333333,10.0665455 5.99283333,11.3084545 5.11816667,12.0304545 C5.11816667,12.0304545 0,15.6214545 0,24.1818182 C0,33.7198182 7.64820833,38 17.0833333,38 C26.5184583,38 34.1666667,33.7198182 34.1666667,24.1818182 C37.940375,24.1818182 41,21.0882727 41,17.2727273 L41,10.3636364 C41,6.54809091 37.940375,3.45454545 34.1666667,3.45454545 Z M37.5833333,17.2727273 C37.5833333,19.1796364 36.0526667,20.7272727 34.1666667,20.7272727 L32.4583333,20.7272727 C31.5153333,20.7272727 30.75,21.4993636 30.75,22.4545455 L30.75,24.1818182 C30.75,31.8129091 24.63075,34.5454545 17.0833333,34.5454545 C9.53591667,34.5454545 3.41666667,31.8129091 3.41666667,24.1818182 C3.41666667,18.3332727 7.21429167,14.5263636 7.21429167,14.5263636 C8.225625,13.5038182 10.25,11.0217273 10.25,8.63636364 C10.25,6.68281818 9.58375,4.902 8.50408333,3.45454545 L27.9859167,3.45454545 L27.5144167,4.40972727 C27.5127083,4.40972727 27.3333333,4.61872727 27.3333333,5.18181818 C27.3333333,6.13527273 28.0986667,6.90909091 29.0416667,6.90909091 L34.1666667,6.90909091 C36.0526667,6.90909091 37.5833333,8.45672727 37.5833333,10.3636364 L37.5833333,17.2727273 Z" id="Shape"></path>
                </g>
            </g>
        </g>
    </g>
</svg>