<?xml version="1.0" encoding="UTF-8"?>
<svg width="146px" height="164px" viewBox="0 0 146 164" version="1.1" xmlns="http://www.w3.org/2000/svg" xmlns:xlink="http://www.w3.org/1999/xlink">
    <!-- Generator: Sketch 43.1 (39012) - http://www.bohemiancoding.com/sketch -->
    <title>illustration</title>
    <desc>Created with Sketch.</desc>
    <defs></defs>
    <g id="Page-1" stroke="none" stroke-width="1" fill="none" fill-rule="evenodd">
        <g id="Concept-1---a-Copy-3" transform="translate(-427.000000, -278.000000)">
            <g id="Team" transform="translate(428.000000, 278.000000)">
                <g id="illustration">
                    <path d="M31.1887059,18.0717792 L31.1887059,19.6741 C31.1887059,21.7969443 32.9128556,23.5184396 35.0389733,23.5184396 L35.0389733,23.5184396 C37.1650909,23.5184396 38.8892406,21.7969443 38.8892406,19.6741 L38.8892406,18.0717792 C38.8892406,15.9489349 37.1650909,14.2274396 35.0389733,14.2274396 L35.0389733,14.2274396 C32.9128556,14.2274396 31.1887059,15.9489349 31.1887059,18.0717792" id="Fill-1" fill="#C2E9F9"></path>
                    <path d="M97.9220021,25.3759476 L97.9220021,26.3370325 C97.9220021,27.6110467 98.956184,28.6436363 100.232163,28.6436363 L100.232163,28.6436363 C101.508141,28.6436363 102.542323,27.6110467 102.542323,26.3370325 L102.542323,25.3759476 C102.542323,24.1019335 101.508141,23.0693439 100.232163,23.0693439 C98.956184,23.0693439 97.9220021,24.1019335 97.9220021,25.3759476" id="Fill-3" fill="#FF5C47"></path>
                    <path d="M85.0816684,2.98266934 L85.0816684,3.94375425 C85.0816684,5.2177684 86.1158503,6.25035802 87.3918289,6.25035802 L87.3918289,6.25035802 C88.6678075,6.25035802 89.7019893,5.2177684 89.7019893,3.94375425 L89.7019893,2.98266934 C89.7019893,1.70865519 88.6678075,0.676065566 87.3918289,0.676065566 L87.3918289,0.676065566 C86.1158503,0.676065566 85.0816684,1.70865519 85.0816684,2.98266934" id="Fill-5" fill="#545E65"></path>
                    <g id="notebook" transform="translate(36.962567, 113.023585)">
                        <path d="M66.614862,0.387201887 L3.47047701,0.387201887 C1.76942888,0.387201887 0.390263102,1.76424434 0.390263102,3.46267358 L0.390263102,40.3691028 C0.390263102,42.0675321 1.76942888,43.4445745 3.47047701,43.4445745 L66.614862,43.4445745 C68.3159102,43.4445745 69.6950759,42.0675321 69.6950759,40.3691028 L69.6950759,3.46267358 C69.6950759,1.76424434 68.3159102,0.387201887 66.614862,0.387201887" id="Fill-7" fill="#F7F7F7"></path>
                        <path d="M5.01050695,43.4438825 C4.16113797,43.4438825 3.4704,42.754208 3.4704,41.9061467 L3.4704,5.00048632 C3.4704,4.152425 4.16113797,3.46275047 5.01050695,3.46275047 L68.154892,3.46275047 C69.004261,3.46275047 69.6949989,4.152425 69.6949989,5.00048632 L69.6949989,41.9061467 C69.6949989,42.754208 69.004261,43.4438825 68.154892,43.4438825 L5.01050695,43.4438825 Z" id="Fill-9" fill="#DDE0E2"></path>
                        <path d="M0.390263102,45.7511014 L0.390263102,48.0538608 C0.390263102,48.9034599 1.07946096,49.5915967 1.93037005,49.5915967 L68.154969,49.5915967 C69.0058781,49.5915967 69.6950759,48.9034599 69.6950759,48.0538608 L69.6950759,45.7511014" id="Fill-11" fill="#F7F7F7"></path>
                        <path d="M0.390263102,45.7511014 L0.390263102,48.0538608 C0.390263102,48.9034599 1.07946096,49.5915967 1.93037005,49.5915967 L68.154969,49.5915967 C69.0058781,49.5915967 69.6950759,48.9034599 69.6950759,48.0538608 L69.6950759,45.7511014" id="Stroke-13" stroke="#545E65"></path>
                        <path d="M66.614862,0.387201887 L3.47047701,0.387201887 C1.76942888,0.387201887 0.390263102,1.76424434 0.390263102,3.46267358 L0.390263102,40.3691028 C0.390263102,42.0675321 1.76942888,43.4445745 3.47047701,43.4445745 L66.614862,43.4445745 C68.3159102,43.4445745 69.6950759,42.0675321 69.6950759,40.3691028 L69.6950759,3.46267358 C69.6950759,1.76424434 68.3159102,0.387201887 66.614862,0.387201887 L66.614862,0.387201887 Z" id="Stroke-15" stroke="#545E65" stroke-width="2"></path>
                        <path d="M38.8930139,21.9157344 C38.8930139,24.0385788 37.1688642,25.7600741 35.0427465,25.7600741 C32.9158588,25.7600741 31.1924791,24.0385788 31.1924791,21.9157344 C31.1924791,19.7928901 32.9158588,18.0713948 35.0427465,18.0713948 C37.1688642,18.0713948 38.8930139,19.7928901 38.8930139,21.9157344" id="Fill-17" fill="#545E65"></path>
                    </g>
                    <g id="persone" transform="translate(104.727273, 48.438679)">
                        <path d="M5.77409198,13.8860623 C5.77409198,6.24274623 11.9799529,0.0464396226 19.6350545,0.0464396226 C27.2901561,0.0464396226 33.4960171,6.24274623 33.4960171,13.8860623" id="Fill-19" fill="#545E65"></path>
                        <path d="M5.77409198,13.8860623 C5.77409198,6.24274623 11.9799529,0.0464396226 19.6350545,0.0464396226 C27.2901561,0.0464396226 33.4960171,6.24274623 33.4960171,13.8860623" id="Stroke-21" stroke="#545E65" stroke-width="2"></path>
                        <polygon id="Fill-23" fill="#545E65" points="33.4957861 43.1027358 5.77386096 43.1027358 5.77386096 13.8857547 33.4957861 13.8857547"></polygon>
                        <polygon id="Stroke-25" stroke="#545E65" stroke-width="2" points="33.4957861 43.1027358 5.77386096 43.1027358 5.77386096 13.8857547 33.4957861 13.8857547"></polygon>
                        <path d="M0.395499465,53.4398575 C0.395499465,44.5932632 9.01470802,37.4220321 19.6468364,37.4220321 C30.2789647,37.4220321 38.8981733,44.5932632 38.8981733,53.4398575" id="Fill-26" fill="#F7F7F7"></path>
                        <path d="M0.395499465,53.4398575 C0.395499465,44.5932632 9.01470802,37.4220321 19.6468364,37.4220321 C30.2789647,37.4220321 38.8981733,44.5932632 38.8981733,53.4398575" id="Stroke-27" stroke="#545E65"></path>
                        <path d="M19.6348235,41.9279057 C19.6348235,44.0515189 17.9106738,45.7730142 15.7837861,45.7730142 C13.6568984,45.7730142 11.9327487,44.0515189 11.9327487,41.9279057 C11.9327487,39.8042925 13.6568984,38.0827972 15.7837861,38.0827972 C17.9106738,38.0827972 19.6348235,39.8042925 19.6348235,41.9279057" id="Fill-29" fill="#545E65"></path>
                        <path d="M27.3372064,41.9279057 C27.3372064,44.0515189 25.6130567,45.7730142 23.486169,45.7730142 C21.3592813,45.7730142 19.6351316,44.0515189 19.6351316,41.9279057 C19.6351316,39.8042925 21.3592813,38.0827972 23.486169,38.0827972 C25.6130567,38.0827972 27.3372064,39.8042925 27.3372064,41.9279057" id="Fill-30" fill="#545E65"></path>
                        <path d="M14.2444492,28.0884368 L14.2444492,41.1591915 C14.2444492,42.4332057 16.6577968,43.4657953 19.6348235,43.4657953 C22.6118503,43.4657953 25.0251979,42.4332057 25.0251979,41.1591915 L25.0251979,28.0884368 L14.2444492,28.0884368 Z" id="Fill-31" fill="#F7F7F7"></path>
                        <path d="M14.2444492,28.0884368 L14.2444492,41.1591915 C14.2444492,42.4332057 16.6577968,43.4657953 19.6348235,43.4657953 C22.6118503,43.4657953 25.0251979,42.4332057 25.0251979,41.1591915 L25.0251979,28.0884368 L14.2444492,28.0884368 L14.2444492,28.0884368 Z" id="Stroke-32" stroke="#545E65" stroke-width="2"></path>
                        <path d="M8.08425241,14.2482759 L8.08425241,18.8614835 C8.08425241,28.0240825 13.3298567,35.7765778 19.6350545,35.7765778 C25.9394824,35.7765778 31.1858567,28.0240825 31.1858567,18.8614835 L31.1858567,14.2482759 L8.08425241,14.2482759 Z" id="Fill-33" fill="#F7F7F7"></path>
                        <path d="M8.08425241,14.2482759 L8.08425241,18.8614835 C8.08425241,28.0240825 13.3298567,35.7765778 19.6350545,35.7765778 C25.9394824,35.7765778 31.1858567,28.0240825 31.1858567,18.8614835 L31.1858567,14.2482759 L8.08425241,14.2482759 L8.08425241,14.2482759 Z" id="Stroke-34" stroke="#545E65" stroke-width="2"></path>
                        <path d="M31.1860107,14.2482759 C31.1860107,15.5222901 26.0143316,16.5548797 19.6352086,16.5548797 C13.2560856,16.5548797 8.08440642,15.5222901 8.08440642,14.2482759 C8.08440642,12.9742618 13.2560856,11.9416722 19.6352086,11.9416722 C26.0143316,11.9416722 31.1860107,12.9742618 31.1860107,14.2482759" id="Fill-35" fill="#545E65"></path>
                        <path d="M31.1860107,14.2482759 C31.1860107,15.5222901 26.0143316,16.5548797 19.6352086,16.5548797 C13.2560856,16.5548797 8.08440642,15.5222901 8.08440642,14.2482759 C8.08440642,12.9742618 13.2560856,11.9416722 19.6352086,11.9416722 C26.0143316,11.9416722 31.1860107,12.9742618 31.1860107,14.2482759 L31.1860107,14.2482759 Z" id="Stroke-36" stroke="#545E65" stroke-width="2"></path>
                        <path d="M15.0151187,21.5530594 C15.0151187,22.614866 14.3259209,23.4752292 13.4750118,23.4752292 C12.6241027,23.4752292 11.9349048,22.614866 11.9349048,21.5530594 C11.9349048,20.4912528 12.6241027,19.6308896 13.4750118,19.6308896 C14.3259209,19.6308896 15.0151187,20.4912528 15.0151187,21.5530594" id="Fill-37" fill="#545E65"></path>
                        <path d="M27.3372064,21.5530594 C27.3372064,22.614866 26.6480086,23.4752292 25.7970995,23.4752292 C24.9461904,23.4752292 24.2569925,22.614866 24.2569925,21.5530594 C24.2569925,20.4912528 24.9461904,19.6308896 25.7970995,19.6308896 C26.6480086,19.6308896 27.3372064,20.4912528 27.3372064,21.5530594" id="Fill-38" fill="#545E65"></path>
                        <path d="M19.6352086,27.6586396 C18.3415187,26.9505123 16.8268235,27.3472481 15.7849412,28.8565358 C17.913369,32.9569085 21.3570481,32.9569085 23.4854759,28.8565358 C22.4428235,27.3472481 20.9288984,26.9505123 19.6352086,27.6586396" id="Fill-39" fill="#545E65"></path>
                    </g>
                    <g id="persone" transform="translate(46.973262, 48.438679)">
                        <path d="M53.2697583,36.1387146 C49.938507,36.1387146 47.2379294,33.4422948 47.2379294,30.1161722 C47.2379294,29.3911297 47.3726888,28.6991486 47.6075551,28.0556061 C46.9514695,27.9010637 46.2699722,27.8103373 45.5669134,27.8103373 C40.6763037,27.8103373 36.7112984,31.7692382 36.7112984,36.6523184 C36.7112984,41.5353986 40.6763037,45.4942995 45.5669134,45.4942995 C50.457523,45.4942995 54.4225283,41.5353986 54.4225283,36.6523184 C54.4225283,36.4424175 54.4055872,36.2371297 54.3909561,36.0310731 C54.0274909,36.0987335 53.6532449,36.1387146 53.2697583,36.1387146" id="Fill-40" fill="#545E65"></path>
                        <path d="M53.2697583,36.1387146 C49.938507,36.1387146 47.2379294,33.4422948 47.2379294,30.1161722 C47.2379294,29.3911297 47.3726888,28.6991486 47.6075551,28.0556061 C46.9514695,27.9010637 46.2699722,27.8103373 45.5669134,27.8103373 C40.6763037,27.8103373 36.7112984,31.7692382 36.7112984,36.6523184 C36.7112984,41.5353986 40.6763037,45.4942995 45.5669134,45.4942995 C50.457523,45.4942995 54.4225283,41.5353986 54.4225283,36.6523184 C54.4225283,36.4424175 54.4055872,36.2371297 54.3909561,36.0310731 C54.0274909,36.0987335 53.6532449,36.1387146 53.2697583,36.1387146 L53.2697583,36.1387146 Z" id="Stroke-41" stroke="#545E65" stroke-width="2"></path>
                        <path d="M27.7271615,24.0300443 C27.7271615,30.8245302 22.2112684,36.3319311 15.4063059,36.3319311 C8.60134332,36.3319311 3.08545027,30.8245302 3.08545027,24.0300443 C3.08545027,17.2355585 8.60134332,11.7281575 15.4063059,11.7281575 C22.2112684,11.7281575 27.7271615,17.2355585 27.7271615,24.0300443" id="Fill-42" fill="#545E65"></path>
                        <path d="M27.7271615,24.0300443 C27.7271615,30.8245302 22.2112684,36.3319311 15.4063059,36.3319311 C8.60134332,36.3319311 3.08545027,30.8245302 3.08545027,24.0300443 C3.08545027,17.2355585 8.60134332,11.7281575 15.4063059,11.7281575 C22.2112684,11.7281575 27.7271615,17.2355585 27.7271615,24.0300443 L27.7271615,24.0300443 Z" id="Stroke-43" stroke="#545E65" stroke-width="2"></path>
                        <path d="M14.6362524,27.105516 C14.6362524,17.8698745 22.1350332,10.3826387 31.3849155,10.3826387 C40.6347979,10.3826387 48.1335786,17.8698745 48.1335786,27.105516 C48.1335786,36.3411575 40.6347979,43.8283934 31.3849155,43.8283934 C22.1350332,43.8283934 14.6362524,36.3411575 14.6362524,27.105516" id="Fill-44" fill="#545E65"></path>
                        <path d="M14.6362524,27.105516 C14.6362524,17.8698745 22.1350332,10.3826387 31.3849155,10.3826387 C40.6347979,10.3826387 48.1335786,17.8698745 48.1335786,27.105516 C48.1335786,36.3411575 40.6347979,43.8283934 31.3849155,43.8283934 C22.1350332,43.8283934 14.6362524,36.3411575 14.6362524,27.105516 L14.6362524,27.105516 Z" id="Stroke-45" stroke="#545E65" stroke-width="2"></path>
                        <path d="M30.0373219,34.7301486 C30.0373219,27.7234552 24.3489369,22.0438278 17.3314396,22.0438278 C10.3139422,22.0438278 4.62555722,27.7234552 4.62555722,34.7301486 C4.62555722,41.736842 10.3139422,47.4164693 17.3314396,47.4164693 C24.3489369,47.4164693 30.0373219,41.736842 30.0373219,34.7301486" id="Fill-46" fill="#545E65"></path>
                        <path d="M30.0373219,34.7301486 C30.0373219,27.7234552 24.3489369,22.0438278 17.3314396,22.0438278 C10.3139422,22.0438278 4.62555722,27.7234552 4.62555722,34.7301486 C4.62555722,41.736842 10.3139422,47.4164693 17.3314396,47.4164693 C24.3489369,47.4164693 30.0373219,41.736842 30.0373219,34.7301486 L30.0373219,34.7301486 Z" id="Stroke-47" stroke="#545E65" stroke-width="2"></path>
                        <path d="M45.0533647,46.9038651 C45.0533647,40.3223557 39.7091936,34.9864123 33.1175358,34.9864123 C26.5258781,34.9864123 21.181707,40.3223557 21.181707,46.9038651 C21.181707,53.4853745 26.5258781,58.8213179 33.1175358,58.8213179 C39.7091936,58.8213179 45.0533647,53.4853745 45.0533647,46.9038651" id="Fill-48" fill="#545E65"></path>
                        <path d="M45.0533647,46.9038651 C45.0533647,40.3223557 39.7091936,34.9864123 33.1175358,34.9864123 C26.5258781,34.9864123 21.181707,40.3223557 21.181707,46.9038651 C21.181707,53.4853745 26.5258781,58.8213179 33.1175358,58.8213179 C39.7091936,58.8213179 45.0533647,53.4853745 45.0533647,46.9038651 L45.0533647,46.9038651 Z" id="Stroke-49" stroke="#545E65" stroke-width="2"></path>
                        <path d="M6.84446631,16.6539868 C6.84446631,7.48216132 14.2916535,0.0464396226 23.4776214,0.0464396226 C32.6635893,0.0464396226 40.1107765,7.48216132 40.1107765,16.6539868" id="Fill-50" fill="#545E65"></path>
                        <path d="M6.84446631,16.6539868 C6.84446631,7.48216132 14.2916535,0.0464396226 23.4776214,0.0464396226 C32.6635893,0.0464396226 40.1107765,7.48216132 40.1107765,16.6539868" id="Stroke-51" stroke="#545E65" stroke-width="2"></path>
                        <path d="M0.390109091,64.1185104 C0.390109091,53.5027509 10.7326973,44.8968123 23.4917134,44.8968123 C36.2507294,44.8968123 46.5933176,53.5027509 46.5933176,64.1185104" id="Fill-53" fill="#F7F7F7"></path>
                        <path d="M0.390109091,64.1185104 C0.390109091,53.5027509 10.7326973,44.8968123 23.4917134,44.8968123 C36.2507294,44.8968123 46.5933176,53.5027509 46.5933176,64.1185104" id="Stroke-54" stroke="#545E65"></path>
                        <path d="M33.0258225,49.3816958 C33.0258225,52.8223797 29.0993198,55.225092 23.4779294,55.225092 C17.855769,55.225092 13.9284963,52.8223797 13.9284963,49.3816958" id="Fill-56" fill="#F7F7F7"></path>
                        <path d="M33.0258225,49.3816958 C33.0258225,52.8223797 29.0993198,55.225092 23.4779294,55.225092 C17.855769,55.225092 13.9284963,52.8223797 13.9284963,49.3816958" id="Stroke-57" stroke="#545E65" stroke-width="2"></path>
                        <path d="M17.0087872,33.6967901 L17.0087872,49.3816958 C17.0087872,50.9102052 19.9049583,52.1496203 23.4772364,52.1496203 C27.0495144,52.1496203 29.9456856,50.9102052 29.9456856,49.3816958 L29.9456856,33.6967901 L17.0087872,33.6967901 Z" id="Fill-59" fill="#F7F7F7"></path>
                        <path d="M17.0087872,33.6967901 L17.0087872,49.3816958 C17.0087872,50.9102052 19.9049583,52.1496203 23.4772364,52.1496203 C27.0495144,52.1496203 29.9456856,50.9102052 29.9456856,49.3816958 L29.9456856,33.6967901 L17.0087872,33.6967901 L17.0087872,33.6967901 Z" id="Stroke-60" stroke="#545E65" stroke-width="2"></path>
                        <path d="M9.61665882,20.1644071 L9.61665882,22.5256005 C9.61665882,33.3243505 15.911846,42.4615769 23.4776214,42.4615769 C31.0433968,42.4615769 37.338584,33.3243505 37.338584,22.5256005 L37.338584,20.1644071" id="Fill-61" fill="#F7F7F7"></path>
                        <path d="M9.61665882,20.1644071 L9.61665882,22.5256005 C9.61665882,33.3243505 15.911846,42.4615769 23.4776214,42.4615769 C31.0433968,42.4615769 37.338584,33.3243505 37.338584,22.5256005 L37.338584,20.1644071" id="Stroke-62" stroke="#545E65" stroke-width="2"></path>
                        <path d="M9.61673583,20.933275 C9.61673583,17.5364165 15.8225968,14.7823316 23.4776984,14.7823316 C31.1328,14.7823316 37.338661,17.5364165 37.338661,20.933275" id="Fill-64" fill="#F7F7F7"></path>
                        <path d="M17.3176556,26.238925 C17.3176556,27.3007316 16.6284578,28.1610948 15.7775487,28.1610948 C14.9266396,28.1610948 14.2374417,27.3007316 14.2374417,26.238925 C14.2374417,25.1771184 14.9266396,24.3167552 15.7775487,24.3167552 C16.6284578,24.3167552 17.3176556,25.1771184 17.3176556,26.238925" id="Fill-67" fill="#545E65"></path>
                        <path d="M32.7178011,26.238925 C32.7178011,27.3007316 32.0286032,28.1610948 31.1776941,28.1610948 C30.326785,28.1610948 29.6375872,27.3007316 29.6375872,26.238925 C29.6375872,25.1771184 30.326785,24.3167552 31.1776941,24.3167552 C32.0286032,24.3167552 32.7178011,25.1771184 32.7178011,26.238925" id="Fill-68" fill="#545E65"></path>
                        <path d="M18.8573005,34.310808 C21.4107979,38.4111807 25.5436749,38.4111807 28.0979422,34.310808 L18.8573005,34.310808 Z" id="Fill-69" fill="#545E65"></path>
                        <path d="M19.627508,34.310808 C21.7559358,33.2859071 25.199615,33.2859071 27.3280428,34.310808 L19.627508,34.310808 Z" id="Fill-70" fill="#545E65"></path>
                        <path d="M26.4759786,0.755258962 C31.4112513,5.68293349 31.4112513,13.6722401 26.4759786,18.5999146 C21.5407059,23.5275892 13.5390802,23.5275892 8.60380749,18.5999146" id="Fill-71" fill="#545E65"></path>
                        <path d="M26.4759786,0.755258962 C31.4112513,5.68293349 31.4112513,13.6722401 26.4759786,18.5999146 C21.5407059,23.5275892 13.5390802,23.5275892 8.60380749,18.5999146" id="Stroke-72" stroke="#545E65" stroke-width="2"></path>
                        <path d="M31.8376299,8.00845142 C28.6326674,11.2084797 28.6326674,16.3975693 31.8376299,19.5975976 C35.0425925,22.7976259 40.2396834,22.7976259 43.444646,19.5975976" id="Fill-74" fill="#545E65"></path>
                        <path d="M31.8376299,8.00845142 C28.6326674,11.2084797 28.6326674,16.3975693 31.8376299,19.5975976 C35.0425925,22.7976259 40.2396834,22.7976259 43.444646,19.5975976" id="Stroke-75" stroke="#545E65" stroke-width="2"></path>
                    </g>
                    <g id="persone" transform="translate(0.000000, 52.283019)">
                        <path d="M0.385026738,50.3644627 C0.385026738,41.5178684 9.00423529,34.3466373 19.6363636,34.3466373 C30.268492,34.3466373 38.8877005,41.5178684 38.8877005,50.3644627" id="Fill-77" fill="#F7F7F7"></path>
                        <path d="M0.385026738,50.3644627 C0.385026738,41.5178684 9.00423529,34.3466373 19.6363636,34.3466373 C30.268492,34.3466373 38.8877005,41.5178684 38.8877005,50.3644627" id="Stroke-78" stroke="#545E65"></path>
                        <polygon id="Fill-80" fill="#545E65" points="11.0681326 39.6855024 19.6241968 47.1604363 28.180261 39.6855024"></polygon>
                        <polygon id="Stroke-81" stroke="#545E65" stroke-width="2" stroke-linecap="round" stroke-linejoin="round" points="11.0681326 39.6855024 19.6241968 47.1604363 28.180261 39.6855024"></polygon>
                        <path d="M19.6242738,43.957025 C13.0272257,43.957025 8.92900107,41.5020297 8.92900107,37.5500486 C8.92900107,33.5972986 13.0272257,31.1423033 19.6242738,31.1423033 C26.2213219,31.1423033 30.3195465,33.5972986 30.3195465,37.5500486 C30.3195465,41.5020297 26.2213219,43.957025 19.6242738,43.957025" id="Fill-82" fill="#F7F7F7"></path>
                        <path d="M19.6242738,43.957025 C13.0272257,43.957025 8.92900107,41.5020297 8.92900107,37.5500486 C8.92900107,33.5972986 13.0272257,31.1423033 19.6242738,31.1423033 C26.2213219,31.1423033 30.3195465,33.5972986 30.3195465,37.5500486 C30.3195465,41.5020297 26.2213219,43.957025 19.6242738,43.957025 L19.6242738,43.957025 Z" id="Stroke-83" stroke="#545E65" stroke-width="2"></path>
                        <path d="M13.2071872,26.8703193 L13.2071872,37.5498948 C13.2071872,38.7293382 16.0802567,39.685041 19.6240428,39.685041 C23.1685989,39.685041 26.0416684,38.7293382 26.0416684,37.5498948 L26.0416684,26.8703193 L13.2071872,26.8703193 Z" id="Fill-84" fill="#F7F7F7"></path>
                        <path d="M13.2071872,26.8703193 L13.2071872,37.5498948 C13.2071872,38.7293382 16.0802567,39.685041 19.6240428,39.685041 C23.1685989,39.685041 26.0416684,38.7293382 26.0416684,37.5498948 L26.0416684,26.8703193 L13.2071872,26.8703193 L13.2071872,26.8703193 Z" id="Stroke-85" stroke="#545E65" stroke-width="2"></path>
                        <path d="M12.1801668,17.7813778 C12.1801668,19.7627505 10.5715251,21.3696844 8.58632727,21.3696844 C6.60189947,21.3696844 4.99325775,18.9938825 4.99325775,17.0125099 C4.99325775,15.0311373 6.60189947,14.1930712 8.58632727,14.1930712 C10.5715251,14.1930712 12.1801668,15.8000052 12.1801668,17.7813778" id="Fill-86" fill="#F7F7F7"></path>
                        <path d="M12.1801668,17.7813778 C12.1801668,19.7627505 10.5715251,21.3696844 8.58632727,21.3696844 C6.60189947,21.3696844 4.99325775,18.9938825 4.99325775,17.0125099 C4.99325775,15.0311373 6.60189947,14.1930712 8.58632727,14.1930712 C10.5715251,14.1930712 12.1801668,15.8000052 12.1801668,17.7813778 L12.1801668,17.7813778 Z" id="Stroke-87" stroke="#545E65" stroke-width="2"></path>
                        <path d="M27.0685348,17.3969439 C27.0685348,19.3783165 28.6771765,20.9852505 30.6623743,20.9852505 C32.6468021,20.9852505 34.2554439,18.6094486 34.2554439,16.6280759 C34.2554439,14.6467033 32.6468021,13.8086373 30.6623743,13.8086373 C28.6771765,13.8086373 27.0685348,15.4155712 27.0685348,17.3969439" id="Fill-88" fill="#F7F7F7"></path>
                        <path d="M27.0685348,17.3969439 C27.0685348,19.3783165 28.6771765,20.9852505 30.6623743,20.9852505 C32.6468021,20.9852505 34.2554439,18.6094486 34.2554439,16.6280759 C34.2554439,14.6467033 32.6468021,13.8086373 30.6623743,13.8086373 C28.6771765,13.8086373 27.0685348,15.4155712 27.0685348,17.3969439 L27.0685348,17.3969439 Z" id="Stroke-89" stroke="#545E65" stroke-width="2"></path>
                        <path d="M19.6243508,0.408807075 C13.2452278,0.408807075 8.07354866,5.91620802 8.07354866,12.7106939 C8.07354866,19.5051797 13.2452278,25.0125807 19.6243508,25.0125807 C26.0034738,25.0125807 31.1751529,19.5051797 31.1751529,12.7106939 C31.1751529,5.91620802 26.0034738,0.408807075 19.6243508,0.408807075" id="Fill-90" fill="#545E65"></path>
                        <path d="M19.6243508,0.408807075 C13.2452278,0.408807075 8.07354866,5.91620802 8.07354866,12.7106939 C8.07354866,19.5051797 13.2452278,25.0125807 19.6243508,25.0125807 C26.0034738,25.0125807 31.1751529,19.5051797 31.1751529,12.7106939 C31.1751529,5.91620802 26.0034738,0.408807075 19.6243508,0.408807075 L19.6243508,0.408807075 Z" id="Stroke-91" stroke="#545E65" stroke-width="2"></path>
                        <path d="M27.4910631,7.09188396 C25.4280898,5.81171887 22.6674481,5.02209151 19.6241968,5.02209151 C16.5809455,5.02209151 13.8210738,5.81171887 11.7573305,7.09188396 C11.044261,9.61377075 10.2742075,11.7919736 8.07339465,13.4581104 L8.07339465,15.7862425 C8.07339465,24.9480726 13.319769,31.1628321 19.6241968,31.1628321 C25.9293947,31.1628321 31.1749989,24.9480726 31.1749989,15.7862425 L31.1749989,13.4581104 C28.9749561,11.7919736 28.2049027,9.61377075 27.4910631,7.09188396" id="Fill-92" fill="#F7F7F7"></path>
                        <path d="M27.4910631,7.09188396 C25.4280898,5.81171887 22.6674481,5.02209151 19.6241968,5.02209151 C16.5809455,5.02209151 13.8210738,5.81171887 11.7573305,7.09188396 C11.044261,9.61377075 10.2742075,11.7919736 8.07339465,13.4581104 L8.07339465,15.7862425 C8.07339465,24.9480726 13.319769,31.1628321 19.6241968,31.1628321 C25.9293947,31.1628321 31.1749989,24.9480726 31.1749989,15.7862425 L31.1749989,13.4581104 C28.9749561,11.7919736 28.2049027,9.61377075 27.4910631,7.09188396 L27.4910631,7.09188396 Z" id="Stroke-93" stroke="#545E65" stroke-width="2"></path>
                        <path d="M15.0228193,17.1742797 C15.0228193,18.2360863 14.3336214,19.0964495 13.4827123,19.0964495 C12.6318032,19.0964495 11.9426053,18.2360863 11.9426053,17.1742797 C11.9426053,16.1124731 12.6318032,15.2521099 13.4827123,15.2521099 C14.3336214,15.2521099 15.0228193,16.1124731 15.0228193,17.1742797" id="Fill-94" fill="#545E65"></path>
                        <path d="M27.3436749,17.1742797 C27.3436749,18.2360863 26.654477,19.0964495 25.8035679,19.0964495 C24.9526588,19.0964495 24.263461,18.2360863 24.263461,17.1742797 C24.263461,16.1124731 24.9526588,15.2521099 25.8035679,15.2521099 C26.654477,15.2521099 27.3436749,16.1124731 27.3436749,17.1742797" id="Fill-95" fill="#545E65"></path>
                        <path d="M28.4988321,26.6329698 C28.4988321,30.963234 24.5253561,34.4738849 19.6247358,34.4738849 C14.7233455,34.4738849 10.7498695,30.963234 10.7498695,26.6329698 C10.7498695,22.3027057 14.5423829,21.7875642 19.4430032,21.7875642 C24.3443936,21.7875642 28.4988321,22.3027057 28.4988321,26.6329698" id="Fill-96" fill="#545E65"></path>
                        <path d="M16.8650182,25.1077665 C18.3897241,26.7446863 20.8585155,26.7446863 22.3839914,25.1077665 L16.8650182,25.1077665 Z" id="Fill-97" fill="#F7F7F7"></path>
                        <path d="M16.8650182,25.1077665 C18.3897241,26.7446863 20.8585155,26.7446863 22.3839914,25.1077665 L16.8650182,25.1077665 L16.8650182,25.1077665 Z" id="Stroke-98" stroke="#F7F7F7" stroke-width="2" stroke-linecap="round" stroke-linejoin="round"></path>
                    </g>
                </g>
            </g>
        </g>
    </g>
</svg>