<?xml version="1.0" encoding="utf-8"?>
<!-- Generator: Adobe Illustrator 19.0.0, SVG Export Plug-In . SVG Version: 6.00 Build 0)  -->
<svg version="1.1" xmlns="http://www.w3.org/2000/svg" xmlns:xlink="http://www.w3.org/1999/xlink" x="0px" y="0px"
	 viewBox="0 0 612 127" style="enable-background:new 0 0 612 127;" xml:space="preserve">
<style type="text/css">
	.st0{display:none;}
	.st1{display:inline;}
	.st2{fill:#323C98;}
	.st3{fill:#F6F6F6;}
	.st4{fill:#555F66;}
	.st5{fill:#C2E8F7;}
	.st6{fill:#FFFFFF;}
	.st7{fill:#C2E8F7;stroke:#555F66;stroke-miterlimit:10;}
	.st8{fill:#F4FBFD;}
	.st9{fill:#F5F7F7;}
	.st10{fill:#747D82;}
</style>
<g id="crowd1r" class="st0">
	<g id="XMLID_50_" class="st1">
		<g id="Body_31_">
			<path id="XMLID_248_" class="st2" d="M435.4,47.9c0-7.2,7-13.1,15.7-13.1s15.7,5.9,15.7,13.1"/>
		</g>
		<g id="XMLID_244_">
			<path id="Neck_9_" class="st3" d="M445.9,28.7v8.7c0,1,2.1,3.2,5,3.2c2.9,0,5.5-2.2,5.5-3.2v-8.7H445.9z"/>
			<path id="XMLID_245_" class="st4" d="M450.9,40.9c-3,0-5.3-2.3-5.3-3.5v-9h11.1v9C456.6,38.6,454,40.9,450.9,40.9z M446.2,29v8.4
				c0,0.7,1.9,2.9,4.7,2.9c2.8,0,5.1-2.2,5.1-2.9V29H446.2z"/>
		</g>
		<g id="XMLID_240_">
			<path id="Left_x5F_ear_8_" class="st3" d="M445.5,21.6c0,1.6-1.3,4.1-2.9,4.1s-2.6-3.1-2.9-4.7c-0.4-1.6,1.3-2.3,2.9-2.3
				S445.5,20,445.5,21.6z"/>
			<path id="XMLID_241_" class="st4" d="M442.6,26c-1.8,0-2.8-3.1-3.2-5c-0.1-0.6,0-1.2,0.3-1.6c0.8-0.9,2.3-1.1,2.9-1.1
				c1.8,0,3.2,1.5,3.2,3.2C445.9,23.3,444.5,26,442.6,26z M442.6,19c-1.1,0-2,0.3-2.4,0.8c-0.2,0.3-0.3,0.7-0.2,1.1
				c0.2,1.1,1.1,4.5,2.6,4.5c1.4,0,2.6-2.3,2.6-3.8C445.2,20.1,444,19,442.6,19z"/>
		</g>
		<g id="XMLID_236_">
			<path id="Left_x5F_ear_7_" class="st3" d="M457.2,21.6c0,1.6,1.3,4.1,2.9,4.1s2.6-3.1,2.9-4.7s-1.3-2.3-2.9-2.3
				S457.2,20,457.2,21.6z"/>
			<path id="XMLID_237_" class="st4" d="M460.1,26c-1.9,0-3.2-2.7-3.2-4.4c0-1.8,1.5-3.2,3.2-3.2c0.6,0,2.2,0.1,2.9,1.1
				c0.4,0.4,0.5,1,0.3,1.6C462.9,22.9,461.9,26,460.1,26z M460.1,19c-1.4,0-2.6,1.2-2.6,2.6c0,1.5,1.2,3.8,2.6,3.8
				c1.5,0,2.4-3.4,2.6-4.5c0.1-0.4,0-0.8-0.2-1.1C462.1,19.3,461.2,19,460.1,19z"/>
		</g>
		<g id="XMLID_233_">
			<path id="Head_18_" class="st3" d="M457.5,12.8c-1.7-1.2-3.9-1.9-6.4-1.9c-2.5,0-4.7,0.7-6.4,1.9c-0.6,2.3-1.2,4.3-3,5.8v2.1
				c0,8.4,4.3,14,9.4,14c5.1,0,9.4-5.7,9.4-14v-2.1C458.7,17,458.1,15.1,457.5,12.8z"/>
			<path id="Head_13_" class="st4" d="M451.1,11.5c2.2,0,4.2,0.6,5.9,1.6c0.6,2.2,1.2,4.1,2.9,5.7v1.8c0,7.6-3.8,13.4-8.8,13.4
				c-5,0-8.8-5.8-8.8-13.4v-1.8c1.7-1.6,2.4-3.5,2.9-5.7C446.8,12.1,448.9,11.5,451.1,11.5 M451.1,10.9c-2.5,0-4.7,0.7-6.4,1.9
				c-0.6,2.3-1.2,4.3-3,5.8v2.1c0,8.4,4.3,14,9.4,14c5.1,0,9.4-5.7,9.4-14v-2.1c-1.8-1.5-2.4-3.5-3-5.8
				C455.8,11.6,453.6,10.9,451.1,10.9L451.1,10.9z"/>
		</g>
		<path id="Mouth_23_" class="st4" d="M453.9,27c-0.1-0.2-0.3-0.4-0.6-0.4h-4.5c-0.2,0-0.5,0.1-0.6,0.4c-0.1,0.2-0.1,0.5,0.1,0.7
			c0.7,0.8,1.7,1.2,2.7,1.2c1,0,2-0.4,2.7-1.2C454,27.5,454,27.2,453.9,27z"/>
		<g id="XMLID_228_">
			<path id="XMLID_232_" class="st5" d="M441.7,20.4c-0.3-1-0.8-1.8-0.5-2.6c0.4-1,0-2.1,0-2.4c0-0.2,0-0.8,0-1
				C442.4,4,451.9,8,451.9,8s9.7-3.6,9.1,8c0,0.2,0,0.7-0.1,1.1c0,0,0,0,0,0c0.3,0.8,0.1,2.4-0.3,3.6c-0.1,0.3-0.7-0.3-0.7-0.3
				s0.6-2.1-0.1-2c-1.2,0.2-2.3-0.7-2.4-2.7c-0.1-1.5-0.9-2.1-1.8-2.5c-2-0.8-4.8,1.6-5.6,2.6c-2.3,2.9-6,1.3-6.1,1.3L441.7,20.4z"
				/>
			<path id="XMLID_229_" class="st4" d="M460.5,21.2c-0.3,0-0.6-0.3-0.9-0.5l-0.1-0.1l0.1-0.2c0.2-0.6,0.3-1.3,0.2-1.5
				c-0.6,0.1-1.2,0-1.6-0.4c-0.7-0.5-1-1.4-1.1-2.6c-0.1-1.4-0.9-1.9-1.6-2.2c-1.8-0.7-4.5,1.6-5.2,2.5c-1.4,1.7-3.6,2.3-6.2,1.5
				l-2.6,3.4l-0.2-0.6c-0.1-0.2-0.1-0.4-0.2-0.6c-0.3-0.8-0.6-1.5-0.3-2.2c0.3-0.7,0.1-1.4,0-1.9c0-0.2-0.1-0.3-0.1-0.4
				c0-0.2,0-0.8,0-1c0.4-3.2,1.6-5.4,3.6-6.5c3-1.7,6.8-0.4,7.5-0.1c0.7-0.2,4.3-1.3,6.9,0.6c1.9,1.4,2.8,4,2.6,7.8
				c0,0.2,0,0.6-0.1,1.1c0.4,1,0.1,2.6-0.3,3.8C460.9,21.1,460.7,21.2,460.5,21.2C460.6,21.2,460.5,21.2,460.5,21.2z M460.2,20.4
				c0.1,0,0.1,0.1,0.2,0.1c0.4-1.2,0.5-2.5,0.2-3.2l0-0.1l0-0.1c0-0.4,0.1-0.9,0.1-1.1c0.2-3.6-0.6-6-2.3-7.3
				c-2.5-1.9-6.3-0.5-6.4-0.5l-0.1,0l-0.1,0c0,0-4-1.7-7,0.1c-1.8,1-2.9,3.1-3.2,6.1c0,0.2,0,0.7,0,0.9c0,0.1,0,0.2,0.1,0.3
				c0.1,0.5,0.3,1.4-0.1,2.2c-0.2,0.5,0,1.1,0.3,1.8c0,0,0,0.1,0,0.1l2-2.7c0.1-0.2,0.3-0.1,0.4-0.1c1.4,0.5,3.9,0.9,5.6-1.2
				c1-1.2,3.8-3.6,6-2.7c1.3,0.5,1.9,1.4,2,2.7c0,1,0.3,1.7,0.8,2.1c0.3,0.3,0.7,0.4,1.2,0.3c0.2,0,0.4,0,0.5,0.2
				C460.6,18.7,460.4,19.7,460.2,20.4z"/>
		</g>
		<path id="XMLID_227_" class="st4" d="M443.6,19.9"/>
		<g id="XMLID_225_">
			<path id="XMLID_226_" class="st4" d="M450.2,19.6c-2.3-0.6-4.5-0.8-7.3-0.4c-0.9,0.1-0.8,1.4,0.1,1.6c0.2,0.6,0.3,1.7,0.6,2.3
				c0.7,1.6,4,1.4,5.3,0.6c0.8-0.5,1-1.6,1.4-2.5c0.2-0.5,1.1-0.5,1.3,0c0.3,0.9,0.5,2,1.4,2.5c1.2,0.8,4.5,1,5.3-0.6
				c0.3-0.6,0.4-1.7,0.6-2.3c0.8-0.2,0.9-1.5,0.1-1.6c-2.8-0.3-5-0.2-7.3,0.4C451.3,19.7,450.6,19.7,450.2,19.6z"/>
		</g>
		<path id="XMLID_224_" class="st6" d="M446.7,47.9c0-2.6,2.1-4.8,4.8-4.8s4.8,2.1,4.8,4.8"/>
		<g id="XMLID_208_">
			<g id="XMLID_219_">
				<path id="XMLID_223_" class="st3" d="M449,37.2c-1-0.5-1.8,0-1.8,0s0,1,1,1.5c1,0.5,1.8,0,1.8,0S450,37.7,449,37.2z"/>
				<path id="XMLID_220_" class="st4" d="M449.1,39.2c-0.3,0-0.7-0.1-1-0.3c-1.1-0.6-1.2-1.7-1.2-1.7l0-0.2L447,37c0,0,1-0.6,2.1,0
					l0,0c1.1,0.6,1.2,1.7,1.2,1.7l0,0.2l-0.1,0.1C450.1,39,449.7,39.2,449.1,39.2z M447.5,37.4c0.1,0.3,0.3,0.7,0.8,1
					c0.6,0.3,1.1,0.2,1.3,0.1c-0.1-0.3-0.3-0.7-0.8-1C448.2,37.2,447.8,37.3,447.5,37.4z"/>
			</g>
			<g id="XMLID_214_">
				<circle id="XMLID_218_" class="st3" cx="448.6" cy="38" r="0.6"/>
				<path id="XMLID_215_" class="st4" d="M448.6,38.9c-0.1,0-0.3,0-0.4-0.1c-0.2-0.1-0.4-0.3-0.4-0.5c-0.1-0.2-0.1-0.5,0.1-0.7
					c0.1-0.2,0.3-0.4,0.5-0.4c0.2-0.1,0.5-0.1,0.7,0.1c0.2,0.1,0.4,0.3,0.4,0.5c0.1,0.2,0.1,0.5-0.1,0.7s-0.3,0.4-0.5,0.4
					C448.8,38.8,448.7,38.9,448.6,38.9z M448.6,37.7C448.6,37.7,448.5,37.7,448.6,37.7c-0.1,0-0.2,0.1-0.2,0.1c0,0.1,0,0.1,0,0.2
					c0,0.1,0.1,0.1,0.1,0.2c0.1,0,0.1,0,0.2,0c0.1,0,0.1-0.1,0.1-0.1l0,0c0-0.1,0-0.1,0-0.2c0-0.1-0.1-0.1-0.1-0.2
					C448.7,37.7,448.6,37.7,448.6,37.7z"/>
			</g>
			<path id="XMLID_213_" class="st4" d="M447.4,36.8c-0.1,0-0.3-0.1-0.3-0.2L447,36c-0.1-0.2,0-0.3,0.2-0.4c0.2-0.1,0.3,0,0.4,0.2
				l0.2,0.5C447.8,36.6,447.7,36.7,447.4,36.8C447.5,36.8,447.5,36.8,447.4,36.8z"/>
			<path id="XMLID_212_" class="st4" d="M448.3,36.6c-0.2,0-0.3-0.1-0.3-0.3l0-1.2c0-0.2,0.1-0.3,0.3-0.3c0,0,0,0,0,0
				c0.2,0,0.3,0.1,0.3,0.3l0,1.2C448.6,36.5,448.5,36.6,448.3,36.6C448.3,36.6,448.3,36.6,448.3,36.6z"/>
			<path id="XMLID_211_" class="st4" d="M449.3,36.9c0,0-0.1,0-0.1,0c-0.2-0.1-0.2-0.3-0.1-0.4l0.6-1.2c0.1-0.2,0.3-0.2,0.4-0.1
				c0.2,0.1,0.2,0.3,0.1,0.4l-0.6,1.2C449.5,36.8,449.4,36.9,449.3,36.9z"/>
			<path id="XMLID_210_" class="st4" d="M450.5,38.4c-0.1,0-0.3-0.1-0.3-0.2c-0.1-0.2,0-0.3,0.2-0.4l0.5-0.2c0.2-0.1,0.3,0,0.4,0.2
				c0.1,0.2,0,0.3-0.2,0.4L450.5,38.4C450.6,38.4,450.6,38.4,450.5,38.4z"/>
			<path id="XMLID_209_" class="st4" d="M450.1,37.6c-0.1,0-0.2,0-0.3-0.1c-0.1-0.1-0.1-0.3,0.1-0.4l1-0.7c0.1-0.1,0.3-0.1,0.4,0.1
				c0.1,0.1,0.1,0.3-0.1,0.4l-1,0.7C450.2,37.6,450.2,37.6,450.1,37.6z"/>
		</g>
		<g id="XMLID_198_">
			<path id="XMLID_205_" class="st4" d="M453.5,36.9c-0.4,0-0.8-0.3-0.8-0.7c0-0.2,0-0.5,0.1-0.6c0.1-0.2,0.3-0.3,0.5-0.4
				c0.2,0,0.4,0,0.6,0.1c0.2,0.1,0.3,0.3,0.4,0.5l0,0c0,0.2,0,0.4-0.1,0.6c-0.1,0.2-0.3,0.3-0.5,0.4
				C453.6,36.8,453.6,36.9,453.5,36.9z M453.5,35.8C453.5,35.8,453.5,35.8,453.5,35.8c-0.2,0-0.2,0.1-0.2,0.3c0,0.1,0.1,0.2,0.3,0.2
				c0.1,0,0.1,0,0.1-0.1c0,0,0-0.1,0-0.2l0,0c0-0.1,0-0.1-0.1-0.1C453.6,35.8,453.6,35.8,453.5,35.8z"/>
			<path id="XMLID_204_" class="st4" d="M454.7,39.2c-0.2,0-0.4-0.1-0.6-0.2c-0.2-0.2-0.4-0.4-0.4-0.6c0-0.2,0.1-0.3,0.2-0.4
				c0.2,0,0.3,0.1,0.4,0.2c0,0.1,0.1,0.2,0.2,0.2c0.1,0.1,0.2,0.1,0.3,0.1c0.3,0,0.4-0.2,0.3-0.3c0-0.2,0.1-0.3,0.2-0.4
				c0.2,0,0.3,0.1,0.4,0.2c0.1,0.3,0,0.5-0.2,0.7c-0.1,0.2-0.4,0.3-0.6,0.3C454.8,39.2,454.7,39.2,454.7,39.2z"/>
			<path id="XMLID_203_" class="st4" d="M452.5,37.2c-0.1,0-0.3-0.1-0.3-0.3c0-0.2,0.1-0.3,0.2-0.4l2.3-0.4c0.2,0,0.3,0.1,0.4,0.2
				c0,0.2-0.1,0.3-0.2,0.4L452.5,37.2C452.6,37.2,452.5,37.2,452.5,37.2z"/>
			<path id="XMLID_202_" class="st4" d="M454,38.7c-0.1,0-0.3-0.1-0.3-0.3l-0.3-1.6c0-0.2,0.1-0.3,0.2-0.4c0.2,0,0.3,0.1,0.4,0.2
				l0.3,1.6C454.3,38.5,454.2,38.6,454,38.7C454,38.7,454,38.7,454,38.7z"/>
			<path id="XMLID_201_" class="st4" d="M453.2,39.5c-0.5,0-0.8-0.3-0.9-0.7c0-0.2,0.1-0.3,0.2-0.4c0.2,0,0.3,0.1,0.4,0.2
				c0,0.2,0.2,0.2,0.4,0.2c0.2,0,0.3-0.2,0.3-0.5c0-0.2,0.1-0.3,0.2-0.4c0.2,0,0.3,0.1,0.4,0.2c0.1,0.6-0.3,1.1-0.8,1.2
				C453.4,39.5,453.3,39.5,453.2,39.5z"/>
			<path id="XMLID_200_" class="st4" d="M452.5,37.8l0.5,0.6c0.1,0.1,0,0.2-0.1,0.2l-0.8,0.1c-0.1,0-0.2-0.1-0.2-0.2l0.3-0.7
				C452.3,37.7,452.5,37.7,452.5,37.8z"/>
			<path id="XMLID_199_" class="st4" d="M455.3,37.3l0.5,0.6c0.1,0.1,0,0.2-0.1,0.2l-0.8,0.1c-0.1,0-0.2-0.1-0.2-0.2l0.3-0.7
				C455.1,37.2,455.2,37.2,455.3,37.3z"/>
		</g>
		<path id="XMLID_197_" class="st7" d="M459.1,19.6"/>
	</g>
	<g id="XMLID_72_" class="st1">
		<g id="Body_3_">
			<g id="XMLID_301_">
				<path id="XMLID_303_" class="st5" d="M491,47.6c0-6.4,6.3-11.6,14-11.6s14,5.2,14,11.6"/>
				<path id="XMLID_302_" class="st4" d="M519.2,47.6h-0.6c0-6.3-6.1-11.4-13.7-11.4c-7.5,0-13.7,5.1-13.7,11.4h-0.6
					c0-6.6,6.4-11.9,14.3-11.9C512.8,35.7,519.2,41,519.2,47.6z"/>
			</g>
			<path id="XMLID_300_" class="st4" d="M503.1,47.9c-0.1,0-0.2-0.1-0.3-0.1l-4.7-7.7c-0.1-0.1,0-0.3,0.1-0.4c0.1-0.1,0.3,0,0.4,0.1
				l4.7,7.7c0.1,0.1,0,0.3-0.1,0.4C503.3,47.9,503.2,47.9,503.1,47.9z"/>
			<path id="XMLID_299_" class="st4" d="M506.7,47.9c-0.1,0-0.1,0-0.2,0c-0.1-0.1-0.2-0.3-0.1-0.4l4.7-7.7c0.1-0.1,0.3-0.2,0.4-0.1
				c0.1,0.1,0.2,0.3,0.1,0.4l-4.7,7.7C506.9,47.8,506.8,47.9,506.7,47.9z"/>
		</g>
		<g id="Left_x5F_ear_5_">
			<g id="XMLID_295_">
				<path id="Right_x5F_ear_12_" class="st3" d="M494.9,25.3c0.2,1.5,1,2.6,1.9,2.5c0.8-0.1,1.3-2,1.1-3.5s-1-2-1.8-1.9
					C495.2,22.5,494.7,23.8,494.9,25.3z"/>
				<path id="XMLID_296_" class="st4" d="M496.7,28.1c-0.5,0-0.9-0.3-1.3-0.8c-0.4-0.5-0.7-1.2-0.8-2l0,0c-0.2-1.7,0.4-3.1,1.4-3.3
					c0.4-0.1,1.8-0.1,2.1,2.2c0.1,0.8,0.1,1.7-0.1,2.4c-0.2,0.9-0.6,1.4-1.2,1.4C496.8,28.1,496.8,28.1,496.7,28.1z M496.3,22.6
					c-0.1,0-0.1,0-0.2,0c-0.6,0.1-1.1,1.2-0.9,2.6l0,0c0.1,0.7,0.3,1.3,0.6,1.7c0.3,0.4,0.6,0.6,0.9,0.5c0.3,0,0.5-0.4,0.7-1
					c0.2-0.6,0.2-1.5,0.1-2.2C497.4,23.2,497,22.6,496.3,22.6z"/>
			</g>
			<g id="XMLID_290_">
				<polygon id="XMLID_294_" class="st3" points="495.4,27.8 495.4,28.7 496.2,29.2 497,28.7 497,27.8 496.2,27.3 				"/>
				<path id="XMLID_291_" class="st4" d="M496.2,29.5l-1.1-0.6v-1.3l1.1-0.6l1.1,0.6v1.3L496.2,29.5z M495.7,28.5l0.5,0.3l0.5-0.3
					V28l-0.5-0.3l-0.5,0.3V28.5z"/>
			</g>
		</g>
		<g id="Right_x5F_ear_1_">
			<g id="XMLID_286_">
				<path id="Right_x5F_ear_11_" class="st3" d="M514.8,25.3c-0.2,1.5-1,2.6-1.9,2.5c-0.8-0.1-1.3-2-1.1-3.5s1-2,1.8-1.9
					C514.5,22.5,515,23.8,514.8,25.3z"/>
				<path id="XMLID_287_" class="st4" d="M513,28.1c-0.1,0-0.1,0-0.2,0c-0.5-0.1-0.9-0.6-1.2-1.4c-0.2-0.7-0.3-1.6-0.1-2.4
					c0.1-0.8,0.4-1.4,0.7-1.7c0.4-0.4,0.8-0.5,1.4-0.4c1,0.1,1.6,1.6,1.4,3.3c-0.1,0.8-0.4,1.5-0.8,2
					C513.9,27.8,513.5,28.1,513,28.1z M513.4,22.6c-0.3,0-0.5,0.1-0.7,0.3c-0.3,0.3-0.5,0.8-0.6,1.4c-0.1,0.7,0,1.5,0.1,2.2
					c0.2,0.6,0.4,1,0.7,1c0.3,0,0.6-0.2,0.9-0.5c0.3-0.4,0.6-1.1,0.6-1.7l0,0c0.2-1.4-0.3-2.5-0.9-2.6
					C513.6,22.6,513.5,22.6,513.4,22.6z"/>
			</g>
			<g id="XMLID_281_">
				<polygon id="XMLID_285_" class="st3" points="512.7,27.8 512.7,28.7 513.5,29.2 514.3,28.7 514.3,27.8 513.5,27.3 				"/>
				<path id="XMLID_282_" class="st4" d="M513.5,29.5l-1.1-0.6v-1.3l1.1-0.6l1.1,0.6v1.3L513.5,29.5z M513,28.5l0.5,0.3l0.5-0.3V28
					l-0.5-0.3L513,28V28.5z"/>
			</g>
		</g>
		<g id="XMLID_277_">
			<path id="Neck_11_" class="st3" d="M501,29.2v9.5c0,0.9,1.8,1.7,3.9,1.7s3.9-0.8,3.9-1.7v-9.5H501z"/>
			<path id="XMLID_278_" class="st4" d="M504.9,40.6c-2.4,0-4.2-0.8-4.2-2v-9.8h8.4v9.8C509.1,39.8,507.3,40.6,504.9,40.6z
				 M501.3,29.5v9.2c0,0.7,1.5,1.4,3.6,1.4s3.6-0.7,3.6-1.4v-9.2H501.3z"/>
		</g>
		<g id="XMLID_104_">
			<path id="Head_19_" class="st3" d="M504.9,17.2c-4.6,0-8.4,1.7-8.4,3.7h0v1.4c0,6.5,3.8,12.1,8.4,12.1c4.6,0,8.4-5.5,8.4-12.1V21
				h0C513.3,18.9,509.6,17.2,504.9,17.2z"/>
			<path id="XMLID_167_" class="st4" d="M504.9,34.8c-4.7,0-8.7-5.7-8.7-12.4V21c0-2.3,3.8-4,8.7-4s8.7,1.8,8.7,4l0,1.4
				C513.6,29.1,509.6,34.8,504.9,34.8z M504.9,17.5c-4.4,0-8.1,1.6-8.1,3.4v1.4c0,6.4,3.7,11.8,8.1,11.8c4.4,0,8.1-5.4,8.1-11.8V21
				c0-0.9-0.8-1.7-2.3-2.4C509.2,17.9,507.1,17.5,504.9,17.5z"/>
		</g>
		<ellipse id="Left_x5F_eye_3_" class="st4" cx="500.3" cy="24.7" rx="0.9" ry="1.2"/>
		<ellipse id="Right_x5F_eye_3_" class="st4" cx="509.6" cy="24.7" rx="0.9" ry="1.2"/>
		<path id="Hair_3_" class="st2" d="M511.5,11c-0.2-0.1-0.4-0.3-0.4-0.6c0-1.1-0.4-4.1-4.6-4.5c-4.1-0.4-5.1,2.1-5.3,4.1
			c0,0.3-0.2,0.5-0.5,0.6c-3.4,0.8-7,3.5-4.8,11.9l0.5-0.3c0,0,0,0,0.1,0c0.6-0.5,1.8-1.6,4-4.2c0.1-0.2,0.4-0.2,0.6-0.1
			c1.2,0.7,5.2,4.5,11.6,4.8c0,0,0.1,0,0.1,0l0.6,0c0.3,0,0.5-0.2,0.6-0.5C514.6,20.3,516.2,13.6,511.5,11z"/>
		<path id="Lips_1_" class="st4" d="M504.9,32.1c0.4,0,0.8-0.1,1.1-0.2c0.5-0.2,0.9-0.5,1.2-0.9c0.3-0.3,0.7-0.7,0.7-0.7
			c-0.6-0.1-1.5-0.7-1.5-0.7c-0.5-0.4-1.5,0.1-1.5,0.1s-1-0.5-1.6-0.1c0,0-0.8,0.6-1.5,0.7c0,0,0.5,0.5,0.8,0.8
			c0.1,0.2,0.3,0.4,0.5,0.5C503.6,31.9,504.2,32.1,504.9,32.1z"/>
	</g>
	<g id="XMLID_47_" class="st1">
		<g id="XMLID_273_">
			<path id="Left_x5F_ear_9_" class="st3" d="M472.7,23.4c0,1.8-1.5,3.3-3.3,3.3s-3.3-2.2-3.3-4.1c0-1.8,1.5-2.6,3.3-2.6
				S472.7,21.6,472.7,23.4z"/>
			<path id="XMLID_274_" class="st4" d="M469.4,27.1c-2.1,0-3.7-2.4-3.7-4.4c0-1.9,1.4-3,3.7-3c2,0,3.7,1.7,3.7,3.7
				S471.4,27.1,469.4,27.1z M469.4,20.4c-0.9,0-3,0.2-3,2.3c0,1.7,1.4,3.7,3,3.7c1.6,0,3-1.3,3-3C472.3,21.8,471,20.4,469.4,20.4z"
				/>
		</g>
		<g id="XMLID_269_">
			<path id="Right_x5F_ear_9_" class="st3" d="M486.5,23c0,1.8,1.5,3.3,3.3,3.3s3.3-2.2,3.3-4.1c0-1.8-1.5-2.6-3.3-2.6
				S486.5,21.2,486.5,23z"/>
			<path id="XMLID_270_" class="st4" d="M489.9,26.7c-2,0-3.7-1.7-3.7-3.7s1.7-3.7,3.7-3.7c2.3,0,3.7,1.1,3.7,3
				C493.6,24.4,492,26.7,489.9,26.7z M489.9,20.1c-1.6,0-3,1.3-3,3s1.3,3,3,3c1.6,0,3-2,3-3.7C492.9,20.3,490.8,20.1,489.9,20.1z"/>
		</g>
		<g id="XMLID_264_">
			<path id="XMLID_268_" class="st3" d="M490.4,19.4v2.2c0,8.5-4.9,14.3-10.7,14.3s-10.7-5.8-10.7-14.3v-2.2l0-1.2l2-6.1l6.9-2.7
				l6.6,0.3l3.8,2.9L490.4,19.4z"/>
			<path id="XMLID_265_" class="st4" d="M479.6,36.2c-6.3,0-11.1-6.3-11.1-14.7l0-3.5l2.1-6.2l7.2-2.8l6.8,0.3l4,3l2.1,7v2.2
				C490.7,29.9,485.9,36.2,479.6,36.2z M469.3,18.3l0,1.1v2.2c0,8,4.5,14,10.4,14c5.9,0,10.4-6,10.4-14v-2.1l-2-6.7l-3.7-2.7
				l-6.4-0.3l-6.7,2.6L469.3,18.3z"/>
		</g>
		<g id="Body_11_">
			<g id="XMLID_261_">
				<path id="XMLID_263_" class="st5" d="M461.7,53.7c0-8.2,8-14.9,17.9-14.9s17.9,6.7,17.9,14.9"/>
				<path id="XMLID_262_" class="st4" d="M497.9,53.7h-0.7c0-8-7.9-14.5-17.5-14.5s-17.5,6.5-17.5,14.5h-0.7
					c0-8.4,8.2-15.3,18.2-15.3C489.7,38.5,497.9,45.3,497.9,53.7z"/>
			</g>
			<path id="XMLID_260_" class="st4" d="M488.2,43.5c-0.1-0.3-0.4-0.5-0.7-0.5h-15.9c-0.3,0-0.6,0.2-0.7,0.5c-0.1,0.3,0,0.6,0.2,0.8
				l7.9,7c0.1,0.1,0.3,0.2,0.5,0.2c0.2,0,0.3-0.1,0.5-0.2l7.9-7C488.3,44.1,488.3,43.8,488.2,43.5z"/>
			<g id="XMLID_255_">
				<path id="XMLID_259_" class="st5" d="M479.6,47.8c-6.1,0-9.9-2.3-9.9-6c0-3.7,3.8-6,9.9-6s9.9,2.3,9.9,6
					C489.6,45.5,485.8,47.8,479.6,47.8z"/>
				<path id="XMLID_256_" class="st4" d="M479.6,48.1c-6.4,0-10.3-2.4-10.3-6.3c0-3.9,3.9-6.3,10.3-6.3c6.3,0,10.3,2.4,10.3,6.3
					C489.9,45.7,486,48.1,479.6,48.1z M479.6,36.2c-5.9,0-9.6,2.1-9.6,5.6c0,3.5,3.7,5.6,9.6,5.6s9.6-2.1,9.6-5.6
					C489.2,38.3,485.5,36.2,479.6,36.2z"/>
			</g>
		</g>
		<g id="XMLID_251_">
			<path id="Neck_17_" class="st3" d="M473.7,31.9v9.9c0,1.1,2.7,2,6,2c3.3,0,6-0.9,6-2v-9.9H473.7z"/>
			<path id="XMLID_252_" class="st4" d="M479.6,44.1c-3.1,0-6.3-0.8-6.3-2.3V31.5h12.6v10.3C485.9,43.3,482.7,44.1,479.6,44.1z
				 M474,32.2v9.6c0,0.7,2.1,1.6,5.6,1.6c3.5,0,5.6-0.9,5.6-1.6v-9.6H474z"/>
		</g>
		<ellipse id="Left_x5F_eye_7_" class="st4" cx="473.9" cy="22.8" rx="1.4" ry="1.8"/>
		<path id="XMLID_250_" class="st2" d="M472.1,13.3c2-1.2,4.6-2,7.5-2s5.6,0.8,7.5,2c0.7,2.4,1.4,4.5,3.5,6.1c0-0.2,0-0.5,0-0.7
			c0-6.5-5-11.8-11.1-11.8c-6.1,0-11.1,5.3-11.1,11.8c0,0.2,0,0.5,0,0.7C470.7,17.8,471.4,15.7,472.1,13.3z"/>
		<ellipse id="Right_x5F_eye_7_" class="st4" cx="485.4" cy="22.8" rx="1.4" ry="1.8"/>
		<path id="Beard_1_" class="st2" d="M487.9,31.6c0,4-3.7,7.3-8.2,7.3s-8.2-3.3-8.2-7.3s3.5-4.5,8.1-4.5
			C484,27.1,487.9,27.6,487.9,31.6z"/>
		<path id="Mouth_9_" class="st3" d="M482.8,29.9c-0.1-0.3-0.4-0.4-0.7-0.4h-5.1c-0.3,0-0.5,0.2-0.7,0.4c-0.1,0.3-0.1,0.6,0.1,0.8
			c0.8,0.9,1.9,1.4,3.1,1.4c1.2,0,2.3-0.5,3.1-1.4C482.9,30.5,483,30.2,482.8,29.9z"/>
	</g>
</g>
<g id="crowd1l" class="st0">
	<g id="XMLID_741_" class="st1">
		<path id="Hair_7_" class="st2" d="M108,9.8c-5.5,0-10,4.5-10,10v21.2H118V19.9C118,14.3,113.5,9.8,108,9.8z"/>
		<g id="Body_22_">
			<g id="XMLID_754_">
				<path id="Body_23_" class="st5" d="M94,48.6c0-6.4,6.2-11.6,14-11.6s14,5.2,14,11.6"/>
				<path id="XMLID_755_" class="st4" d="M122.2,48.6h-0.6c0-6.2-6.1-11.3-13.7-11.3c-7.5,0-13.7,5.1-13.7,11.3h-0.6
					c0-6.6,6.4-11.9,14.3-11.9C115.8,36.7,122.2,42,122.2,48.6z"/>
			</g>
			<g id="XMLID_751_">
				<circle id="XMLID_753_" class="st4" cx="105.3" cy="40" r="3"/>
				<circle id="XMLID_752_" class="st4" cx="110.6" cy="40" r="3"/>
			</g>
		</g>
		<g id="XMLID_747_">
			<path id="Neck_25_" class="st8" d="M104.1,30.2v9.5c0,0.9,1.7,1.7,3.9,1.7c2.2,0,3.9-0.7,3.9-1.7v-9.5H104.1z"/>
			<path id="XMLID_748_" class="st4" d="M108,41.6c-2.4,0-4.2-0.8-4.2-2v-9.8h8.4v9.8C112.2,40.8,110.4,41.6,108,41.6z M104.3,30.5
				v9.2c0,0.7,1.5,1.4,3.6,1.4c2.1,0,3.6-0.7,3.6-1.4v-9.2H104.3z"/>
		</g>
		<g id="Head_29_">
			<g id="XMLID_743_">
				<path id="Head_30_" class="st6" d="M99.6,20.1v3.3c0,6.7,3.8,12.3,8.4,12.3c4.6,0,8.4-5.6,8.4-12.3v-3.3H99.6z"/>
				<path id="XMLID_744_" class="st4" d="M108,36.1c-4.7,0-8.7-5.8-8.7-12.6v-3.6h17.3v3.6C116.6,30.3,112.7,36.1,108,36.1z
					 M99.9,20.4v3.1c0,6.5,3.7,12,8.1,12c4.4,0,8.1-5.5,8.1-12v-3.1H99.9z"/>
			</g>
			<ellipse id="XMLID_742_" class="st2" cx="107.9" cy="20.1" rx="8.9" ry="1.7"/>
		</g>
		<ellipse id="Eye_x5F_Left_5_" class="st4" cx="103.5" cy="25.4" rx="1.1" ry="1.4"/>
		<ellipse id="Eye_x5F_Right_5_" class="st4" cx="112.4" cy="25.4" rx="1.1" ry="1.4"/>
		<path id="Mouth_19_" class="st4" d="M108,29.9c-0.9-0.5-2-0.2-2.8,0.9c1.5,3,4,3,5.6,0C110,29.6,108.9,29.4,108,29.9z"/>
	</g>
	<g id="XMLID_648_" class="st1">
		<g id="XMLID_736_">
			<path id="XMLID_740_" class="st5" d="M181.5,30.7c-0.2,0-0.5,0.1-0.7,0.1c-1.8,0-3.2-1.2-3.7-2.8c0.3-0.9,0.4-1.9,0.4-3
				c0-5.9-4.8-10.7-10.7-10.7c-2.3,0-4.4,0.7-6.2,2c-1.2-0.7-2.5-1.1-4-1.1c-4.3,0-7.8,3.5-7.8,7.8c0,1.6,0.5,3.1,1.4,4.4
				c-0.2,0.8-0.4,1.6-0.4,2.4c0,4.5,3.6,8.1,8.1,8.1c0.9,0,1.7-0.1,2.5-0.4c0,0,0,0,0,0.1c0,4.2,3.4,7.6,7.6,7.6s7.6-3.4,7.6-7.6
				c0-0.3,0-0.6-0.1-0.9c0.1,0,0.3,0,0.4,0c3.1,0,5.6-2.5,5.6-5.6C181.5,30.9,181.5,30.8,181.5,30.7z"/>
			<path id="XMLID_737_" class="st4" d="M167.9,45.5c-4.2,0-7.7-3.4-7.9-7.6c-0.7,0.2-1.4,0.3-2.2,0.3c-4.6,0-8.4-3.8-8.4-8.4
				c0-0.8,0.1-1.6,0.3-2.4c-0.9-1.3-1.3-2.9-1.3-4.5c0-4.5,3.7-8.2,8.2-8.2c1.4,0,2.8,0.4,4,1.1c1.8-1.3,4-1.9,6.2-1.9
				c6.1,0,11,4.9,11,11c0,1-0.1,2-0.4,3c0.5,1.5,1.8,2.5,3.4,2.5c0.2,0,0.4,0,0.7-0.1l0.3-0.1l0,0.3l-0.3,0l0.3,0c0,0.1,0,0.2,0,0.4
				c0,3.3-2.7,6-6,6c0,0,0,0,0,0c0,0.2,0,0.4,0,0.6C175.8,42,172.3,45.5,167.9,45.5z M160.6,37.1v0.4c0,4.1,3.3,7.3,7.3,7.3
				c4,0,7.3-3.3,7.3-7.3c0-0.3,0-0.5-0.1-0.9l0-0.4l0.4,0c0.1,0,0.2,0,0.3,0c2.9,0,5.3-2.4,5.3-5.3c0,0,0,0,0,0
				c-2.1,0.2-3.9-1.1-4.4-3l0-0.1l0-0.1c0.3-0.9,0.4-1.9,0.4-2.9c0-5.7-4.6-10.4-10.4-10.4c-2.2,0-4.2,0.7-6,1.9l-0.2,0.1l-0.2-0.1
				c-1.2-0.7-2.5-1.1-3.9-1.1c-4.2,0-7.5,3.4-7.5,7.5c0,1.5,0.4,3,1.3,4.2l0.1,0.1l0,0.1c-0.2,0.8-0.4,1.5-0.4,2.3
				c0,4.3,3.5,7.8,7.8,7.8c0.8,0,1.6-0.1,2.4-0.4L160.6,37.1z"/>
		</g>
		<g id="Body_21_">
			<path id="XMLID_735_" class="st2" d="M147.1,48.6c0-6.8,6.6-12.3,14.7-12.3c8.1,0,14.7,5.5,14.7,12.3"/>
			<path id="XMLID_662_" class="st9" d="M161.8,43.2c-3.8,0-6.4-1.7-6.4-4h0.6c0,2,2.4,3.4,5.8,3.4c3.4,0,5.8-1.4,5.8-3.4h0.6
				C168.2,41.6,165.6,43.2,161.8,43.2z"/>
		</g>
		<g id="XMLID_658_">
			<path id="Neck_24_" class="st3" d="M157.7,29.2v10c0,1,1.8,1.8,4.1,1.8c2.3,0,4.1-0.8,4.1-1.8v-10H157.7z"/>
			<path id="XMLID_659_" class="st4" d="M161.8,41.3c-2.5,0-4.4-0.9-4.4-2.1V28.9h8.9v10.3C166.2,40.4,164.3,41.3,161.8,41.3z
				 M158,29.5v9.7c0,0.7,1.6,1.5,3.8,1.5c2.2,0,3.8-0.8,3.8-1.5v-9.7H158z"/>
		</g>
		<g id="XMLID_654_">
			<path id="Head_28_" class="st3" d="M161.8,16.6c-4.9,0-8.8,1.8-8.8,3.9h0V22c0,6.9,4,12.7,8.8,12.7c4.8,0,8.8-5.8,8.8-12.7v-1.5
				h0C170.6,18.4,166.7,16.6,161.8,16.6z"/>
			<path id="XMLID_655_" class="st4" d="M161.8,35.1c-5,0-9.1-6-9.1-13v-1.5c0-2.4,4-4.2,9.1-4.2c5.1,0,9.1,1.9,9.1,4.2V22
				C170.9,29.1,166.7,35.1,161.8,35.1z M161.8,16.9c-4.6,0-8.5,1.7-8.5,3.6V22c0,6.7,3.9,12.4,8.5,12.4c4.6,0,8.5-5.7,8.5-12.4v-1.5
				C170.3,18.6,166.4,16.9,161.8,16.9z"/>
		</g>
		<ellipse id="Left_x5F_eye_17_" class="st4" cx="156.9" cy="24.4" rx="1" ry="1.2"/>
		<ellipse id="Right_x5F_eye_17_" class="st4" cx="166.7" cy="24.4" rx="1" ry="1.2"/>
		<path id="Mouth_17_" class="st4" d="M164.2,29.6c-1.4-0.7-3.5-0.7-4.9,0h-0.5c1.6,2.6,4.3,2.6,5.9,0H164.2z"/>
		<g id="XMLID_649_">
			<path id="XMLID_653_" class="st5" d="M172.4,18.3c0-5.9-4.7-10.6-10.6-10.6c-5.5,0-10.1,4.2-10.6,9.6c-0.1,0.6,0.1,1.2,0.3,1.8
				l0.3,0.6c3.2,3.2,8.5,3.2,11.7,0c0.4-0.4,0.8-0.9,1.1-1.4c0.3,0.9,0.8,1.6,1.4,2.3c1.1,1.1,2.6,1.7,4.1,1.7c1.5,0,3-0.6,4.1-1.7
				L172.4,18.3z"/>
			<path id="XMLID_650_" class="st4" d="M170.2,22.6c-1.6,0-3.2-0.6-4.4-1.8c-0.5-0.5-1-1.2-1.3-1.9c-0.2,0.3-0.5,0.6-0.8,0.9
				c-1.6,1.6-3.8,2.5-6.1,2.5c-2.3,0-4.4-0.9-6.1-2.5l-0.1-0.1l-0.3-0.6c-0.3-0.6-0.4-1.3-0.3-1.9c0.5-5.6,5.2-9.9,10.9-9.9
				c6,0,10.8,4.8,10.9,10.8l2.1,2.4l-0.2,0.2C173.4,22,171.8,22.6,170.2,22.6z M164.7,17.6l0.2,0.6c0.3,0.8,0.7,1.6,1.3,2.2
				c1,1,2.4,1.6,3.9,1.6c1.4,0,2.7-0.5,3.7-1.4l-1.8-2.2v-0.1c0-5.7-4.6-10.3-10.3-10.3c-5.3,0-9.8,4-10.2,9.3c0,0.5,0,1.1,0.3,1.6
				l0.3,0.6c1.5,1.5,3.5,2.3,5.6,2.3c2.1,0,4.1-0.8,5.6-2.3c0.4-0.4,0.8-0.8,1.1-1.3L164.7,17.6z"/>
		</g>
	</g>
	<g id="XMLID_606_" class="st1">
		<g id="XMLID_645_">
			<path id="XMLID_647_" class="st5" d="M115.8,54.4c0-8.7,8.4-15.7,18.8-15.7c10.4,0,18.8,7,18.8,15.7"/>
			<path id="XMLID_646_" class="st4" d="M153.8,54.4H153c0-8.4-8.3-15.3-18.4-15.3s-18.4,6.9-18.4,15.3h-0.8
				c0-8.9,8.6-16.1,19.2-16.1C145.2,38.3,153.8,45.5,153.8,54.4z"/>
		</g>
		<g id="XMLID_620_">
			<path id="Neck_23_" class="st3" d="M129.3,29.6v12.8c0,1.2,2.4,2.3,5.3,2.3c2.9,0,5.3-1,5.3-2.3V29.6H129.3z"/>
			<path id="XMLID_642_" class="st4" d="M134.6,45c-3.2,0-5.7-1.1-5.7-2.7V29.2h11.3v13.2C140.2,43.9,137.8,45,134.6,45z M129.7,30
				v12.4c0,0.9,2,1.9,4.9,1.9c2.9,0,4.9-1,4.9-1.9V30H129.7z"/>
		</g>
		<g id="XMLID_616_">
			<path id="Head_27_" class="st3" d="M134.6,13.5c-6.2,0-11.3,2.2-11.3,5h0v1.9c0,8.8,5.1,16.3,11.3,16.3c6.2,0,11.3-7.5,11.3-16.3
				v-1.9h0C145.9,15.8,140.8,13.5,134.6,13.5z"/>
			<path id="XMLID_617_" class="st4" d="M134.6,37.1c-6.3,0-11.7-7.6-11.7-16.7v-1.9c0-3,5.1-5.4,11.7-5.4c6.6,0,11.7,2.4,11.7,5.4
				v1.9C146.3,29.5,140.9,37.1,134.6,37.1z M134.6,13.9c-5.9,0-10.9,2.1-10.9,4.6l0,1.9c0,8.6,5,15.9,10.9,15.9s10.9-7.3,10.9-15.9
				v-1.9C145.5,16,140.5,13.9,134.6,13.9z"/>
		</g>
		<ellipse id="Left_x5F_eye_16_" class="st4" cx="128.3" cy="23.5" rx="1.3" ry="1.6"/>
		<ellipse id="Right_x5F_eye_16_" class="st4" cx="140.8" cy="23.5" rx="1.3" ry="1.6"/>
		<path id="Mouth_16_" class="st4" d="M137.7,30.1c-1.7-0.8-4.5-0.8-6.3,0h-0.6c2.1,3.3,5.4,3.3,7.5,0H137.7z"/>
		<path id="XMLID_615_" class="st2" d="M145.1,10.7C145,10.7,145,10.7,145.1,10.7c-5.5-5.5-11.4-5.2-11.6-5.2
			c-0.1,0-8.6,0.1-10.9,7.2l-0.1,0.1c-1.2,3.4-3.6,11.9-0.2,17l2.8,4.5c0.1,0.2,0.3,0.3,0.5,0.3c0.1,0,0.1,0,0.2,0
			c0.2-0.1,0.4-0.3,0.4-0.6c0-1.1,0-2.2,0.1-3.1c0-0.2,0.2-0.4,0.5-0.5l0,0c0.4,0,0.6-0.4,0.4-0.8c-1.3-2.2-1.5-5-1.5-6.3
			c0-0.3,0.1-0.5,0.3-0.7v0c6.2-7.1,12.5-8.2,13.6-8.3c0.1,0.1,0.2,0.2,0.2,0.2c0.1,0.7-1.2,2-2.1,2.7c-0.2,0.1-0.3,0.4-0.2,0.6
			c0.1,0.2,0.3,0.4,0.5,0.4c1.8,0,3.3-0.7,4.2-1.3c0.3-0.2,0.7-0.1,0.8,0.3c0.3,1.1,0.6,2.6,0.6,4.5c0,2.3-0.1,4.7-1,6.9
			c-0.1,0.1-0.1,0.2-0.1,0.3c-0.1,0.2-0.1,0.3-0.2,0.4l0.8-0.1c0.3,0,0.7-0.1,0.9-0.4c2.8-2.3,4.3-5,4.6-8
			C149.1,15.6,145.3,11.1,145.1,10.7z"/>
		<circle id="XMLID_614_" class="st2" cx="133.3" cy="48.7" r="0.9"/>
		<circle id="XMLID_613_" class="st4" cx="131.4" cy="47.2" r="0.8"/>
		<circle id="XMLID_612_" class="st2" cx="130.3" cy="45.4" r="0.8"/>
		<circle id="XMLID_611_" class="st4" cx="138.9" cy="45.4" r="0.8"/>
		<circle id="XMLID_610_" class="st2" cx="138" cy="47.2" r="0.8"/>
		<circle id="XMLID_609_" class="st4" cx="136.2" cy="48.7" r="0.9"/>
		<circle id="XMLID_608_" class="st4" cx="134.6" cy="50.2" r="0.6"/>
		<path id="XMLID_607_" class="st2" d="M134.5,51.5c-0.3,0.3-0.7,0.8-0.7,1.5c0,0,0,0.1,0,0.1c0.1,1.1,1.7,1.1,1.7,0
			c0,0,0-0.1,0-0.1c0-0.7-0.4-1.2-0.7-1.5C134.8,51.4,134.6,51.3,134.5,51.5C134.5,51.4,134.5,51.4,134.5,51.5z"/>
	</g>
	<g id="XMLID_591_" class="st1">
		<path id="Hair_6_" class="st2" d="M108.4,10.2c-5.5,0-10,4.5-10,10v21.2h20.1V20.2C118.4,14.7,113.9,10.2,108.4,10.2z"/>
		<g id="Body_15_">
			<g id="XMLID_604_">
				<path id="Body_20_" class="st5" d="M94.4,48.9c0-6.4,6.2-11.6,14-11.6s14,5.2,14,11.6"/>
				<path id="XMLID_605_" class="st4" d="M122.6,48.9H122c0-6.2-6.1-11.3-13.7-11.3c-7.5,0-13.7,5.1-13.7,11.3h-0.6
					c0-6.6,6.4-11.9,14.3-11.9C116.2,37,122.6,42.3,122.6,48.9z"/>
			</g>
			<g id="XMLID_601_">
				<circle id="XMLID_603_" class="st4" cx="105.7" cy="40.4" r="3"/>
				<circle id="XMLID_602_" class="st4" cx="111" cy="40.4" r="3"/>
			</g>
		</g>
		<g id="XMLID_597_">
			<path id="Neck_22_" class="st8" d="M104.4,30.5V40c0,0.9,1.7,1.7,3.9,1.7c2.2,0,3.9-0.7,3.9-1.7v-9.5H104.4z"/>
			<path id="XMLID_598_" class="st4" d="M108.4,42c-2.4,0-4.2-0.8-4.2-2v-9.8h8.4V40C112.6,41.1,110.8,42,108.4,42z M104.7,30.8V40
				c0,0.7,1.5,1.4,3.6,1.4c2.1,0,3.6-0.7,3.6-1.4v-9.2H104.7z"/>
		</g>
		<g id="Head_25_">
			<g id="XMLID_593_">
				<path id="Head_26_" class="st6" d="M100,20.5v3.3c0,6.7,3.8,12.3,8.4,12.3c4.6,0,8.4-5.6,8.4-12.3v-3.3H100z"/>
				<path id="XMLID_594_" class="st4" d="M108.4,36.4c-4.7,0-8.7-5.8-8.7-12.6v-3.6H117v3.6C117,30.6,113.1,36.4,108.4,36.4z
					 M100.3,20.8v3.1c0,6.5,3.7,12,8.1,12c4.4,0,8.1-5.5,8.1-12v-3.1H100.3z"/>
			</g>
			<ellipse id="XMLID_592_" class="st2" cx="108.3" cy="20.5" rx="8.9" ry="1.7"/>
		</g>
		<ellipse id="Eye_x5F_Left_4_" class="st4" cx="103.9" cy="25.8" rx="1.1" ry="1.4"/>
		<ellipse id="Eye_x5F_Right_4_" class="st4" cx="112.8" cy="25.8" rx="1.1" ry="1.4"/>
		<path id="Mouth_15_" class="st4" d="M108.4,30.2c-0.9-0.5-2-0.2-2.8,0.9c1.5,3,4,3,5.6,0C110.4,30,109.3,29.7,108.4,30.2z"/>
	</g>
	<g id="XMLID_570_" class="st1">
		<g id="XMLID_586_">
			<path id="XMLID_590_" class="st5" d="M181.9,31c-0.2,0-0.5,0.1-0.7,0.1c-1.8,0-3.2-1.2-3.7-2.8c0.3-0.9,0.4-1.9,0.4-3
				c0-5.9-4.8-10.7-10.7-10.7c-2.3,0-4.4,0.7-6.2,2c-1.2-0.7-2.5-1.1-4-1.1c-4.3,0-7.8,3.5-7.8,7.8c0,1.6,0.5,3.1,1.4,4.4
				c-0.2,0.8-0.4,1.6-0.4,2.4c0,4.5,3.6,8.1,8.1,8.1c0.9,0,1.7-0.1,2.5-0.4c0,0,0,0,0,0.1c0,4.2,3.4,7.6,7.6,7.6s7.6-3.4,7.6-7.6
				c0-0.3,0-0.6-0.1-0.9c0.1,0,0.3,0,0.4,0c3.1,0,5.6-2.5,5.6-5.6C181.9,31.3,181.9,31.1,181.9,31z"/>
			<path id="XMLID_587_" class="st4" d="M168.3,45.9c-4.2,0-7.7-3.4-7.9-7.6c-0.7,0.2-1.4,0.3-2.2,0.3c-4.6,0-8.4-3.8-8.4-8.4
				c0-0.8,0.1-1.6,0.3-2.4c-0.9-1.3-1.3-2.9-1.3-4.5c0-4.5,3.7-8.2,8.2-8.2c1.4,0,2.8,0.4,4,1.1c1.8-1.3,4-1.9,6.2-1.9
				c6.1,0,11,4.9,11,11c0,1-0.1,2-0.4,3c0.5,1.5,1.8,2.5,3.4,2.5c0.2,0,0.4,0,0.7-0.1l0.3-0.1l0,0.3l-0.3,0l0.3,0c0,0.1,0,0.2,0,0.4
				c0,3.3-2.7,6-6,6c0,0,0,0,0,0c0,0.2,0,0.4,0,0.6C176.2,42.3,172.7,45.9,168.3,45.9z M161,37.5v0.4c0,4.1,3.3,7.3,7.3,7.3
				c4,0,7.3-3.3,7.3-7.3c0-0.3,0-0.5-0.1-0.9l0-0.4l0.4,0c0.1,0,0.2,0,0.3,0c2.9,0,5.3-2.4,5.3-5.3c0,0,0,0,0,0
				c-2.1,0.2-3.9-1.1-4.4-3l0-0.1l0-0.1c0.3-0.9,0.4-1.9,0.4-2.9c0-5.7-4.6-10.4-10.4-10.4c-2.2,0-4.2,0.7-6,1.9l-0.2,0.1l-0.2-0.1
				c-1.2-0.7-2.5-1.1-3.9-1.1c-4.2,0-7.5,3.4-7.5,7.5c0,1.5,0.4,3,1.3,4.2l0.1,0.1l0,0.1c-0.2,0.8-0.4,1.5-0.4,2.3
				c0,4.3,3.5,7.8,7.8,7.8c0.8,0,1.6-0.1,2.4-0.4L161,37.5z"/>
		</g>
		<g id="Body_14_">
			<path id="XMLID_585_" class="st2" d="M147.5,48.9c0-6.8,6.6-12.3,14.7-12.3c8.1,0,14.7,5.5,14.7,12.3"/>
			<path id="XMLID_584_" class="st9" d="M162.2,43.6c-3.8,0-6.4-1.7-6.4-4h0.6c0,2,2.4,3.4,5.8,3.4c3.4,0,5.8-1.4,5.8-3.4h0.6
				C168.6,41.9,166,43.6,162.2,43.6z"/>
		</g>
		<g id="XMLID_580_">
			<path id="Neck_19_" class="st3" d="M158.1,29.5v10c0,1,1.8,1.8,4.1,1.8c2.3,0,4.1-0.8,4.1-1.8v-10H158.1z"/>
			<path id="XMLID_581_" class="st4" d="M162.2,41.6c-2.5,0-4.4-0.9-4.4-2.1V29.2h8.9v10.3C166.6,40.7,164.7,41.6,162.2,41.6z
				 M158.4,29.8v9.7c0,0.7,1.6,1.5,3.8,1.5c2.2,0,3.8-0.8,3.8-1.5v-9.7H158.4z"/>
		</g>
		<g id="XMLID_576_">
			<path id="Head_22_" class="st3" d="M162.2,17c-4.9,0-8.8,1.8-8.8,3.9h0v1.5c0,6.9,4,12.7,8.8,12.7c4.8,0,8.8-5.8,8.8-12.7v-1.5h0
				C171,18.7,167.1,17,162.2,17z"/>
			<path id="XMLID_577_" class="st4" d="M162.2,35.4c-5,0-9.1-6-9.1-13v-1.5c0-2.4,4-4.2,9.1-4.2c5.1,0,9.1,1.9,9.1,4.2v1.5
				C171.3,29.4,167.1,35.4,162.2,35.4z M162.2,17.3c-4.6,0-8.5,1.7-8.5,3.6v1.5c0,6.7,3.9,12.4,8.5,12.4c4.6,0,8.5-5.7,8.5-12.4
				v-1.5C170.7,18.9,166.8,17.3,162.2,17.3z"/>
		</g>
		<ellipse id="Left_x5F_eye_13_" class="st4" cx="157.3" cy="24.8" rx="1" ry="1.2"/>
		<ellipse id="Right_x5F_eye_13_" class="st4" cx="167.1" cy="24.8" rx="1" ry="1.2"/>
		<path id="Mouth_13_" class="st4" d="M164.6,29.9c-1.4-0.7-3.5-0.7-4.9,0h-0.5c1.6,2.6,4.3,2.6,5.9,0H164.6z"/>
		<g id="XMLID_571_">
			<path id="XMLID_575_" class="st5" d="M172.8,18.6c0-5.9-4.7-10.6-10.6-10.6c-5.5,0-10.1,4.2-10.6,9.6c-0.1,0.6,0.1,1.2,0.3,1.8
				l0.3,0.6c3.2,3.2,8.5,3.2,11.7,0c0.4-0.4,0.8-0.9,1.1-1.4c0.3,0.9,0.8,1.6,1.4,2.3c1.1,1.1,2.6,1.7,4.1,1.7c1.5,0,3-0.6,4.1-1.7
				L172.8,18.6z"/>
			<path id="XMLID_572_" class="st4" d="M170.6,23c-1.6,0-3.2-0.6-4.4-1.8c-0.5-0.5-1-1.2-1.3-1.9c-0.2,0.3-0.5,0.6-0.8,0.9
				c-1.6,1.6-3.8,2.5-6.1,2.5c-2.3,0-4.4-0.9-6.1-2.5l-0.1-0.1l-0.3-0.6c-0.3-0.6-0.4-1.3-0.3-1.9c0.5-5.6,5.2-9.9,10.9-9.9
				c6,0,10.8,4.8,10.9,10.8l2.1,2.4l-0.2,0.2C173.8,22.3,172.2,23,170.6,23z M165.1,18l0.2,0.6c0.3,0.8,0.7,1.6,1.3,2.2
				c1,1,2.4,1.6,3.9,1.6c1.4,0,2.7-0.5,3.7-1.4l-1.8-2.2v-0.1c0-5.7-4.6-10.3-10.3-10.3c-5.3,0-9.8,4-10.2,9.3c0,0.5,0,1.1,0.3,1.6
				l0.3,0.6c1.5,1.5,3.5,2.3,5.6,2.3c2.1,0,4.1-0.8,5.6-2.3c0.4-0.4,0.8-0.8,1.1-1.3L165.1,18z"/>
		</g>
	</g>
	<g id="XMLID_169_" class="st1">
		<g id="XMLID_567_">
			<path id="XMLID_569_" class="st5" d="M116.1,54.7c0-8.7,8.4-15.7,18.8-15.7c10.4,0,18.8,7,18.8,15.7"/>
			<path id="XMLID_568_" class="st4" d="M154.2,54.7h-0.8c0-8.4-8.3-15.3-18.4-15.3s-18.4,6.9-18.4,15.3h-0.8
				c0-8.9,8.6-16.1,19.2-16.1C145.6,38.7,154.2,45.9,154.2,54.7z"/>
		</g>
		<g id="XMLID_563_">
			<path id="Neck_18_" class="st3" d="M129.7,29.9v12.8c0,1.2,2.4,2.3,5.3,2.3c2.9,0,5.3-1,5.3-2.3V29.9H129.7z"/>
			<path id="XMLID_564_" class="st4" d="M135,45.4c-3.2,0-5.7-1.1-5.7-2.7V29.5h11.3v13.2C140.6,44.2,138.2,45.4,135,45.4z
				 M130.1,30.3v12.4c0,0.9,2,1.9,4.9,1.9c2.9,0,4.9-1,4.9-1.9V30.3H130.1z"/>
		</g>
		<g id="XMLID_179_">
			<path id="Head_21_" class="st3" d="M135,13.9c-6.2,0-11.3,2.2-11.3,5h0v1.9c0,8.8,5.1,16.3,11.3,16.3c6.2,0,11.3-7.5,11.3-16.3
				v-1.9h0C146.3,16.1,141.2,13.9,135,13.9z"/>
			<path id="XMLID_180_" class="st4" d="M135,37.5c-6.3,0-11.7-7.6-11.7-16.7v-1.9c0-3,5.1-5.4,11.7-5.4c6.6,0,11.7,2.4,11.7,5.4
				v1.9C146.7,29.8,141.3,37.5,135,37.5z M135,14.3c-5.9,0-10.9,2.1-10.9,4.6l0,1.9c0,8.6,5,15.9,10.9,15.9s10.9-7.3,10.9-15.9v-1.9
				C145.9,16.4,140.9,14.3,135,14.3z"/>
		</g>
		<ellipse id="Left_x5F_eye_12_" class="st4" cx="128.7" cy="23.8" rx="1.3" ry="1.6"/>
		<ellipse id="Right_x5F_eye_12_" class="st4" cx="141.2" cy="23.8" rx="1.3" ry="1.6"/>
		<path id="Mouth_12_" class="st4" d="M138.1,30.4c-1.7-0.8-4.5-0.8-6.3,0h-0.6c2.1,3.3,5.4,3.3,7.5,0H138.1z"/>
		<path id="XMLID_178_" class="st2" d="M145.5,11.1C145.4,11.1,145.4,11.1,145.5,11.1c-5.5-5.5-11.4-5.2-11.6-5.2
			c-0.1,0-8.6,0.1-10.9,7.2l-0.1,0.1c-1.2,3.4-3.6,11.9-0.2,17l2.8,4.5c0.1,0.2,0.3,0.3,0.5,0.3c0.1,0,0.1,0,0.2,0
			c0.2-0.1,0.4-0.3,0.4-0.6c0-1.1,0-2.2,0.1-3.1c0-0.2,0.2-0.4,0.5-0.5l0,0c0.4,0,0.6-0.4,0.4-0.8c-1.3-2.2-1.5-5-1.5-6.3
			c0-0.3,0.1-0.5,0.3-0.7v0c6.2-7.1,12.5-8.2,13.6-8.3c0.1,0.1,0.2,0.2,0.2,0.2c0.1,0.7-1.2,2-2.1,2.7c-0.2,0.1-0.3,0.4-0.2,0.6
			c0.1,0.2,0.3,0.4,0.5,0.4c1.8,0,3.3-0.7,4.2-1.3c0.3-0.2,0.7-0.1,0.8,0.3c0.3,1.1,0.6,2.6,0.6,4.5c0,2.3-0.1,4.7-1,6.9
			c-0.1,0.1-0.1,0.2-0.1,0.3c-0.1,0.2-0.1,0.3-0.2,0.4l0.8-0.1c0.3,0,0.7-0.1,0.9-0.4c2.8-2.3,4.3-5,4.6-8
			C149.5,15.9,145.7,11.4,145.5,11.1z"/>
		<circle id="XMLID_177_" class="st2" cx="133.7" cy="49" r="0.9"/>
		<circle id="XMLID_176_" class="st4" cx="131.8" cy="47.5" r="0.8"/>
		<circle id="XMLID_175_" class="st2" cx="130.6" cy="45.8" r="0.8"/>
		<circle id="XMLID_174_" class="st4" cx="139.3" cy="45.8" r="0.8"/>
		<circle id="XMLID_173_" class="st2" cx="138.4" cy="47.5" r="0.8"/>
		<circle id="XMLID_172_" class="st4" cx="136.6" cy="49" r="0.9"/>
		<circle id="XMLID_171_" class="st4" cx="135" cy="50.5" r="0.6"/>
		<path id="XMLID_170_" class="st2" d="M134.9,51.8c-0.3,0.3-0.7,0.8-0.7,1.5c0,0,0,0.1,0,0.1c0.1,1.1,1.7,1.1,1.7,0
			c0,0,0-0.1,0-0.1c0-0.7-0.4-1.2-0.7-1.5C135.2,51.7,135,51.7,134.9,51.8C134.9,51.8,134.9,51.8,134.9,51.8z"/>
	</g>
</g>
<g id="crowd2r" class="st0">
	<g id="XMLID_308_" class="st1">
		<g id="Left_x5F_ear_4_">
			<g id="XMLID_731_">
				<path id="Left_x5F_ear_6_" class="st3" d="M520.5,32.4c0,1.9-1.5,3.4-3.4,3.4s-3.4-2.2-3.4-4.1c0-1.9,1.5-2.7,3.4-2.7
					S520.5,30.5,520.5,32.4z"/>
				<path id="XMLID_732_" class="st4" d="M517.1,36.1c-2.1,0-3.7-2.4-3.7-4.5c0-1.9,1.4-3,3.7-3c2.1,0,3.7,1.7,3.7,3.7
					S519.1,36.1,517.1,36.1z M517.1,29.4c-0.9,0-3,0.2-3,2.3c0,1.7,1.4,3.7,3,3.7c1.7,0,3-1.4,3-3S518.7,29.4,517.1,29.4z"/>
			</g>
			<g id="XMLID_726_">
				<circle id="XMLID_730_" class="st3" cx="515.6" cy="35.5" r="1"/>
				<path id="XMLID_727_" class="st4" d="M515.6,36.8c-0.7,0-1.3-0.6-1.3-1.3c0-0.7,0.6-1.3,1.3-1.3s1.3,0.6,1.3,1.3
					C516.9,36.2,516.3,36.8,515.6,36.8z M515.6,34.9c-0.3,0-0.6,0.3-0.6,0.6c0,0.3,0.3,0.6,0.6,0.6s0.6-0.3,0.6-0.6
					C516.2,35.2,515.9,34.9,515.6,34.9z"/>
			</g>
		</g>
		<g id="Right_x5F_ear_5_">
			<g id="XMLID_722_">
				<path id="Right_x5F_ear_6_" class="st3" d="M533,32c0,1.9,1.5,3.4,3.4,3.4c1.9,0,3.4-2.2,3.4-4.1s-1.5-2.7-3.4-2.7
					C534.5,28.6,533,30.1,533,32z"/>
				<path id="XMLID_723_" class="st4" d="M536.4,35.8c-2.1,0-3.7-1.7-3.7-3.7s1.7-3.7,3.7-3.7c2.3,0,3.7,1.1,3.7,3
					C540.2,33.4,538.5,35.8,536.4,35.8z M536.4,29c-1.7,0-3,1.4-3,3c0,1.7,1.4,3,3,3c1.6,0,3-2.1,3-3.7
					C539.4,29.2,537.3,29,536.4,29z"/>
			</g>
			<g id="XMLID_717_">
				<circle id="XMLID_721_" class="st3" cx="538" cy="35.5" r="1"/>
				<path id="XMLID_718_" class="st4" d="M538,36.8c-0.7,0-1.3-0.6-1.3-1.3c0-0.7,0.6-1.3,1.3-1.3s1.3,0.6,1.3,1.3
					C539.3,36.2,538.7,36.8,538,36.8z M538,34.9c-0.3,0-0.6,0.3-0.6,0.6c0,0.3,0.3,0.6,0.6,0.6c0.3,0,0.6-0.3,0.6-0.6
					C538.6,35.2,538.3,34.9,538,34.9z"/>
			</g>
		</g>
		<g id="Body_18_">
			<path id="XMLID_716_" class="st2" d="M508.7,61.8c0-8.3,8.1-15.1,18.1-15.1c10,0,18.1,6.8,18.1,15.1"/>
			<polygon id="XMLID_715_" class="st6" points="527.1,56.3 523.8,61.9 530.3,61.9 			"/>
		</g>
		<g id="XMLID_559_">
			<path id="Neck_21_" class="st3" d="M520.8,39.7v12.4c0,0.3,0.4,0.8,0.9,1.3c2.8,2.5,6.6,2.6,9.6,0.4c0.9-0.7,1.6-1.3,1.6-1.7
				V39.7H520.8z"/>
			<path id="XMLID_560_" class="st4" d="M526.8,55.7c-1.9,0-3.7-0.7-5.3-2.1c-0.7-0.6-1-1.1-1-1.6V39.3h12.8v12.8
				c0,0.5-0.5,1.2-1.7,2C530.1,55.2,528.4,55.7,526.8,55.7z M521.2,40v12c0,0.1,0,0.3,0.8,1c2.6,2.4,6.2,2.5,9.2,0.4
				c1.4-1,1.4-1.4,1.4-1.4V40H521.2z"/>
		</g>
		<g id="XMLID_343_">
			<path id="Head_24_" class="st3" d="M526.9,17.1c-6,0-10.8,6-10.8,8.9h0v2c0,9.2,4.9,16.9,10.8,16.9c5.9,0,10.8-7.8,10.8-16.9v-2
				h0C537.7,23.1,532.9,17.1,526.9,17.1z"/>
			<path id="XMLID_344_" class="st4" d="M526.9,45.3c-6.1,0-11.2-7.9-11.2-17.3v-2c0-3.1,5.1-9.2,11.2-9.2c6.1,0,11.2,6.1,11.2,9.2
				l0,2C538.1,37.4,532.9,45.3,526.9,45.3z M526.9,17.5c-5.6,0-10.5,5.7-10.5,8.5v2c0,9,4.8,16.6,10.5,16.6
				c5.7,0,10.5-7.6,10.5-16.6v-2c0-1.4-1.3-3.5-3.1-5.2C533,19.5,530.3,17.5,526.9,17.5z"/>
		</g>
		<ellipse id="Left_x5F_eye_15_" class="st4" cx="521.1" cy="30.5" rx="1.5" ry="1.8"/>
		<ellipse id="Right_x5F_eye_15_" class="st4" cx="532.7" cy="30.5" rx="1.5" ry="1.8"/>
		<g id="Hat_2_">
			<g id="XMLID_338_">
				<ellipse id="XMLID_342_" class="st5" cx="526.7" cy="13.7" rx="3.6" ry="3.1"/>
				<path id="XMLID_339_" class="st4" d="M526.7,17.2c-2.2,0-4-1.6-4-3.5c0-1.9,1.8-3.5,4-3.5s4,1.6,4,3.5
					C530.7,15.6,528.9,17.2,526.7,17.2z M526.7,10.9c-1.8,0-3.3,1.2-3.3,2.8c0,1.5,1.5,2.8,3.3,2.8c1.8,0,3.3-1.2,3.3-2.8
					C530,12.1,528.5,10.9,526.7,10.9z"/>
			</g>
			<g id="XMLID_333_">
				<path id="XMLID_337_" class="st5" d="M539.1,24.9c0-1.5-0.8-3-2.1-3.3c0,0-0.1,0-0.1,0c-0.7-4.7-5-8.3-10.2-8.3
					c-5.2,0-9.5,3.7-10.2,8.4l0,0c-0.3,0.1-0.6,0.3-0.9,0.6l0,0c-0.1,0.1-0.2,0.3-0.3,0.4c0,0,0,0,0,0c-0.1,0.1-0.2,0.3-0.3,0.4
					c0,0,0,0.1-0.1,0.1c-0.1,0.1-0.1,0.3-0.2,0.4c0,0.1,0,0.2-0.1,0.2c0,0.1-0.1,0.2-0.1,0.3c0,0.1,0,0.2,0,0.4c0,0.1,0,0.2,0,0.2
					c0,0,0,0.1,0,0.1c0,0.2,0,0.5,0,0.7c0.3,1.7,1.6,2.8,2.9,2.4c0,0,9.1-2.4,18.7,0c1.3,0.3,2.6-0.7,2.9-2.4
					C539.1,25.4,539.1,25.2,539.1,24.9z"/>
				<path id="XMLID_334_" class="st4" d="M536.7,28.5c-0.2,0-0.4,0-0.6-0.1c-9.4-2.4-18.4,0-18.5,0c-0.6,0.2-1.3,0-1.9-0.3
					c-0.7-0.5-1.3-1.4-1.4-2.4c0-0.2-0.1-0.5,0-0.8c0,0,0,0,0-0.1c0-0.1,0-0.1,0-0.2l0-0.2c0-0.1,0-0.2,0-0.3c0-0.1,0-0.2,0.1-0.3
					l0-0.1c0-0.1,0-0.1,0-0.2c0-0.2,0.1-0.3,0.2-0.4c0-0.1,0-0.1,0.1-0.1c0.1-0.2,0.2-0.3,0.3-0.5c0.1-0.2,0.3-0.4,0.4-0.5
					c0.2-0.2,0.5-0.4,0.8-0.6c0.8-4.9,5.3-8.5,10.5-8.5c5.2,0,9.6,3.6,10.5,8.4c1.3,0.4,2.3,1.9,2.2,3.6c0,0.3,0,0.5,0,0.8
					c-0.2,1-0.7,1.9-1.4,2.4C537.6,28.4,537.1,28.5,536.7,28.5z M527.1,26.6c2.8,0,6,0.3,9.2,1.1c0.4,0.1,0.9,0,1.3-0.2
					c0.6-0.4,1-1.1,1.1-1.9c0-0.2,0-0.4,0-0.6v0c0-1.4-0.8-2.7-1.8-2.9l-0.2-0.1l-0.1-0.3c-0.7-4.5-5-8-9.8-8
					c-4.9,0-9.2,3.5-9.9,8.1l0,0.2l-0.2,0.1c-0.3,0.1-0.5,0.3-0.7,0.5c-0.1,0.1-0.2,0.2-0.3,0.4c-0.1,0.2-0.2,0.3-0.2,0.4l0,0.1
					c-0.1,0.1-0.1,0.2-0.1,0.4c0,0,0,0.1,0,0.1l0,0.1c0,0.1-0.1,0.2-0.1,0.3c0,0.1,0,0.2,0,0.2l0,0.2c0,0,0,0.1,0,0.1l0,0.1
					c0,0.2,0,0.4,0,0.6c0.1,0.8,0.5,1.5,1.1,1.9c0.4,0.3,0.9,0.3,1.3,0.2C517.5,27.7,521.6,26.6,527.1,26.6z"/>
			</g>
			<g id="XMLID_330_">
				<path id="XMLID_332_" class="st5" d="M516.5,21.7c0,0,8.9-2.9,20.5-0.1"/>
				<path id="XMLID_331_" class="st4" d="M516.6,22.1l-0.2-0.7c0.1,0,9.1-2.9,20.7-0.1l-0.2,0.7C525.5,19.2,516.7,22.1,516.6,22.1z"
					/>
			</g>
			<g id="XMLID_327_">
				<line id="XMLID_329_" class="st5" x1="526.8" y1="25.5" x2="526.8" y2="21.8"/>
				<path id="XMLID_328_" class="st4" d="M526.8,25.9c-0.2,0-0.4-0.2-0.4-0.4v-3.7c0-0.2,0.2-0.4,0.4-0.4c0.2,0,0.4,0.2,0.4,0.4v3.7
					C527.1,25.7,527,25.9,526.8,25.9z"/>
			</g>
			<g id="XMLID_324_">
				<line id="XMLID_326_" class="st5" x1="529.4" y1="25.7" x2="530.1" y2="22"/>
				<path id="XMLID_325_" class="st4" d="M529.4,26C529.4,26,529.4,26,529.4,26c-0.3,0-0.4-0.2-0.4-0.4l0.6-3.6
					c0-0.2,0.2-0.3,0.4-0.3c0.2,0,0.3,0.2,0.3,0.4l-0.6,3.6C529.7,25.9,529.6,26,529.4,26z"/>
			</g>
			<g id="XMLID_321_">
				<line id="XMLID_323_" class="st5" x1="532.1" y1="26" x2="533.3" y2="22.5"/>
				<path id="XMLID_322_" class="st4" d="M532.1,26.3c0,0-0.1,0-0.1,0c-0.2-0.1-0.3-0.3-0.2-0.5l1.3-3.5c0.1-0.2,0.3-0.3,0.5-0.2
					c0.2,0.1,0.3,0.3,0.2,0.5l-1.3,3.5C532.3,26.2,532.2,26.3,532.1,26.3z"/>
			</g>
			<g id="XMLID_318_">
				<line id="XMLID_320_" class="st5" x1="534.7" y1="26.1" x2="536.6" y2="22.9"/>
				<path id="XMLID_319_" class="st4" d="M534.7,26.5c-0.1,0-0.1,0-0.2,0c-0.2-0.1-0.2-0.3-0.1-0.5l1.9-3.2c0.1-0.2,0.3-0.2,0.5-0.1
					c0.2,0.1,0.2,0.3,0.1,0.5l-1.9,3.2C535,26.4,534.8,26.5,534.7,26.5z"/>
			</g>
			<g id="XMLID_315_">
				<line id="XMLID_317_" class="st5" x1="524.1" y1="25.8" x2="523.5" y2="22.2"/>
				<path id="XMLID_316_" class="st4" d="M524.1,26.2c-0.2,0-0.3-0.1-0.4-0.3l-0.6-3.6c0-0.2,0.1-0.4,0.3-0.4c0.2,0,0.4,0.1,0.4,0.3
					l0.6,3.6C524.5,25.9,524.4,26.1,524.1,26.2C524.2,26.2,524.2,26.2,524.1,26.2z"/>
			</g>
			<g id="XMLID_312_">
				<line id="XMLID_314_" class="st5" x1="521.5" y1="26.3" x2="520.2" y2="22.8"/>
				<path id="XMLID_313_" class="st4" d="M521.5,26.6c-0.1,0-0.3-0.1-0.3-0.2l-1.3-3.5c-0.1-0.2,0-0.4,0.2-0.5
					c0.2-0.1,0.4,0,0.5,0.2l1.3,3.5c0.1,0.2,0,0.4-0.2,0.5C521.6,26.6,521.5,26.6,521.5,26.6z"/>
			</g>
			<g id="XMLID_309_">
				<line id="XMLID_311_" class="st5" x1="518.8" y1="26.4" x2="517" y2="23.2"/>
				<path id="XMLID_310_" class="st4" d="M518.8,26.8c-0.1,0-0.2-0.1-0.3-0.2l-1.9-3.2c-0.1-0.2,0-0.4,0.1-0.5
					c0.2-0.1,0.4,0,0.5,0.1l1.9,3.2c0.1,0.2,0,0.4-0.1,0.5C519,26.7,518.9,26.8,518.8,26.8z"/>
			</g>
		</g>
		<path id="Mouth_10_" class="st4" d="M530.3,38.8c-0.1-0.3-0.4-0.4-0.7-0.4h-5.2c-0.3,0-0.5,0.2-0.7,0.4c-0.1,0.3-0.1,0.6,0.1,0.8
			c0.8,0.9,1.9,1.4,3.1,1.4c1.2,0,2.3-0.5,3.1-1.4C530.4,39.4,530.4,39.1,530.3,38.8z"/>
	</g>
	<g id="XMLID_182_" class="st1">
		<g id="XMLID_195_">
			<path id="Hair_4_" class="st5" d="M426,9.6c-7.2,0-13.1,5.9-13.1,13.1v27.7h26.2V22.7C439.1,15.5,433.2,9.6,426,9.6z"/>
			<path id="XMLID_305_" class="st4" d="M439.5,50.7h-27V22.7c0-7.4,6.1-13.5,13.5-13.5s13.5,6.1,13.5,13.5V50.7z M413.3,50h25.4
				V22.7c0-7-5.7-12.7-12.7-12.7s-12.7,5.7-12.7,12.7V50z"/>
		</g>
		<g id="Body_9_">
			<path id="Body_16_" class="st2" d="M407.8,60.1c0-8.4,8.1-15.2,18.2-15.2c10.1,0,18.2,6.8,18.2,15.2"/>
			<g id="XMLID_192_">
				<circle id="XMLID_194_" class="st8" cx="422.6" cy="49" r="3.9"/>
				<circle id="XMLID_193_" class="st8" cx="429.5" cy="49" r="3.9"/>
			</g>
		</g>
		<g id="XMLID_188_">
			<path id="Neck_20_" class="st8" d="M420.9,36.1v12.4c0,1.2,2.3,2.2,5.1,2.2s5.1-1,5.1-2.2V36.1H420.9z"/>
			<path id="XMLID_189_" class="st4" d="M426,51.1c-3.1,0-5.5-1.1-5.5-2.6V35.8h11v12.8C431.5,50,429.1,51.1,426,51.1z M421.3,36.5
				v12c0,0.9,1.9,1.8,4.7,1.8c2.8,0,4.7-0.9,4.7-1.8v-12H421.3z"/>
		</g>
		<g id="Head_17_">
			<g id="XMLID_184_">
				<path id="Head_23_" class="st6" d="M415,23v4.4c0,8.7,5,16,10.9,16c6,0,10.9-7.3,10.9-16V23H415z"/>
				<path id="XMLID_185_" class="st4" d="M426,43.8c-6.1,0-11.3-7.5-11.3-16.4v-4.8h22.6v4.8C437.3,36.3,432.1,43.8,426,43.8z
					 M415.4,23.4v4c0,8.5,4.8,15.6,10.5,15.6s10.5-7.2,10.5-15.6v-4H415.4z"/>
			</g>
			<ellipse id="XMLID_183_" class="st5" cx="426" cy="23" rx="11.7" ry="2.2"/>
		</g>
		<ellipse id="Eye_x5F_Left_3_" class="st4" cx="420.1" cy="29.9" rx="1.5" ry="1.8"/>
		<ellipse id="Eye_x5F_Right_3_" class="st4" cx="431.8" cy="29.9" rx="1.5" ry="1.8"/>
		<path id="Mouth_8_" class="st4" d="M426,35.7c-1.2-0.7-2.7-0.3-3.6,1.1c2,3.9,5.3,3.9,7.3,0C428.6,35.4,427.2,35.1,426,35.7z"/>
	</g>
</g>
<g id="crowd2l" class="st0">
	<g id="XMLID_44_" class="st1">
		<g id="Body_4_">
			<g id="XMLID_123_">
				<path id="XMLID_125_" class="st5" d="M62.7,66c0-8.6,8.4-15.6,18.8-15.6s18.8,7,18.8,15.6"/>
				<path id="XMLID_124_" class="st4" d="M100.6,66h-0.8c0-8.4-8.3-15.3-18.4-15.3S63.1,57.6,63.1,66h-0.8c0-8.8,8.6-16,19.2-16
					S100.6,57.2,100.6,66z"/>
			</g>
		</g>
		<g id="XMLID_119_">
			<path id="Neck_5_" class="st3" d="M75.2,43.1v10.4c0,0.3,0.4,0.7,0.9,1.1c2.9,2.1,6.9,2.2,10,0.4c0.9-0.5,1.6-1.1,1.6-1.5V43.1
				H75.2z"/>
			<path id="XMLID_120_" class="st4" d="M81.3,56.7c-1.9,0-3.8-0.6-5.4-1.8c-0.8-0.6-1.1-1-1.1-1.4V42.7h13.3v10.8
				c0,0.5-0.5,1-1.8,1.8C84.7,56.2,83,56.7,81.3,56.7z M75.6,53.5c0,0,0,0.2,0.8,0.8c2.8,2,6.5,2.2,9.6,0.4c1.4-0.8,1.4-1.1,1.4-1.1
				l0-10H75.6V53.5L75.6,53.5z"/>
		</g>
		<g id="XMLID_115_">
			<path id="Head_6_" class="st3" d="M81.5,19.7c-6.2,0-11.2,6.2-11.2,9.2h0V31c0,9.5,5.1,17.5,11.2,17.5c6.1,0,11.2-8,11.2-17.5
				v-2.1h0C92.7,25.9,87.7,19.7,81.5,19.7z"/>
			<path id="XMLID_116_" class="st4" d="M81.5,48.9c-6.3,0-11.6-8.2-11.6-17.9v-2.1c0-3.2,5.3-9.5,11.6-9.5c6.3,0,11.6,6.3,11.6,9.5
				V31C93.1,40.7,87.7,48.9,81.5,48.9z M81.5,20.1c-5.8,0-10.8,5.9-10.8,8.8l0,2.1c0,9.3,5,17.2,10.8,17.2c5.9,0,10.8-7.9,10.8-17.2
				v-2.1C92.3,26,87.3,20.1,81.5,20.1z"/>
		</g>
		<path id="XMLID_114_" class="st4" d="M72.5,32.6"/>
		<ellipse id="Left_x5F_eye_6_" class="st4" cx="75.5" cy="33.6" rx="1.5" ry="1.9"/>
		<ellipse id="Right_x5F_eye_6_" class="st4" cx="87.5" cy="33.6" rx="1.5" ry="1.9"/>
		<g id="XMLID_112_">
			<path id="XMLID_113_" class="st2" d="M88,19.1c-3.6-3.6-16.3-5.4-17.6,4.1c0,0.2-0.1,0.4-0.3,0.5c-1.7,1.4-1.4,5.5-0.8,9.1
				c0.1,0.4,0.4,0.7,0.8,0.7l0.3,0c0.4,0,0.8-0.3,0.8-0.8c0.4-4.5,1.8-8,1.8-8.1c6.4-2.8,8.8,0.6,13.4-1.5c0.1-0.1,0.2-0.1,0.4-0.1
				c3.8,0.1,5.2,4.3,5.6,9.6c0,0.4,0.4,0.8,0.8,0.8l0,0c0.4,0,0.8-0.3,0.8-0.8c0.1-5.9-0.4-14.4-5.3-13.4
				C88.5,19.4,88.2,19.3,88,19.1z"/>
		</g>
		<path id="XMLID_111_" class="st2" d="M81.5,40.5c-1.7-1.7-7.3,2.8-7.9,3.3c-0.8,0.6-0.5,2.2,0.7,2.2c0.8,0,7-3.1,7.2-3.3
			c0.2,0.2,6.4,3.3,7.2,3.3c1.2,0,1.5-1.6,0.7-2.2C88.8,43.3,83.1,38.9,81.5,40.5z"/>
		<g id="XMLID_61_">
			<path id="XMLID_69_" class="st6" d="M72.2,53.5l2.1-2.3l4.2,4.5l-2.8,5.6l-3.8-5.6C71.6,55,71.7,54.1,72.2,53.5z"/>
			<path id="XMLID_62_" class="st10" d="M74.3,51.2l4.2,4.5l-2.8,5.6l-3.8-5.6c-0.4-0.7-0.2-1.6,0.3-2.2L74.3,51.2 M74.3,50.5
				C74.3,50.5,74.3,50.5,74.3,50.5c-0.2,0-0.4,0.1-0.6,0.2L71.7,53c-0.8,0.8-0.9,2-0.4,3c0,0,0,0.1,0.1,0.1l3.8,5.6
				c0.1,0.2,0.4,0.3,0.6,0.3c0,0,0,0,0.1,0c0.3,0,0.5-0.2,0.6-0.4l2.8-5.6c0.1-0.3,0.1-0.6-0.1-0.8l-4.2-4.5
				C74.7,50.5,74.5,50.5,74.3,50.5L74.3,50.5z"/>
		</g>
		<g id="XMLID_49_">
			<path id="XMLID_59_" class="st6" d="M90.7,53.5l-2.1-2.3l-4.2,4.5l2.8,5.6l3.8-5.6C91.3,55,91.2,54.1,90.7,53.5z"/>
			<path id="XMLID_52_" class="st10" d="M88.6,51.2l2.1,2.3c0.5,0.6,0.7,1.5,0.3,2.2l-3.8,5.6l-2.8-5.6L88.6,51.2 M88.6,50.5
				c-0.2,0-0.4,0.1-0.5,0.2l-4.2,4.5c-0.2,0.2-0.3,0.6-0.1,0.8l2.8,5.6c0.1,0.2,0.4,0.4,0.6,0.4c0,0,0,0,0.1,0
				c0.2,0,0.5-0.1,0.6-0.3l3.8-5.6c0,0,0-0.1,0.1-0.1c0.5-1,0.3-2.2-0.4-3l-2.1-2.3C89,50.6,88.8,50.5,88.6,50.5
				C88.6,50.5,88.6,50.5,88.6,50.5L88.6,50.5z"/>
		</g>
		<g id="XMLID_45_">
			<polygon id="XMLID_48_" class="st4" points="80.1,56.7 78.1,66 84.7,66 82.7,56.7 			"/>
			<polygon id="XMLID_46_" class="st4" points="81.4,60.4 84.8,54.3 78.1,54.3 			"/>
		</g>
	</g>
	<g id="XMLID_1_" class="st1">
		<g id="Body_1_">
			<path id="XMLID_43_" class="st2" d="M166.4,66.9c0-8.5,8.3-15.5,18.5-15.5s18.5,6.9,18.5,15.5"/>
		</g>
		<g id="XMLID_39_">
			<path id="Neck_2_" class="st3" d="M178.7,44.2v10.3c0,0.3,0.4,0.7,0.9,1.1c2.9,2.1,6.8,2.2,9.8,0.4c0.9-0.5,1.6-1.1,1.6-1.4V44.2
				H178.7z"/>
			<path id="XMLID_40_" class="st4" d="M184.8,57.6c-1.9,0-3.8-0.6-5.4-1.7c-0.7-0.5-1.1-1-1.1-1.4V43.8h13.1v10.7
				c0,0.5-0.5,1-1.8,1.8C188.2,57.2,186.5,57.6,184.8,57.6z M179.1,54.5c0,0,0,0.2,0.8,0.8c2.7,2,6.4,2.1,9.4,0.3
				c1.3-0.8,1.4-1.1,1.4-1.1l0-9.9h-11.6V54.5L179.1,54.5z"/>
		</g>
		<g id="XMLID_35_">
			<path id="Head_2_" class="st3" d="M184.9,21.1c-6.1,0-11.1,6.1-11.1,9.1h0v2.1c0,9.4,5,17.3,11.1,17.3c6.1,0,11.1-7.9,11.1-17.3
				v-2.1h0C196,27.2,191,21.1,184.9,21.1z"/>
			<path id="XMLID_36_" class="st4" d="M184.9,49.9c-6.2,0-11.5-8.1-11.5-17.7v-2.1c0-3.2,5.2-9.4,11.5-9.4c6.3,0,11.5,6.2,11.5,9.4
				v2.1C196.4,41.8,191.1,49.9,184.9,49.9z M184.9,21.5c-5.8,0-10.7,5.8-10.7,8.7l0,2.1c0,9.2,4.9,17,10.7,17s10.7-7.8,10.7-17v-2.1
				C195.6,27.3,190.7,21.5,184.9,21.5z"/>
		</g>
		<path id="XMLID_34_" class="st4" d="M176,33.8"/>
		<ellipse id="Left_x5F_eye_2_" class="st4" cx="179" cy="34.8" rx="1.5" ry="1.9"/>
		<ellipse id="Right_x5F_eye_2_" class="st4" cx="190.9" cy="34.8" rx="1.5" ry="1.9"/>
		<g id="XMLID_28_">
			<g id="XMLID_29_">
				<path id="XMLID_33_" class="st5" d="M191.4,20.6c-3.5-3.6-16.1-5.3-17.4,4.1c0,0.2-0.1,0.4-0.3,0.5c-1.6,1.4-1.4,5.4-0.8,9
					c0.1,0.4,0.4,0.7,0.8,0.7l0.3,0c0.4,0,0.8-0.3,0.8-0.7c0.3-4.4,1.8-7.9,1.8-8c6.4-2.7,8.7,0.6,13.2-1.5c0.1-0.1,0.2-0.1,0.4-0.1
					c3.8,0.1,5.1,4.3,5.5,9.5c0,0.4,0.4,0.7,0.8,0.7l0,0c0.4,0,0.8-0.3,0.8-0.8c0.1-5.8-0.4-14.2-5.2-13.2
					C191.8,20.8,191.6,20.7,191.4,20.6z"/>
				<path id="XMLID_30_" class="st4" d="M173.7,35.1c-0.6,0-1.1-0.4-1.2-1c-0.9-5-0.5-8.1,0.9-9.4c0.1-0.1,0.1-0.1,0.1-0.2
					c0.6-4.2,3.3-5.9,5.5-6.7c4.4-1.5,10.3,0.1,12.6,2.4c0.1,0.1,0.2,0.1,0.4,0.1c1.1-0.2,2.1,0,3,0.7c2,1.6,2.9,6,2.7,12.9
					c0,0.6-0.5,1.1-1.2,1.1c0,0,0,0,0,0c-0.6,0-1.1-0.5-1.2-1.1c-0.5-6.1-2.1-9.1-5.2-9.2c0,0,0,0,0,0c-0.1,0-0.1,0-0.2,0
					c-2.2,1-3.9,0.8-5.7,0.6c-2-0.3-4.1-0.5-7.4,0.8c-0.3,0.6-1.4,3.9-1.7,7.7c0,0.6-0.6,1.1-1.2,1.1L173.7,35.1
					C173.7,35.1,173.7,35.1,173.7,35.1z M182.9,18.1c-1.2,0-2.5,0.2-3.6,0.5c-2,0.7-4.4,2.2-5,6.1c0,0.3-0.2,0.5-0.4,0.7
					c-1.2,1.1-1.5,4.1-0.7,8.7c0,0.2,0.2,0.3,0.4,0.3h0l0.3,0c0.2,0,0.4-0.2,0.4-0.4c0.3-3.9,1.7-8.1,2-8.3c3.5-1.5,5.8-1.2,7.9-0.9
					c1.8,0.2,3.3,0.4,5.3-0.5c0.2-0.1,0.3-0.1,0.5-0.1c3.5,0.1,5.4,3.3,5.9,9.8c0,0.2,0.2,0.4,0.4,0.4h0c0.2,0,0.4-0.2,0.4-0.4
					c0.2-6.6-0.7-10.8-2.5-12.3c-0.6-0.5-1.4-0.7-2.3-0.5c-0.4,0.1-0.8,0-1-0.3l0,0C189.6,19.2,186.2,18.1,182.9,18.1z"/>
			</g>
		</g>
		<g id="XMLID_23_">
			<path id="XMLID_27_" class="st5" d="M184.9,41.7c-1.6-1.6-7.2,2.8-7.8,3.2c-0.8,0.6-0.4,2.2,0.7,2.2c0.8,0,6.9-3.1,7.1-3.3
				c0.2,0.2,6.3,3.3,7.1,3.3c1.2,0,1.5-1.6,0.7-2.2C192.1,44.5,186.5,40.1,184.9,41.7z"/>
			<path id="XMLID_24_" class="st4" d="M192,47.4c-0.8,0-5.9-2.6-7.1-3.2c-1.2,0.7-6.3,3.2-7.1,3.2c-0.7,0-1.2-0.4-1.4-1
				c-0.2-0.7,0-1.4,0.5-1.8c2.3-1.8,6.3-4.5,8-3.4c1.8-1.1,5.7,1.6,8,3.4c0.5,0.4,0.7,1.1,0.5,1.8C193.2,47,192.7,47.4,192,47.4z
				 M184.9,43.2l0.2,0.2c0.4,0.3,6.2,3.2,6.9,3.2c0.5,0,0.7-0.4,0.7-0.5c0.1-0.3,0.1-0.7-0.2-1c-3.6-2.8-6.5-4.1-7.3-3.2l-0.3,0.3
				l-0.3-0.3c-0.8-0.8-3.7,0.4-7.3,3.2c-0.3,0.2-0.3,0.7-0.2,1c0.1,0.2,0.2,0.5,0.7,0.5c0.7,0,6.4-2.9,6.9-3.2L184.9,43.2z"/>
		</g>
		<g id="XMLID_18_">
			<path id="XMLID_22_" class="st6" d="M175.8,54.5l2.1-2.3l4.2,4.4l-2.7,5.5l-3.8-5.5C175.1,56,175.3,55.1,175.8,54.5z"/>
			<path id="XMLID_19_" class="st4" d="M179.3,62.6c-0.1,0-0.2-0.1-0.3-0.2l-3.8-5.5c-0.5-0.9-0.3-1.9,0.3-2.6l0,0l2.1-2.3
				c0.1-0.1,0.2-0.1,0.3-0.1c0,0,0,0,0,0c0.1,0,0.2,0,0.3,0.1l4.2,4.4c0.1,0.1,0.1,0.3,0.1,0.4l-2.7,5.5
				C179.6,62.5,179.4,62.6,179.3,62.6C179.3,62.6,179.3,62.6,179.3,62.6z M176.1,54.8c-0.4,0.5-0.5,1.2-0.2,1.7l3.4,5l2.3-4.7
				l-3.7-4L176.1,54.8z"/>
		</g>
		<g id="XMLID_13_">
			<path id="XMLID_17_" class="st6" d="M194,54.5l-2.1-2.3l-4.2,4.4l2.7,5.5l3.8-5.5C194.7,56,194.5,55.1,194,54.5z"/>
			<path id="XMLID_14_" class="st4" d="M190.5,62.6C190.5,62.6,190.5,62.6,190.5,62.6c-0.2,0-0.3-0.1-0.3-0.2l-2.7-5.5
				c-0.1-0.1,0-0.3,0.1-0.4l4.2-4.4c0.1-0.1,0.2-0.1,0.3-0.1c0.1,0,0.2,0,0.3,0.1l2.1,2.3l0,0c0.6,0.7,0.8,1.7,0.4,2.6l-3.8,5.6
				C190.7,62.5,190.6,62.6,190.5,62.6z M188.2,56.7l2.3,4.7l3.4-5c0.3-0.5,0.2-1.2-0.3-1.7l-1.8-2L188.2,56.7z"/>
		</g>
		<g id="XMLID_2_">
			<g id="XMLID_8_">
				<polygon id="XMLID_12_" class="st6" points="183.6,57.6 181.6,66.5 188.1,66.5 186.2,57.6 				"/>
				<path id="XMLID_9_" class="st4" d="M188.1,66.9h-6.5c-0.1,0-0.2-0.1-0.3-0.1c-0.1-0.1-0.1-0.2-0.1-0.3l2-8.9
					c0-0.2,0.2-0.3,0.4-0.3h2.6c0.2,0,0.3,0.1,0.4,0.3l2,8.9c0,0.1,0,0.2-0.1,0.3C188.3,66.8,188.2,66.9,188.1,66.9z M182.1,66.1
					h5.6l-1.8-8.1h-2L182.1,66.1z"/>
			</g>
			<g id="XMLID_3_">
				<polygon id="XMLID_7_" class="st6" points="184.9,61.3 188.2,55.2 181.6,55.2 				"/>
				<path id="XMLID_4_" class="st4" d="M184.9,61.6L184.9,61.6c-0.1,0-0.3-0.1-0.3-0.2l-3.3-6c-0.1-0.1-0.1-0.3,0-0.4
					s0.2-0.2,0.3-0.2h6.6c0.1,0,0.3,0.1,0.3,0.2s0.1,0.3,0,0.4l-3.3,6C185.2,61.6,185,61.6,184.9,61.6z M182.2,55.6l2.7,4.9l2.7-4.9
					H182.2z"/>
			</g>
		</g>
	</g>
</g>
<g id="crowd3r">
	<g id="XMLID_468_">
		<path id="XMLID_490_" class="st2" d="M450.9,93.8c0-9.4,9.2-17,20.4-17c11.3,0,20.4,7.6,20.4,17"/>
		<g id="XMLID_486_">
			<path id="Neck_3_" class="st3" d="M465.7,66.9v13.9c0,1.4,2.6,2.5,5.7,2.5c3.2,0,5.7-1.1,5.7-2.5V66.9H465.7z"/>
			<path id="XMLID_487_" class="st4" d="M471.4,83.7c-3.5,0-6.2-1.2-6.2-2.9V66.4h12.3v14.3C477.5,82.4,474.9,83.7,471.4,83.7z
				 M466.1,67.3v13.5c0,1,2.2,2,5.3,2c3.1,0,5.3-1.1,5.3-2V67.3H466.1z"/>
		</g>
		<g id="XMLID_482_">
			<path id="Head_1_" class="st3" d="M471.4,49.4c-6.8,0-12.3,2.4-12.3,5.5h0V57c0,9.6,5.6,17.7,12.3,17.7c6.7,0,12.3-8.1,12.3-17.7
				v-2.1h0C483.6,51.9,478.2,49.4,471.4,49.4z"/>
			<path id="XMLID_483_" class="st4" d="M471.4,75.1c-6.9,0-12.7-8.3-12.7-18.1v-2.1c0-3.3,5.6-5.9,12.7-5.9
				c7.1,0,12.7,2.6,12.7,5.9V57C484.1,66.8,478.3,75.1,471.4,75.1z M471.4,49.9c-6.4,0-11.8,2.3-11.8,5l0,2.1
				c0,9.3,5.4,17.2,11.8,17.2s11.8-7.9,11.8-17.2v-2.1C483.2,52.2,477.8,49.9,471.4,49.9z"/>
		</g>
		<ellipse id="Left_x5F_eye_4_" class="st4" cx="464.6" cy="60.3" rx="1.4" ry="1.7"/>
		<ellipse id="Right_x5F_eye_4_" class="st4" cx="478.2" cy="60.3" rx="1.4" ry="1.7"/>
		<path id="Mouth_5_" class="st4" d="M474.8,67.4c-1.9-0.9-4.9-0.9-6.8,0h-0.7c2.3,3.6,5.9,3.6,8.2,0H474.8z"/>
		<g id="XMLID_477_">
			<path id="XMLID_481_" class="st5" d="M482.8,46.4C482.8,46.4,482.8,46.4,482.8,46.4c-6-6-12.4-5.7-12.6-5.7
				c-0.1,0-9.3,0.1-11.8,7.9l-0.1,0.2c-1.3,3.7-3.9,12.9-0.2,18.5l3,4.9c0.1,0.2,0.3,0.3,0.5,0.3c0.1,0,0.1,0,0.2,0
				c0.3-0.1,0.4-0.3,0.4-0.6c0-1.1,0-2.4,0.1-3.3c0-0.3,0.2-0.5,0.5-0.5l0,0c0.4,0,0.6-0.5,0.4-0.8c-1.4-2.4-1.7-5.4-1.7-6.8
				c0-0.3,0.1-0.6,0.3-0.8v0c6.8-7.7,13.6-8.9,14.8-9c0.2,0.1,0.2,0.2,0.2,0.3c0.1,0.7-1.3,2.1-2.2,2.9c-0.2,0.2-0.3,0.4-0.2,0.7
				c0.1,0.2,0.3,0.4,0.6,0.4c2,0,3.6-0.7,4.6-1.4c0.3-0.2,0.8-0.1,0.9,0.3c0.3,1.2,0.6,2.8,0.6,4.8c0,2.5-0.1,5.2-1.1,7.4
				c-0.1,0.1-0.1,0.2-0.2,0.3c-0.1,0.2-0.2,0.3-0.2,0.5l0.8-0.1c0.4,0,0.7-0.2,1-0.4c3-2.5,4.7-5.4,5-8.6
				C487.2,51.7,483.1,46.7,482.8,46.4z"/>
			<path id="XMLID_478_" class="st4" d="M461.7,72.8c-0.4,0-0.7-0.2-0.9-0.5l-3-4.9c-3.8-5.7-1.2-15.1,0.1-18.8l0.1-0.2
				c2.6-8.1,12.2-8.1,12.2-8.1c0.2,0,6.8-0.3,12.9,5.8l-0.3,0.3l0.3-0.3c0.2,0.2,4.5,5.4,3.9,11.5c-0.4,3.4-2.1,6.4-5.2,8.9
				c-0.3,0.3-0.8,0.5-1.2,0.5l-1.6,0.1l0.4-0.7c0.1-0.2,0.1-0.3,0.2-0.4c0-0.2,0.1-0.3,0.2-0.4c0.9-2.2,1-4.7,1-7.2
				c0-2-0.3-3.7-0.6-4.7c0-0.1-0.1-0.1-0.1-0.1c0,0-0.1,0-0.1,0c-1,0.7-2.7,1.5-4.8,1.5c-0.4,0-0.8-0.3-1-0.7
				c-0.1-0.4,0-0.9,0.3-1.2c1-0.8,1.9-1.9,2-2.3c-1.8,0.3-8,1.7-14.2,8.8c-0.1,0.1-0.2,0.3-0.2,0.5c0,1.2,0.2,4.2,1.6,6.6
				c0.2,0.3,0.2,0.7,0,1c-0.2,0.3-0.5,0.5-0.8,0.5c-0.1,0-0.1,0-0.1,0.1c-0.1,0.8-0.1,2.1-0.1,3.3c0,0.5-0.3,0.9-0.7,1
				C461.9,72.8,461.8,72.8,461.7,72.8z M470.4,41.2c-0.1,0-0.2,0-0.2,0c-0.1,0-9,0.1-11.5,7.6l-0.1,0.2c-1.3,3.6-3.8,12.7-0.2,18.1
				l3,4.9c0,0.1,0.1,0.1,0.2,0.1c0.1,0,0.2-0.1,0.2-0.2c0-1.2,0-2.5,0.1-3.4c0.1-0.5,0.4-0.8,0.9-0.9c0.1,0,0.1,0,0.1-0.1
				c0,0,0-0.1,0-0.1c-1.5-2.5-1.7-5.5-1.7-7c0-0.4,0.1-0.8,0.4-1.1c6.8-7.8,13.7-9,15.1-9.1l0.2,0l0.1,0.1c0.3,0.2,0.3,0.5,0.3,0.6
				c0.1,1.3-2.4,3.2-2.4,3.3c-0.1,0-0.1,0.1-0.1,0.2c0,0.1,0.1,0.1,0.2,0.1c1.9,0,3.4-0.7,4.3-1.4c0.3-0.2,0.6-0.2,0.9-0.1
				c0.3,0.1,0.5,0.4,0.6,0.7c0.3,1.1,0.6,2.9,0.6,4.9c0,2.6-0.1,5.3-1.1,7.6l-0.1,0.1c0,0,0,0,0,0.1l0.1,0c0.3,0,0.6-0.1,0.8-0.3
				c2.9-2.4,4.5-5.2,4.9-8.4c0.6-5.8-3.5-10.7-3.7-10.9C477.2,41.4,471.6,41.2,470.4,41.2z"/>
		</g>
		<circle id="XMLID_476_" class="st8" cx="470" cy="87.6" r="1"/>
		<circle id="XMLID_475_" class="st8" cx="468" cy="86" r="0.9"/>
		<circle id="XMLID_474_" class="st8" cx="466.7" cy="84.1" r="0.8"/>
		<circle id="XMLID_473_" class="st8" cx="476.1" cy="84.1" r="0.8"/>
		<circle id="XMLID_472_" class="st8" cx="475.1" cy="86" r="0.9"/>
		<circle id="XMLID_471_" class="st8" cx="473.1" cy="87.6" r="1"/>
		<circle id="XMLID_470_" class="st8" cx="471.5" cy="89.2" r="0.7"/>
		<path id="XMLID_469_" class="st8" d="M471.3,90.6c-0.3,0.3-0.7,0.9-0.7,1.6c0,0,0,0.1,0,0.1c0.1,1.2,1.8,1.2,1.9,0
			c0,0,0-0.1,0-0.1c0-0.7-0.5-1.3-0.7-1.6C471.6,90.5,471.5,90.5,471.3,90.6C471.3,90.6,471.3,90.6,471.3,90.6z"/>
	</g>
	<g id="XMLID_451_">
		<path id="XMLID_467_" class="st2" d="M533.4,78.8c-0.3,0.1-0.7,0.1-1,0.1c-2.5,0-4.7-1.7-5.3-4.1c0.4-1.4,0.6-2.8,0.6-4.3
			c0-8.5-6.9-15.4-15.4-15.4c-3.3,0-6.4,1.1-8.9,2.9c-1.7-1-3.7-1.6-5.8-1.6c-6.3,0-11.4,5.1-11.4,11.4c0,2.4,0.7,4.6,2,6.4
			c-0.3,1.1-0.5,2.3-0.5,3.5c0,6.5,5.2,11.7,11.7,11.7c1.2,0,2.4-0.2,3.6-0.6c0,0,0,0.1,0,0.1c0,6.1,4.9,11,11,11s11-4.9,11-11
			c0-0.5,0-0.9-0.1-1.3c0.2,0,0.4,0,0.6,0c4.5,0,8.2-3.7,8.2-8.2C533.4,79.2,533.4,79,533.4,78.8z"/>
		<g id="Body_5_">
			<g id="XMLID_464_">
				<path id="XMLID_466_" class="st5" d="M483.6,104.7c0-9.8,9.5-17.7,21.3-17.7c11.8,0,21.3,7.9,21.3,17.7"/>
				<path id="XMLID_465_" class="st4" d="M526.6,104.7h-0.9c0-9.5-9.3-17.3-20.8-17.3s-20.8,7.8-20.8,17.3h-0.9
					c0-10,9.8-18.2,21.7-18.2S526.6,94.7,526.6,104.7z"/>
			</g>
			<g id="XMLID_461_">
				<path id="XMLID_463_" class="st5" d="M513.7,91.1c0,3.2-3.6,5.4-8.8,5.4s-8.8-2.2-8.8-5.4"/>
				<path id="XMLID_462_" class="st4" d="M504.9,96.9c-5.4,0-9.2-2.4-9.2-5.8h0.9c0,2.9,3.4,4.9,8.4,4.9c4.9,0,8.3-2,8.3-4.9h0.9
					C514.1,94.5,510.3,96.9,504.9,96.9z"/>
			</g>
		</g>
		<g id="XMLID_457_">
			<path id="Neck_1_" class="st3" d="M498.9,76.6v14.5c0,1.4,2.7,2.6,6,2.6c3.3,0,6-1.1,6-2.6V76.6H498.9z"/>
			<path id="XMLID_458_" class="st4" d="M504.9,94.1c-3.7,0-6.4-1.3-6.4-3V76.2h12.8v14.9C511.3,92.8,508.5,94.1,504.9,94.1z
				 M499.4,77.1v14c0,1,2.3,2.1,5.5,2.1c3.2,0,5.5-1.1,5.5-2.1v-14H499.4z"/>
		</g>
		<g id="XMLID_453_">
			<path id="Head_4_" class="st3" d="M504.9,58.5c-7.1,0-12.8,2.5-12.8,5.7h0v2.2c0,10,5.8,18.4,12.8,18.4c7,0,12.8-8.4,12.8-18.4
				v-2.2h0C517.7,61,511.9,58.5,504.9,58.5z"/>
			<path id="XMLID_454_" class="st4" d="M504.9,85.2c-7.2,0-13.2-8.6-13.2-18.8v-2.2c0-3.4,5.8-6.1,13.2-6.1
				c7.4,0,13.2,2.7,13.2,6.1v2.2C518.1,76.5,512.1,85.2,504.9,85.2z M504.9,58.9c-6.7,0-12.3,2.4-12.3,5.2v2.2
				c0,9.7,5.6,17.9,12.3,17.9c6.7,0,12.3-8.2,12.3-17.9v-2.2C517.2,61.3,511.6,58.9,504.9,58.9z"/>
		</g>
		<ellipse id="Left_x5F_eye_11_" class="st4" cx="497.8" cy="69.7" rx="1.4" ry="1.8"/>
		<ellipse id="Right_x5F_eye_11_" class="st4" cx="512" cy="69.7" rx="1.4" ry="1.8"/>
		<path id="Mouth_6_" class="st4" d="M508.4,77.2c-2-0.9-5.1-0.9-7.1,0h-0.7c2.4,3.8,6.2,3.8,8.5,0H508.4z"/>
		<path id="XMLID_452_" class="st2" d="M521.8,63L521.8,63l-2.1-2.1h0.5c0-8.5-6.9-15.3-15.3-15.3c-8.5,0-15.3,6.9-15.3,15.3h3l-2,2
			c4.7,4.7,12.3,4.7,16.9,0c0.6-0.6,1.1-1.3,1.6-2c0.4,1.2,1.1,2.4,2,3.3c1.6,1.6,3.8,2.5,6,2.5c2.2,0,4.3-0.8,6-2.5L521.8,63z"/>
	</g>
	<g id="XMLID_491_">
		<g id="Body_6_">
			<g id="XMLID_517_">
				<path id="XMLID_519_" class="st5" d="M418,105.6c0-10,9.7-18,21.6-18c11.9,0,21.6,8.1,21.6,18"/>
				<path id="XMLID_518_" class="st4" d="M461.7,105.6h-0.9c0-9.7-9.5-17.6-21.2-17.6s-21.2,7.9-21.2,17.6h-0.9
					c0-10.2,9.9-18.5,22.1-18.5S461.7,95.4,461.7,105.6z"/>
			</g>
		</g>
		<g id="XMLID_513_">
			<path id="Neck_12_" class="st3" d="M432.4,79.1v12c0,0.3,0.4,0.8,1.1,1.2c3.4,2.5,7.9,2.5,11.5,0.4c1.1-0.6,1.9-1.2,1.9-1.7v-12
				H432.4z"/>
			<path id="XMLID_514_" class="st4" d="M439.5,94.8c-2.2,0-4.4-0.7-6.3-2c-0.9-0.6-1.3-1.1-1.3-1.6V78.7h15.3v12.5
				c0,0.6-0.6,1.2-2.1,2C443.4,94.3,441.4,94.8,439.5,94.8z M432.8,91.2c0,0,0,0.3,0.9,0.9c3.2,2.3,7.5,2.5,11,0.4
				c1.6-0.9,1.6-1.3,1.6-1.3l0-11.6h-13.6V91.2L432.8,91.2z"/>
		</g>
		<g id="XMLID_509_">
			<path id="Head_5_" class="st3" d="M439.6,52.2c-7.1,0-12.9,7.1-12.9,10.6h0v2.4c0,11,5.9,20.2,12.9,20.2
				c7.1,0,12.9-9.3,12.9-20.2v-2.4h0C452.6,59.4,446.8,52.2,439.6,52.2z"/>
			<path id="XMLID_510_" class="st4" d="M439.6,85.9c-7.2,0-13.4-9.5-13.4-20.7v-2.4c0-3.7,6.1-11,13.4-11c7.3,0,13.4,7.3,13.4,11
				v2.4C453,76.4,446.9,85.9,439.6,85.9z M439.6,52.7c-6.7,0-12.5,6.8-12.5,10.1l0,2.4c0,10.7,5.7,19.8,12.5,19.8
				c6.8,0,12.5-9.1,12.5-19.8v-2.4C452.1,59.5,446.3,52.7,439.6,52.7z"/>
		</g>
		<path id="XMLID_508_" class="st4" d="M429.3,67"/>
		<ellipse id="Left_x5F_eye_5_" class="st4" cx="432.8" cy="68.2" rx="1.7" ry="2.2"/>
		<ellipse id="Right_x5F_eye_5_" class="st4" cx="446.6" cy="68.2" rx="1.7" ry="2.2"/>
		<g id="XMLID_506_">
			<path id="XMLID_507_" class="st2" d="M447.2,51.6c-4.1-4.2-18.8-6.2-20.3,4.7c0,0.2-0.2,0.4-0.3,0.6c-1.9,1.6-1.7,6.3-0.9,10.5
				c0.1,0.4,0.5,0.8,0.9,0.8l0.4,0c0.5,0,0.9-0.4,0.9-0.9c0.4-5.2,2.1-9.3,2.1-9.3c7.4-3.2,10.1,0.7,15.4-1.7
				c0.1-0.1,0.3-0.1,0.4-0.1c4.4,0.1,6,5,6.4,11.1c0,0.5,0.4,0.9,0.9,0.9l0,0c0.5,0,0.9-0.4,0.9-0.9c0.2-6.8-0.5-16.6-6.1-15.4
				C447.7,51.9,447.4,51.8,447.2,51.6z"/>
		</g>
		<path id="XMLID_505_" class="st2" d="M439.6,76.2c-1.9-1.9-8.5,3.2-9.1,3.8c-0.9,0.7-0.5,2.5,0.8,2.5c0.9,0,8-3.6,8.3-3.9
			c0.3,0.2,7.4,3.9,8.3,3.9c1.4,0,1.7-1.8,0.8-2.5C448.1,79.5,441.5,74.3,439.6,76.2z"/>
		<g id="XMLID_500_">
			<path id="XMLID_504_" class="st6" d="M429,91.2l2.4-2.7l4.9,5.2l-3.2,6.5l-4.4-6.5C428.2,92.9,428.4,91.9,429,91.2z"/>
			<path id="XMLID_501_" class="st10" d="M431.4,88.5l4.9,5.2l-3.2,6.5l-4.4-6.5c-0.4-0.8-0.3-1.8,0.3-2.5L431.4,88.5 M431.4,87.7
				C431.4,87.7,431.4,87.7,431.4,87.7c-0.2,0-0.5,0.1-0.6,0.3l-2.4,2.7c-0.9,1-1.1,2.3-0.5,3.5c0,0,0,0.1,0.1,0.1l4.4,6.5
				c0.2,0.2,0.4,0.4,0.7,0.4c0,0,0,0,0.1,0c0.3,0,0.6-0.2,0.7-0.5l3.2-6.5c0.2-0.3,0.1-0.7-0.1-1l-4.9-5.2
				C431.9,87.8,431.6,87.7,431.4,87.7L431.4,87.7z"/>
		</g>
		<g id="XMLID_495_">
			<path id="XMLID_499_" class="st6" d="M450.2,91.2l-2.4-2.7l-4.9,5.2l3.2,6.5l4.4-6.5C451,92.9,450.9,91.9,450.2,91.2z"/>
			<path id="XMLID_496_" class="st10" d="M447.8,88.5l2.4,2.7c0.6,0.7,0.8,1.7,0.3,2.5l-4.4,6.5l-3.2-6.5L447.8,88.5 M447.8,87.7
				c-0.2,0-0.5,0.1-0.6,0.3l-4.9,5.2c-0.2,0.3-0.3,0.7-0.1,1l3.2,6.5c0.1,0.3,0.4,0.5,0.7,0.5c0,0,0,0,0.1,0c0.3,0,0.6-0.1,0.7-0.4
				l4.4-6.5c0,0,0-0.1,0.1-0.1c0.6-1.2,0.4-2.5-0.5-3.5l-2.4-2.7C448.3,87.8,448.1,87.7,447.8,87.7
				C447.8,87.7,447.8,87.7,447.8,87.7L447.8,87.7z"/>
		</g>
		<g id="XMLID_492_">
			<polygon id="XMLID_494_" class="st4" points="438.1,94.8 435.8,105.6 443.4,105.6 441.1,94.8 			"/>
			<polygon id="XMLID_493_" class="st4" points="439.6,99.1 443.5,92 435.7,92 			"/>
		</g>
	</g>
</g>
<g id="crowd3l" class="st0">
	<g id="XMLID_690_" class="st1">
		<g id="Body_10_">
			<path id="XMLID_769_" class="st2" d="M144.9,101.2c0-9.3,9-16.8,20.1-16.8c11.1,0,20.1,7.5,20.1,16.8"/>
			<g id="XMLID_766_">
				<line id="XMLID_768_" class="st2" x1="155.6" y1="90.1" x2="162.4" y2="101.2"/>
				<path id="XMLID_767_" class="st6" d="M162.4,101.6c-0.1,0-0.3-0.1-0.4-0.2l-6.8-11.1c-0.1-0.2-0.1-0.5,0.1-0.6
					c0.2-0.1,0.5-0.1,0.6,0.1l6.8,11.1c0.1,0.2,0.1,0.5-0.1,0.6C162.6,101.6,162.5,101.6,162.4,101.6z"/>
			</g>
			<g id="XMLID_763_">
				<line id="XMLID_765_" class="st2" x1="174.4" y1="90.1" x2="167.6" y2="101.2"/>
				<path id="XMLID_764_" class="st6" d="M167.6,101.6c-0.1,0-0.2,0-0.2-0.1c-0.2-0.1-0.3-0.4-0.1-0.6l6.8-11.1
					c0.1-0.2,0.4-0.3,0.6-0.1c0.2,0.1,0.3,0.4,0.1,0.6l-6.8,11.1C167.8,101.5,167.7,101.6,167.6,101.6z"/>
			</g>
		</g>
		<g id="Left_x5F_ear_13_">
			<g id="XMLID_759_">
				<path id="Right_x5F_ear_13_" class="st3" d="M150.6,69c0.3,2.2,1.5,3.8,2.7,3.6c1.2-0.2,1.8-2.9,1.5-5.1s-1.4-3-2.6-2.8
					C151,65,150.3,66.9,150.6,69z"/>
				<path id="XMLID_760_" class="st4" d="M153.1,73.1c-1.4,0-2.6-1.7-3-4c-0.2-1.1-0.1-2.2,0.3-3.1c0.4-0.9,1-1.5,1.7-1.6
					c0.8-0.1,1.4,0.1,2,0.6c0.6,0.5,0.9,1.4,1.1,2.5c0.2,1.1,0.1,2.4-0.2,3.4c-0.3,1.2-0.9,2-1.7,2.1
					C153.3,73.1,153.2,73.1,153.1,73.1z M152.5,65.2c-0.1,0-0.2,0-0.2,0c-0.4,0.1-0.8,0.5-1,1.1c-0.3,0.7-0.4,1.7-0.2,2.6
					c0.3,2.1,1.4,3.4,2.2,3.3c0.4,0,0.7-0.6,1-1.5c0.3-0.9,0.3-2.1,0.2-3.1c-0.1-0.9-0.4-1.6-0.8-2
					C153.3,65.4,152.9,65.2,152.5,65.2z"/>
			</g>
			<g id="XMLID_712_">
				<polygon id="XMLID_758_" class="st3" points="151.3,72.7 151.3,74 152.5,74.7 153.6,74 153.6,72.7 152.5,72 				"/>
				<path id="XMLID_713_" class="st4" d="M152.5,75.1l-1.6-0.9v-1.8l1.6-0.9l1.6,0.9v1.8L152.5,75.1z M151.7,73.7l0.7,0.4l0.7-0.4
					v-0.8l-0.7-0.4l-0.7,0.4V73.7z"/>
			</g>
		</g>
		<g id="Right_x5F_ear_8_">
			<g id="XMLID_708_">
				<path id="Right_x5F_ear_10_" class="st3" d="M179.2,69c-0.3,2.2-1.5,3.8-2.7,3.6c-1.2-0.2-1.8-2.9-1.5-5.1s1.4-3,2.6-2.8
					S179.5,66.9,179.2,69z"/>
				<path id="XMLID_709_" class="st4" d="M176.6,73.1c-0.1,0-0.1,0-0.2,0c-0.7-0.1-1.3-0.8-1.7-2.1c-0.3-1-0.4-2.3-0.2-3.4
					c0.2-1.1,0.5-2,1.1-2.5c0.5-0.5,1.2-0.7,2-0.6c0.7,0.1,1.3,0.7,1.7,1.6c0.3,0.9,0.4,2,0.3,3.1C179.3,71.4,178,73.1,176.6,73.1z
					 M177.2,65.2c-0.4,0-0.7,0.1-1,0.4c-0.4,0.4-0.7,1.1-0.8,2c-0.1,1-0.1,2.2,0.2,3.1c0.2,0.9,0.6,1.4,1,1.5
					c0.8,0.1,1.9-1.2,2.2-3.3c0.1-1,0-1.9-0.2-2.6c-0.2-0.6-0.6-1-1-1.1C177.4,65.2,177.3,65.2,177.2,65.2z"/>
			</g>
			<g id="XMLID_703_">
				<polygon id="XMLID_707_" class="st3" points="176.2,72.7 176.2,74 177.4,74.7 178.5,74 178.5,72.7 177.4,72 				"/>
				<path id="XMLID_704_" class="st4" d="M177.4,75.1l-1.6-0.9v-1.8l1.6-0.9l1.6,0.9v1.8L177.4,75.1z M176.6,73.7l0.7,0.4l0.7-0.4
					v-0.8l-0.7-0.4l-0.7,0.4V73.7z"/>
			</g>
		</g>
		<g id="XMLID_699_">
			<path id="Neck_13_" class="st3" d="M159.4,74.7v13.7c0,1.3,2.5,2.4,5.6,2.4s5.6-1.1,5.6-2.4V74.7H159.4z"/>
			<path id="XMLID_700_" class="st4" d="M165,91.2c-3.5,0-6.1-1.2-6.1-2.8V74.2H171v14.1C171,90,168.4,91.2,165,91.2z M159.8,75.1
				v13.3c0,0.9,2.1,2,5.2,2c3.1,0,5.2-1,5.2-2V75.1H159.8z"/>
		</g>
		<g id="XMLID_695_">
			<path id="Head_9_" class="st3" d="M165,57.5c-6.7,0-12.1,2.4-12.1,5.4h0v2.1c0,9.4,5.5,17.4,12.1,17.4c6.6,0,12.1-8,12.1-17.4
				v-2.1h0C177.1,59.9,171.7,57.5,165,57.5z"/>
			<path id="XMLID_696_" class="st4" d="M165,82.7c-6.8,0-12.5-8.2-12.5-17.8v-2.1c0-3.2,5.5-5.8,12.5-5.8c7,0,12.5,2.5,12.5,5.8
				l0,2.1C177.5,74.6,171.8,82.7,165,82.7z M165,57.9c-6.3,0-11.7,2.3-11.7,4.9v2.1c0,9.2,5.3,17,11.7,17c6.3,0,11.6-7.8,11.6-17
				v-2.1c0-1.2-1.2-2.5-3.3-3.4C171.1,58.4,168.2,57.9,165,57.9z"/>
		</g>
		<ellipse id="Left_x5F_eye_9_" class="st4" cx="158.3" cy="68.1" rx="1.3" ry="1.7"/>
		<ellipse id="Right_x5F_eye_9_" class="st4" cx="171.7" cy="68.1" rx="1.3" ry="1.7"/>
		<g id="XMLID_691_">
			<path id="Hair_2_" class="st5" d="M174.5,48.5c-0.3-0.2-0.5-0.5-0.5-0.8c0-1.6-0.6-5.9-6.7-6.5c-5.9-0.6-7.3,3-7.6,5.8
				c0,0.4-0.3,0.8-0.8,0.8c-4.8,1.1-10.1,5-7,17.1l0.7-0.4c0,0,0.1,0,0.1-0.1c0.9-0.7,2.7-2.3,5.8-6c0.2-0.3,0.6-0.3,0.9-0.2
				c1.8,0.9,7.5,6.5,16.8,6.9c0,0,0.1,0,0.1,0l0.9-0.1c0.4,0,0.8-0.3,0.9-0.7C178.9,61.9,181.3,52.3,174.5,48.5z"/>
			<path id="XMLID_692_" class="st4" d="M151.7,65.7l-0.1-0.6c-1.5-5.6-1.3-10,0.6-13.1c1.4-2.3,3.6-3.8,6.7-4.5
				c0.2-0.1,0.4-0.2,0.4-0.5c0.5-4.5,3.3-6.7,8.1-6.2c6.5,0.6,7,5.4,7,6.9c0,0.2,0.1,0.4,0.3,0.5l0,0c7,3.9,4.6,13.6,3.8,16.5
				c-0.2,0.6-0.7,1-1.3,1l-0.9,0.1c-0.1,0-0.1,0-0.2,0c-7.7-0.3-13-4.2-15.6-6c-0.6-0.4-1-0.7-1.3-0.9c-0.1-0.1-0.3,0-0.3,0.1
				c-3.1,3.7-4.9,5.4-5.9,6.1c0,0-0.1,0.1-0.1,0.1L151.7,65.7z M159,57.8c0.2,0,0.4,0,0.5,0.1c0.3,0.2,0.8,0.5,1.4,1
				c2.5,1.8,7.7,5.6,15.2,5.9l1-0.1c0.2,0,0.5-0.2,0.5-0.4c0.8-2.7,3.1-11.8-3.4-15.5c-0.5-0.3-0.7-0.7-0.7-1.2c0-1.6-0.6-5.5-6.3-6
				c-4.3-0.4-6.7,1.4-7.2,5.5c-0.1,0.6-0.5,1.1-1.1,1.2c-2.8,0.7-4.9,2-6.2,4.1c-1.7,2.8-1.9,6.8-0.7,11.9l0.2-0.1
				c1-0.7,2.7-2.3,5.8-6C158.4,58,158.7,57.8,159,57.8z"/>
		</g>
		<path id="Lips_2_" class="st4" d="M165,78.9c0.6,0,1.2-0.1,1.6-0.3c0.7-0.3,1.3-0.7,1.7-1.3c0.4-0.5,1-1,1-1c-0.9-0.2-2.1-1-2.1-1
			c-0.7-0.5-2.2,0.1-2.2,0.1s-1.5-0.6-2.2-0.1c0,0-1.2,0.8-2.1,1c0,0,0.8,0.7,1.1,1.2c0.2,0.3,0.5,0.6,0.8,0.8
			C163,78.6,163.9,78.9,165,78.9z"/>
	</g>
	<g id="XMLID_631_" class="st1">
		<g id="XMLID_686_">
			<path id="Left_x5F_ear_12_" class="st3" d="M123.6,57c0,2.2-1.8,4-4,4s-4-2.7-4-4.9s1.8-3.2,4-3.2S123.6,54.7,123.6,57z"/>
			<path id="XMLID_687_" class="st4" d="M119.6,61.4c-2.5,0-4.4-2.9-4.4-5.3c0-2.2,1.7-3.6,4.4-3.6c2.5,0,4.4,2,4.4,4.4
				C124.1,59.4,122.1,61.4,119.6,61.4z M119.6,53.4c-1.1,0-3.6,0.3-3.6,2.7c0,2,1.7,4.4,3.6,4.4c2,0,3.6-1.6,3.6-3.6
				C123.2,55,121.6,53.4,119.6,53.4z"/>
		</g>
		<g id="XMLID_682_">
			<path id="Right_x5F_ear_7_" class="st3" d="M140.3,56.5c0,2.2,1.8,4,4,4s4-2.7,4-4.9s-1.8-3.2-4-3.2S140.3,54.3,140.3,56.5z"/>
			<path id="XMLID_683_" class="st4" d="M144.3,61c-2.5,0-4.4-2-4.4-4.4c0-2.5,2-4.4,4.4-4.4c2.8,0,4.4,1.3,4.4,3.6
				C148.7,58.1,146.8,61,144.3,61z M144.3,52.9c-2,0-3.6,1.6-3.6,3.6c0,2,1.6,3.6,3.6,3.6c1.9,0,3.6-2.4,3.6-4.4
				C147.9,53.2,145.4,52.9,144.3,52.9z"/>
		</g>
		<g id="XMLID_677_">
			<path id="XMLID_681_" class="st3" d="M144.9,52.1v2.6c0,10.3-5.9,17.2-12.9,17.2c-7,0-12.9-7-12.9-17.2v-2.6l0-1.4l2.4-7.3
				l8.3-3.3l7.9,0.4l4.6,3.4L144.9,52.1z"/>
			<path id="XMLID_678_" class="st4" d="M131.9,72.4c-7.6,0-13.3-7.6-13.3-17.6l0.1-4.2l2.5-7.5l8.6-3.4l8.1,0.4l4.8,3.6l2.5,8.5
				v2.6C145.3,64.8,139.5,72.4,131.9,72.4z M119.5,50.8l0,1.4v2.6c0,9.6,5.4,16.8,12.5,16.8c7.1,0,12.5-7.2,12.5-16.8v-2.5l-2.4-8
				l-4.4-3.3l-7.7-0.4l-8.1,3.2L119.5,50.8z"/>
		</g>
		<g id="Body_8_">
			<path id="XMLID_676_" class="st2" d="M110.4,93.4c0-9.9,9.6-17.9,21.5-17.9s21.5,8,21.5,17.9"/>
			<path id="XMLID_675_" class="st6" d="M142.3,81.2c-0.1-0.3-0.4-0.6-0.8-0.6h-19.1c-0.4,0-0.7,0.2-0.8,0.6c-0.1,0.3,0,0.7,0.2,1
				l9.6,8.4c0.2,0.1,0.4,0.2,0.6,0.2c0.2,0,0.4-0.1,0.6-0.2l9.6-8.4C142.3,81.9,142.4,81.5,142.3,81.2z"/>
			<g id="XMLID_670_">
				<path id="XMLID_674_" class="st2" d="M131.9,86.2c-7.4,0-12-2.7-12-7.2c0-4.4,4.6-7.2,12-7.2c7.4,0,12,2.7,12,7.2
					C143.9,83.5,139.3,86.2,131.9,86.2z"/>
				<path id="XMLID_671_" class="st6" d="M131.9,86.7c-7.6,0-12.4-2.9-12.4-7.6c0-4.7,4.7-7.6,12.4-7.6c7.6,0,12.4,2.9,12.4,7.6
					C144.3,83.8,139.6,86.7,131.9,86.7z M131.9,72.3c-7.1,0-11.5,2.6-11.5,6.7s4.4,6.7,11.5,6.7c7.1,0,11.5-2.6,11.5-6.7
					S139.1,72.3,131.9,72.3z"/>
			</g>
		</g>
		<g id="XMLID_666_">
			<path id="Neck_7_" class="st3" d="M124.8,67.1v12c0,1.3,3.2,2.4,7.2,2.4c4,0,7.2-1.1,7.2-2.4v-12H124.8z"/>
			<path id="XMLID_667_" class="st4" d="M131.9,81.9c-3.7,0-7.6-1-7.6-2.8V66.7h15.2v12.4C139.5,80.9,135.6,81.9,131.9,81.9z
				 M125.2,67.6v11.5c0,0.8,2.6,2,6.7,2c4.2,0,6.7-1.1,6.7-2V67.6H125.2z"/>
		</g>
		<ellipse id="Left_x5F_eye_8_" class="st4" cx="125.1" cy="56.3" rx="1.7" ry="2.2"/>
		<g id="XMLID_640_">
			<path id="XMLID_665_" class="st5" d="M122.9,44.8c2.4-1.5,5.6-2.4,9.1-2.4c3.5,0,6.7,0.9,9.1,2.4c0.8,2.9,1.7,5.4,4.2,7.3
				c0-0.3,0-0.5,0-0.8c0-7.9-6-14.2-13.3-14.2c-7.4,0-13.3,6.4-13.3,14.2c0,0.3,0,0.6,0,0.8C121.2,50.2,122,47.7,122.9,44.8z"/>
			<path id="XMLID_641_" class="st4" d="M145.6,52.9l-0.6-0.5c-2.6-2-3.5-4.5-4.3-7.4c-2.4-1.4-5.5-2.2-8.7-2.2
				c-3.2,0-6.3,0.8-8.7,2.2c-0.8,2.9-1.7,5.4-4.3,7.4l-0.6,0.5l-0.1-1c0-0.2,0-0.4,0-0.6c0-8.1,6.2-14.7,13.8-14.7
				c7.6,0,13.8,6.6,13.8,14.7c0,0.2,0,0.4,0,0.6L145.6,52.9z M131.9,37.5c-7.1,0-12.9,6.2-12.9,13.7c1.9-1.8,2.7-4,3.4-6.6l0-0.2
				l0.1-0.1c2.5-1.6,5.9-2.5,9.3-2.5c3.5,0,6.8,0.9,9.3,2.5l0.1,0.1l0,0.2c0.7,2.5,1.5,4.8,3.4,6.6C144.8,43.6,139,37.5,131.9,37.5z
				"/>
		</g>
		<ellipse id="Right_x5F_eye_8_" class="st4" cx="138.8" cy="56.3" rx="1.7" ry="2.2"/>
		<g id="XMLID_636_">
			<path id="Beard_3_" class="st5" d="M141.9,66.9c0,4.8-4.4,8.8-9.9,8.8c-5.5,0-9.9-3.9-9.9-8.8s4.2-5.4,9.7-5.4
				S141.9,62,141.9,66.9z"/>
			<path id="XMLID_637_" class="st4" d="M131.9,76.1c-5.7,0-10.3-4.1-10.3-9.2c0-5.4,5-5.9,10.1-5.9c5.1,0,10.6,0.5,10.6,5.9
				C142.3,71.9,137.6,76.1,131.9,76.1z M131.7,61.9c-6,0-9.3,0.8-9.3,5c0,4.6,4.3,8.3,9.5,8.3c5.2,0,9.5-3.7,9.5-8.3
				C141.4,62.7,137.9,61.9,131.7,61.9z"/>
		</g>
		<g id="XMLID_632_">
			<path id="Mouth_3_" class="st6" d="M135.8,64.8c-0.1-0.3-0.4-0.5-0.8-0.5h-6.2c-0.3,0-0.7,0.2-0.8,0.5c-0.1,0.3-0.1,0.7,0.2,0.9
				c1,1.1,2.3,1.6,3.7,1.6c1.4,0,2.7-0.6,3.7-1.6C135.9,65.5,136,65.1,135.8,64.8z"/>
			<path id="XMLID_633_" class="st4" d="M131.9,67.8c-1.5,0-3-0.6-4-1.8c-0.3-0.4-0.4-0.9-0.2-1.4c0.2-0.5,0.7-0.8,1.2-0.8h6.2
				c0.5,0,1,0.3,1.2,0.8l0,0c0.2,0.5,0.1,1-0.2,1.4C134.9,67.2,133.5,67.8,131.9,67.8z M128.9,64.7c-0.2,0-0.3,0.1-0.4,0.3
				c-0.1,0.2,0,0.3,0.1,0.5c0.9,1,2.1,1.5,3.4,1.5s2.5-0.5,3.4-1.5c0.1-0.1,0.1-0.3,0.1-0.5c-0.1-0.2-0.2-0.3-0.4-0.3H128.9z"/>
		</g>
	</g>
	<g id="XMLID_126_" class="st1">
		<g id="Body_7_">
			<g id="XMLID_628_">
				<path id="XMLID_630_" class="st5" d="M76.9,101.5c0-10.4,10.1-18.9,22.6-18.9s22.6,8.4,22.6,18.9"/>
				<path id="XMLID_629_" class="st4" d="M122.6,101.5h-0.9c0-10.1-9.9-18.4-22.2-18.4s-22.2,8.3-22.2,18.4h-0.9
					c0-10.6,10.4-19.3,23.1-19.3S122.6,90.8,122.6,101.5z"/>
			</g>
		</g>
		<g id="XMLID_624_">
			<path id="Neck_6_" class="st3" d="M92,73.8v12.6c0,1.4,3.1,4.6,7.2,4.6c4.2,0,7.9-3.2,7.9-4.6V73.8H92z"/>
			<path id="XMLID_625_" class="st4" d="M99.2,91.4c-4.4,0-7.7-3.4-7.7-5v-13h16v13C107.5,88.1,103.7,91.4,99.2,91.4z M92.5,74.3
				v12.1c0,1,2.7,4.1,6.8,4.1c4.1,0,7.4-3.1,7.4-4.1V74.3H92.5z"/>
		</g>
		<g id="XMLID_168_">
			<path id="Left_x5F_ear_11_" class="st3" d="M91.5,63.6c0,2.3-1.9,5.9-4.2,5.9c-2.3,0-3.7-4.4-4.2-6.8c-0.5-2.4,1.9-3.3,4.2-3.3
				C89.6,59.3,91.5,61.2,91.5,63.6z"/>
			<path id="XMLID_621_" class="st4" d="M87.3,69.9c-2.6,0-4.1-4.5-4.7-7.2c-0.2-0.9,0-1.7,0.5-2.4c1.1-1.4,3.3-1.5,4.2-1.5
				c2.6,0,4.7,2.1,4.7,4.7C92,66.1,90,69.9,87.3,69.9z M87.3,59.8c-1.6,0-2.9,0.4-3.5,1.2c-0.3,0.4-0.4,1-0.3,1.6
				c0.3,1.5,1.6,6.5,3.8,6.5c2,0,3.8-3.4,3.8-5.5C91.1,61.5,89.4,59.8,87.3,59.8z"/>
		</g>
		<g id="XMLID_163_">
			<path id="Left_x5F_ear_10_" class="st3" d="M108.3,63.6c0,2.3,1.9,5.9,4.2,5.9c2.3,0,3.7-4.4,4.2-6.8c0.5-2.4-1.9-3.3-4.2-3.3
				C110.2,59.3,108.3,61.2,108.3,63.6z"/>
			<path id="XMLID_164_" class="st4" d="M112.5,69.9c-2.7,0-4.7-3.9-4.7-6.4c0-2.6,2.1-4.7,4.7-4.7c0.9,0,3.1,0.1,4.2,1.5
				c0.5,0.6,0.7,1.5,0.5,2.4C116.6,65.4,115.2,69.9,112.5,69.9z M112.5,59.8c-2.1,0-3.8,1.7-3.8,3.8c0,2.1,1.7,5.5,3.8,5.5
				c2.1,0,3.4-5,3.8-6.5c0.1-0.6,0-1.2-0.3-1.6C115.4,60.2,114.1,59.8,112.5,59.8z"/>
		</g>
		<g id="XMLID_160_">
			<path id="Head_8_" class="st3" d="M108.8,50.8c-2.4-1.7-5.7-2.7-9.2-2.7c-3.6,0-6.8,1-9.2,2.7c-0.8,3.3-1.7,6.2-4.3,8.4v3.1
				c0,12,6.2,20.2,13.6,20.2c7.4,0,13.6-8.2,13.6-20.2v-3.1C110.5,57,109.6,54.1,108.8,50.8z"/>
			<path id="Head_7_" class="st4" d="M99.5,49c3.1,0,6.1,0.8,8.5,2.4c0.8,3.2,1.7,6,4.2,8.2v2.7c0,11-5.4,19.3-12.7,19.3
				c-7.2,0-12.7-8.3-12.7-19.3v-2.7c2.5-2.3,3.4-5.1,4.2-8.2C93.4,49.8,96.4,49,99.5,49 M99.5,48.1c-3.6,0-6.8,1-9.2,2.7
				c-0.8,3.3-1.7,6.2-4.3,8.4v3.1c0,12,6.2,20.2,13.6,20.2s13.6-8.2,13.6-20.2v-3.1c-2.6-2.2-3.5-5.1-4.3-8.4
				C106.4,49.1,103.1,48.1,99.5,48.1L99.5,48.1z"/>
		</g>
		<path id="Mouth_2_" class="st4" d="M103.6,71.4c-0.1-0.3-0.5-0.5-0.8-0.5h-6.5c-0.4,0-0.7,0.2-0.8,0.5c-0.1,0.3-0.1,0.7,0.2,1
			c1,1.1,2.4,1.7,3.9,1.7s2.9-0.6,3.9-1.7C103.7,72.1,103.8,71.7,103.6,71.4z"/>
		<path id="XMLID_159_" class="st4" d="M88.7,61.1"/>
		<g id="XMLID_157_">
			<path id="XMLID_158_" class="st4" d="M98.3,60.7c-3.3-0.9-6.5-1.1-10.5-0.6c-1.2,0.2-1.1,2,0.1,2.3c0.3,0.9,0.5,2.4,0.9,3.4
				c1,2.3,5.8,2,7.6,0.9c1.2-0.7,1.5-2.3,2-3.6c0.2-0.7,1.6-0.7,1.9,0c0.4,1.2,0.8,2.9,2,3.6c1.8,1.2,6.6,1.5,7.6-0.9
				c0.5-0.9,0.6-2.5,0.9-3.4c1.2-0.2,1.2-2.1,0.1-2.3c-4-0.5-7.2-0.2-10.5,0.6C99.9,60.8,98.8,60.8,98.3,60.7z"/>
		</g>
		<g id="XMLID_154_">
			<path id="XMLID_156_" class="st6" d="M93.2,101.5c0-3.8,3.1-6.9,6.9-6.9s6.9,3.1,6.9,6.9"/>
			<path id="XMLID_155_" class="st4" d="M107.5,101.5h-0.9c0-3.6-2.9-6.5-6.5-6.5s-6.5,2.9-6.5,6.5h-0.9c0-4.1,3.3-7.4,7.4-7.4
				C104.1,94.1,107.5,97.4,107.5,101.5z"/>
		</g>
		<g id="XMLID_138_">
			<g id="XMLID_149_">
				<path id="XMLID_153_" class="st3" d="M96.5,86.1c-1.4-0.7-2.6,0-2.6,0s0.1,1.4,1.5,2.1s2.6,0,2.6,0S97.9,86.8,96.5,86.1z"/>
				<path id="XMLID_150_" class="st4" d="M96.6,89c-0.4,0-0.9-0.1-1.5-0.4c-1.7-0.8-1.7-2.4-1.7-2.5l0-0.3l0.2-0.1
					c0.1,0,1.4-0.9,3-0.1c1.7,0.8,1.7,2.4,1.7,2.5l0,0.3l-0.2,0.1C98.2,88.6,97.5,89,96.6,89z M94.4,86.4c0.1,0.4,0.4,1,1.2,1.4
					c0.8,0.4,1.5,0.3,1.9,0.1c-0.1-0.4-0.4-1-1.2-1.4C95.4,86.1,94.7,86.2,94.4,86.4z"/>
			</g>
			<g id="XMLID_144_">
				<circle id="XMLID_148_" class="st3" cx="95.9" cy="87.2" r="0.8"/>
				<path id="XMLID_145_" class="st4" d="M95.9,88.4c-0.2,0-0.4,0-0.6-0.1c-0.3-0.2-0.5-0.4-0.6-0.7s-0.1-0.7,0.1-1
					c0.2-0.3,0.4-0.5,0.7-0.6c0.3-0.1,0.7-0.1,1,0.1c0.3,0.2,0.5,0.4,0.6,0.7c0.1,0.3,0.1,0.7-0.1,1c-0.2,0.3-0.4,0.5-0.7,0.6
					C96.2,88.4,96,88.4,95.9,88.4z M95.9,86.8c0,0-0.1,0-0.1,0c-0.1,0-0.2,0.1-0.2,0.2c0,0.1-0.1,0.2,0,0.3s0.1,0.2,0.2,0.2
					c0.1,0,0.2,0.1,0.3,0s0.2-0.1,0.2-0.2l0,0c0-0.1,0.1-0.2,0-0.3c0-0.1-0.1-0.2-0.2-0.2C96,86.8,96,86.8,95.9,86.8z"/>
			</g>
			<path id="XMLID_143_" class="st4" d="M94.3,85.5c-0.2,0-0.4-0.1-0.4-0.3l-0.3-0.8c-0.1-0.2,0.1-0.5,0.3-0.6
				c0.2-0.1,0.5,0.1,0.6,0.3l0.3,0.8c0.1,0.2-0.1,0.5-0.3,0.6C94.4,85.5,94.3,85.5,94.3,85.5z"/>
			<path id="XMLID_142_" class="st4" d="M95.6,85.2c-0.2,0-0.4-0.2-0.5-0.4l0-1.7c0-0.3,0.2-0.5,0.4-0.5c0,0,0,0,0,0
				c0.2,0,0.4,0.2,0.5,0.4l0,1.7C96,85,95.8,85.2,95.6,85.2C95.6,85.2,95.6,85.2,95.6,85.2z"/>
			<path id="XMLID_141_" class="st4" d="M97,85.6c-0.1,0-0.1,0-0.2,0c-0.2-0.1-0.3-0.4-0.2-0.6l0.9-1.8c0.1-0.2,0.4-0.3,0.6-0.2
				c0.2,0.1,0.3,0.4,0.2,0.6l-0.9,1.8C97.3,85.5,97.1,85.6,97,85.6z"/>
			<path id="XMLID_140_" class="st4" d="M98.7,87.7c-0.2,0-0.4-0.1-0.4-0.3c-0.1-0.2,0.1-0.5,0.3-0.6l0.8-0.3
				c0.2-0.1,0.5,0.1,0.6,0.3c0.1,0.2-0.1,0.5-0.3,0.6l-0.8,0.3C98.8,87.7,98.8,87.7,98.7,87.7z"/>
			<path id="XMLID_139_" class="st4" d="M98.1,86.6c-0.1,0-0.3-0.1-0.4-0.2c-0.1-0.2-0.1-0.5,0.1-0.6l1.4-1c0.2-0.1,0.5-0.1,0.6,0.1
				c0.1,0.2,0.1,0.5-0.1,0.6l-1.4,1C98.3,86.6,98.2,86.6,98.1,86.6z"/>
		</g>
		<g id="XMLID_128_">
			<path id="XMLID_135_" class="st4" d="M103,85.6c-0.6,0-1.1-0.4-1.2-1c-0.1-0.7,0.3-1.3,1-1.4c0.3-0.1,0.6,0,0.9,0.2
				c0.3,0.2,0.5,0.5,0.5,0.8c0.1,0.3,0,0.6-0.2,0.9c-0.2,0.3-0.5,0.5-0.8,0.5C103.2,85.5,103.1,85.6,103,85.6z M103,84
				C103,84,103,84,103,84c-0.2,0-0.3,0.2-0.3,0.4c0,0.2,0.2,0.3,0.4,0.3c0.1,0,0.2-0.1,0.2-0.1c0-0.1,0.1-0.2,0-0.2h0
				C103.3,84.1,103.2,84,103,84z"/>
			<path id="XMLID_134_" class="st4" d="M104.7,89c-0.7,0-1.3-0.5-1.4-1.2c0-0.2,0.1-0.5,0.4-0.5c0.2,0,0.5,0.1,0.5,0.4
				c0,0.1,0.1,0.3,0.2,0.4c0.1,0.1,0.3,0.1,0.4,0.1c0.4-0.1,0.5-0.2,0.5-0.5c0-0.2,0.1-0.5,0.4-0.5c0.2,0,0.5,0.1,0.5,0.4
				c0.1,0.7-0.3,1.4-1.2,1.5C104.9,89,104.8,89,104.7,89z"/>
			<path id="XMLID_133_" class="st4" d="M101.6,86.1c-0.2,0-0.4-0.2-0.4-0.4c0-0.2,0.1-0.5,0.4-0.5l3.3-0.6c0.2,0,0.5,0.1,0.5,0.4
				c0,0.2-0.1,0.5-0.4,0.5L101.6,86.1C101.7,86.1,101.6,86.1,101.6,86.1z"/>
			<path id="XMLID_132_" class="st4" d="M103.7,88.2c-0.2,0-0.4-0.2-0.4-0.4l-0.5-2.4c0-0.2,0.1-0.5,0.4-0.5c0.2,0,0.5,0.1,0.5,0.4
				l0.5,2.4C104.2,87.9,104,88.1,103.7,88.2C103.8,88.2,103.7,88.2,103.7,88.2z"/>
			<path id="XMLID_131_" class="st4" d="M102.6,89.4c-0.7,0-1.2-0.4-1.3-1c0-0.2,0.1-0.5,0.4-0.5c0.2,0,0.5,0.1,0.5,0.4
				c0,0.2,0.3,0.3,0.6,0.2c0.3-0.1,0.5-0.4,0.4-0.7c0-0.2,0.1-0.5,0.4-0.5c0.2,0,0.5,0.1,0.5,0.4c0.1,0.4,0,0.8-0.2,1.1
				c-0.2,0.3-0.6,0.5-0.9,0.6C102.9,89.4,102.7,89.4,102.6,89.4z"/>
			<path id="XMLID_130_" class="st4" d="M101.6,86.9l0.7,0.8c0.1,0.1,0,0.3-0.1,0.3l-1.1,0.2c-0.1,0-0.3-0.1-0.2-0.3l0.4-1.1
				C101.3,86.8,101.5,86.8,101.6,86.9z"/>
			<path id="XMLID_129_" class="st4" d="M105.5,86.2l0.7,0.8c0.1,0.1,0,0.3-0.1,0.3l-1.1,0.2c-0.1,0-0.3-0.1-0.2-0.3l0.4-1.1
				C105.2,86.1,105.4,86.1,105.5,86.2z"/>
		</g>
		<path id="XMLID_127_" class="st2" d="M86,61.4c-0.5-1.5-1.2-2.6-0.7-3.8c0.6-1.5,0-3,0-3.5c0-0.3,0-1.1,0-1.4
			c1.8-15,15.4-9.2,15.4-9.2s14-5.3,13.1,11.6c0,0.3-0.1,1-0.1,1.6c0,0,0,0,0,0c0.5,1.2,0.2,3.5-0.4,5.2c-0.2,0.4-1.1-0.5-1.1-0.5
			s0.9-3-0.1-2.8c-1.7,0.3-3.3-0.9-3.5-3.9c-0.1-2.2-1.4-3.1-2.5-3.6c-2.9-1.2-6.9,2.3-8.1,3.8c-3.3,4.2-8.7,1.8-8.7,1.9L86,61.4z"
			/>
	</g>
</g>
</svg>
