<svg xmlns="http://www.w3.org/2000/svg" xmlns:xlink="http://www.w3.org/1999/xlink" version="1.1" x="0px" y="0px" viewBox="0 0 100 125" style="enable-background:new 0 0 100 100;" xml:space="preserve"><style type="text/css">
	.st0{fill:none;stroke:#000000;stroke-width:2;stroke-linecap:round;stroke-linejoin:round;stroke-miterlimit:10;}
	.st1{fill:none;stroke:#000000;stroke-width:2;stroke-miterlimit:10;}
</style><path d="M53.5,16.3c-0.8-1.5-2.2-2.3-3.8-2.2c-2,0.1-4.2,1.8-4.4,4.7c-0.5,4.7,4,8.6,4.2,8.8c0.2,0.2,0.4,0.2,0.7,0.2  c0,0,0.1,0,0.1,0c0.2,0,6.1-0.7,8.5-4.8c1.5-2.6,0.7-5.2-0.9-6.4C56.5,15.6,54.9,15.5,53.5,16.3z M56.9,22.1  c-1.5,2.7-5.2,3.5-6.5,3.7c-0.9-0.9-3.5-3.7-3.2-6.8c0.2-1.9,1.5-2.9,2.6-2.9c0,0,0.1,0,0.1,0c1,0,1.8,0.7,2,2  c0.1,0.3,0.3,0.6,0.7,0.7s0.7,0,1-0.2c1-0.9,2.1-1,2.9-0.4C57.4,18.9,57.9,20.4,56.9,22.1z"/><path d="M73.5,56.6c-1.2-1.6-3.8-2.5-6.4-1.1c-4.2,2.2-5.1,8.1-5.1,8.3c0,0.3,0,0.5,0.2,0.8c0.2,0.2,3.7,4.5,8.2,4.5  c0.1,0,0.3,0,0.4,0c3-0.2,4.7-2.3,4.9-4.3c0.2-1.6-0.6-3-2-3.8C74.5,59.5,74.5,57.9,73.5,56.6z M73.8,64.5c-0.1,1.1-1.1,2.3-3,2.5  c-3.1,0.2-5.8-2.5-6.7-3.4c0.3-1.3,1.2-4.9,4-6.4c1.7-0.9,3.2-0.3,3.8,0.5c0.6,0.9,0.5,1.9-0.5,2.9c-0.3,0.3-0.3,0.6-0.3,1  s0.4,0.6,0.7,0.7C73.2,62.6,73.9,63.5,73.8,64.5z"/><path d="M86.4,45.1c1-1.7,1-3.6-0.1-5.2c-1.4-1.9-4.4-2.9-7.4-1.3c-5,2.6-6,9.5-6,9.8c0,0.3,0,0.5,0.2,0.8c0.2,0.2,4.4,5.3,9.7,5.3  c0.2,0,0.3,0,0.5,0c3.4-0.2,5.5-2.6,5.7-4.9C89.1,47.7,88.1,46,86.4,45.1z M86.9,49.4c-0.1,1.4-1.4,3-3.8,3.1  c-3.8,0.2-7.3-3.1-8.3-4.2c0.3-1.4,1.5-6.1,4.9-7.9c2.2-1.1,4-0.4,4.9,0.7c0.8,1.1,0.6,2.5-0.6,3.7c-0.3,0.3-0.3,0.6-0.3,1  s0.4,0.6,0.7,0.7C86.2,46.9,87,48,86.9,49.4z"/><path d="M26.7,90.3c0.8,0,1.6-0.3,2.2-0.9L50.3,68c2.2-2.2,6-7.8,7.4-12.7c1.7-5.7,4.4-10.5,8.2-14.2l1.9-1.9  c0.3,0.1,0.7,0.2,1.1,0.2c0.7,0,1.5-0.3,2.1-0.9c1.1-1.1,1.1-3,0-4.1l-5.7-5.7c-1.1-1.1-3-1.1-4.1,0c-1,1-1.1,2.4-0.5,3.5L59,33.9  c-1.9,1.9-4.1,3.6-6.6,4.9c-0.1,0-0.3,0.1-0.4,0.2c-2.3,1.2-4.7,2.2-7.4,2.9c-4.6,1.2-10.4,4.8-12.9,7.4L10.2,70.7  C9,72,9,74,10.3,75.3l14,14C25,90,25.8,90.3,26.7,90.3z M62.6,30.1c0.2-0.2,0.4-0.3,0.6-0.3s0.5,0.1,0.6,0.3l5.7,5.7  c0.4,0.4,0.4,0.9,0,1.3c-0.4,0.4-0.9,0.4-1.3,0l-5.7-5.7C62.2,31,62.2,30.4,62.6,30.1z M60.4,35.3l1.6-1.6l4.2,4.2l-1.8,1.7  c-1.9,1.9-3.5,4-4.9,6.4L52,47.6l1.5-7.2C56.1,39,58.4,37.3,60.4,35.3z M11.6,72.1l21.5-21.4c2-2,7.5-5.6,12-6.9  c2.2-0.6,4.2-1.3,6.1-2.2l-1.5,7.1c-0.1,0.3,0,0.7,0.3,0.9c0.2,0.2,0.4,0.3,0.7,0.3c0.1,0,0.1,0,0.2,0l7.4-1.6c-1,2-1.8,4.1-2.5,6.4  c-1.3,4.5-4.9,9.9-6.9,11.9L27.4,88c-0.4,0.4-1.2,0.4-1.7-0.1l-14-14C11.2,73.4,11.2,72.6,11.6,72.1z"/><path d="M28,82c0.3,0,0.5-0.1,0.7-0.3l15.5-15.5c0.4-0.4,0.4-1,0-1.4s-1-0.4-1.4,0L27.3,80.3c-0.4,0.4-0.4,1,0,1.4  C27.5,81.9,27.8,82,28,82z"/><path d="M87.4,10.4c-1.5-1.5-4.1-1.3-5.3-0.1l-4,4c-0.2,0.2-0.3,0.4-0.3,0.7c0,2.1,1.4,6.1,6.7,6.8c0,0,0.1,0,0.1,0  c0.3,0,0.5-0.1,0.7-0.3l4-4c0.6-0.6,1-1.5,1.1-2.4c0.1-1-0.3-2-0.9-2.7L87.4,10.4z M88.4,15c0,0.4-0.2,0.9-0.5,1.1l-3.7,3.7  c-3.6-0.7-4.3-3.3-4.4-4.4l3.7-3.7c0.4-0.4,1.8-0.6,2.5,0.1l2,2C88.4,14.2,88.4,14.7,88.4,15z"/><path d="M76.3,21.8l-5.8,5.8c-0.4,0.4-0.4,1,0,1.4c0.2,0.2,0.5,0.3,0.7,0.3s0.5-0.1,0.7-0.3l5.8-5.8c0.4-0.4,0.4-1,0-1.4  S76.7,21.4,76.3,21.8z"/><path d="M71.9,16.3c-0.5-0.2-1.1,0-1.3,0.5l-3.6,7.4c-0.2,0.5,0,1.1,0.5,1.3c0.1,0.1,0.3,0.1,0.4,0.1c0.4,0,0.7-0.2,0.9-0.6l3.6-7.4  C72.6,17.1,72.4,16.5,71.9,16.3z"/><path d="M73.9,31.7c0.1,0.4,0.5,0.7,0.9,0.7c0.1,0,0.2,0,0.3-0.1l7.8-2.6c0.5-0.2,0.8-0.7,0.6-1.3c-0.2-0.5-0.7-0.8-1.3-0.6  l-7.8,2.6C74.1,30.6,73.8,31.1,73.9,31.7z"/><text x="0" y="115" fill="#000000" font-size="5px" font-weight="bold" font-family="'Helvetica Neue', Helvetica, Arial-Unicode, Arial, Sans-serif">Created by Made</text><text x="0" y="120" fill="#000000" font-size="5px" font-weight="bold" font-family="'Helvetica Neue', Helvetica, Arial-Unicode, Arial, Sans-serif">from the Noun Project</text></svg>